  0
SECTION
  2
HEADER
  9
$ACADVER
  1
AC1009
  9
$INSUNITS
  70
4
  9
$EXTMIN
  10
3.925
  20
-4.975
  9
$EXTMAX
  10
13.525
  20
4.725
  0
ENDSEC
  0
SECTION
  2
TABLES
  0
TABLE
  2
LTYPE
  70
1
  0
LTYPE
  2
CONTINUOUS
  70
64
  3
Solid line
  72
65
  73
0
  40
0
  0
ENDTAB
  0
TABLE
  2
LAYER
  70
15
  0
LAYER
  2
SilkScreenTop
  70
0
  62
50
  6
CONTINUOUS
  0
LAYER
  2
CopperBottom
  70
0
  62
208
  6
CONTINUOUS
  0
LAYER
  2
CopperMid
  70
0
  62
4
  6
CONTINUOUS
  0
LAYER
  2
CopperMid2
  70
0
  62
118
  6
CONTINUOUS
  0
LAYER
  2
CopperTop
  70
0
  62
130
  6
CONTINUOUS
  0
LAYER
  2
DimensionLines
  70
0
  62
10
  6
CONTINUOUS
  0
LAYER
  2
DrillHoles
  70
0
  62
10
  6
CONTINUOUS
  0
LAYER
  2
SolderMaskTop
  70
0
  62
3
  6
CONTINUOUS
  0
LAYER
  2
PackageTop
  70
0
  62
255
  6
CONTINUOUS
  0
LAYER
  2
LeadsTop
  70
0
  62
225
  6
CONTINUOUS
  0
LAYER
  2
PasteMaskTop
  70
0
  62
4
  6
CONTINUOUS
  0
LAYER
  2
KeepOutTop
  70
0
  62
1
  6
CONTINUOUS
  0
LAYER
  2
CopperTop-
  70
0
  62
225
  6
CONTINUOUS
  0
LAYER
  2
Sketch1
  70
0
  62
138
  6
CONTINUOUS
  0
LAYER
  2
98_0
  70
0
  62
1
  6
CONTINUOUS
  0
ENDTAB
  0
ENDSEC
  0
SECTION
  2
BLOCKS
  0
ENDSEC
  0
SECTION
  2
ENTITIES
  0
POLYLINE
  8
Sketch1
  70
0
  66
1
  0
VERTEX
  8
Sketch1
  10
9.2
  20
2
  0
VERTEX
  8
Sketch1
  10
10.8
  20
2
  0
SEQEND
  0
POLYLINE
  8
Sketch1
  70
0
  66
1
  0
VERTEX
  8
Sketch1
  10
10.8
  20
2
  0
VERTEX
  8
Sketch1
  10
10.8
  20
3.6
  0
SEQEND
  0
POLYLINE
  8
Sketch1
  70
0
  66
1
  0
VERTEX
  8
Sketch1
  10
9.2
  20
3.6
  0
VERTEX
  8
Sketch1
  10
9.2
  20
2
  0
SEQEND
  0
POLYLINE
  8
Sketch1
  70
0
  66
1
  0
VERTEX
  8
Sketch1
  10
10.8
  20
3.6
  0
VERTEX
  8
Sketch1
  10
9.2
  20
3.6
  0
SEQEND
  0
POLYLINE
  8
Sketch1
  70
0
  66
1
  0
VERTEX
  8
Sketch1
  10
11.05
  20
1.9
  0
VERTEX
  8
Sketch1
  10
11.55
  20
1.9
  0
SEQEND
  0
POLYLINE
  8
Sketch1
  70
0
  66
1
  0
VERTEX
  8
Sketch1
  10
11.55
  20
2.7
  0
VERTEX
  8
Sketch1
  10
11.05
  20
2.7
  0
SEQEND
  0
POLYLINE
  8
Sketch1
  70
0
  66
1
  0
VERTEX
  8
Sketch1
  10
8.45
  20
3.4
  0
VERTEX
  8
Sketch1
  10
8.95
  20
3.4
  0
SEQEND
  0
POLYLINE
  8
Sketch1
  70
0
  66
1
  0
VERTEX
  8
Sketch1
  10
8.95
  20
3.7
  0
VERTEX
  8
Sketch1
  10
8.45
  20
3.7
  0
SEQEND
  0
POLYLINE
  8
Sketch1
  70
0
  66
1
  0
VERTEX
  8
Sketch1
  10
11.05
  20
2.4
  0
VERTEX
  8
Sketch1
  10
11.55
  20
2.4
  0
SEQEND
  0
POLYLINE
  8
Sketch1
  70
0
  66
1
  0
VERTEX
  8
Sketch1
  10
8.45
  20
2.2
  0
VERTEX
  8
Sketch1
  10
8.95
  20
2.2
  0
SEQEND
  0
POLYLINE
  8
Sketch1
  70
0
  66
1
  0
VERTEX
  8
Sketch1
  10
11.55
  20
3.2
  0
VERTEX
  8
Sketch1
  10
11.05
  20
3.2
  0
SEQEND
  0
POLYLINE
  8
Sketch1
  70
0
  66
1
  0
VERTEX
  8
Sketch1
  10
11.55
  20
2.2
  0
VERTEX
  8
Sketch1
  10
11.05
  20
2.2
  0
SEQEND
  0
POLYLINE
  8
Sketch1
  70
0
  66
1
  0
VERTEX
  8
Sketch1
  10
8.45
  20
2.7
  0
VERTEX
  8
Sketch1
  10
8.95
  20
2.7
  0
SEQEND
  0
POLYLINE
  8
Sketch1
  70
0
  66
1
  0
VERTEX
  8
Sketch1
  10
8.95
  20
1.9
  0
VERTEX
  8
Sketch1
  10
8.45
  20
1.9
  0
SEQEND
  0
POLYLINE
  8
Sketch1
  70
0
  66
1
  0
VERTEX
  8
Sketch1
  10
11.05
  20
2.9
  0
VERTEX
  8
Sketch1
  10
11.55
  20
2.9
  0
SEQEND
  0
POLYLINE
  8
Sketch1
  70
0
  66
1
  0
VERTEX
  8
Sketch1
  10
8.95
  20
2.4
  0
VERTEX
  8
Sketch1
  10
8.45
  20
2.4
  0
SEQEND
  0
POLYLINE
  8
Sketch1
  70
0
  66
1
  0
VERTEX
  8
Sketch1
  10
11.55
  20
3.4
  0
VERTEX
  8
Sketch1
  10
11.05
  20
3.4
  0
SEQEND
  0
POLYLINE
  8
Sketch1
  70
0
  66
1
  0
VERTEX
  8
Sketch1
  10
11.05
  20
3.7
  0
VERTEX
  8
Sketch1
  10
11.55
  20
3.7
  0
SEQEND
  0
POLYLINE
  8
Sketch1
  70
0
  66
1
  0
VERTEX
  8
Sketch1
  10
8.45
  20
3.2
  0
VERTEX
  8
Sketch1
  10
8.95
  20
3.2
  0
SEQEND
  0
POLYLINE
  8
Sketch1
  70
0
  66
1
  0
VERTEX
  8
Sketch1
  10
8.95
  20
2.9
  0
VERTEX
  8
Sketch1
  10
8.45
  20
2.9
  0
SEQEND
  0
POLYLINE
  8
Sketch1
  70
0
  66
1
  0
VERTEX
  8
Sketch1
  10
11.05
  20
3.2
  0
VERTEX
  8
Sketch1
  10
11.05
  20
2.9
  0
SEQEND
  0
POLYLINE
  8
Sketch1
  70
0
  66
1
  0
VERTEX
  8
Sketch1
  10
8.45
  20
1.9
  0
VERTEX
  8
Sketch1
  10
8.45
  20
2.2
  0
SEQEND
  0
POLYLINE
  8
Sketch1
  70
0
  66
1
  0
VERTEX
  8
Sketch1
  10
11.05
  20
3.4
  0
VERTEX
  8
Sketch1
  10
11.05
  20
3.7
  0
SEQEND
  0
POLYLINE
  8
Sketch1
  70
0
  66
1
  0
VERTEX
  8
Sketch1
  10
11.55
  20
2.4
  0
VERTEX
  8
Sketch1
  10
11.55
  20
2.7
  0
SEQEND
  0
POLYLINE
  8
Sketch1
  70
0
  66
1
  0
VERTEX
  8
Sketch1
  10
8.45
  20
3.7
  0
VERTEX
  8
Sketch1
  10
8.45
  20
3.4
  0
SEQEND
  0
POLYLINE
  8
Sketch1
  70
0
  66
1
  0
VERTEX
  8
Sketch1
  10
8.95
  20
2.2
  0
VERTEX
  8
Sketch1
  10
8.95
  20
1.9
  0
SEQEND
  0
POLYLINE
  8
Sketch1
  70
0
  66
1
  0
VERTEX
  8
Sketch1
  10
8.95
  20
2.7
  0
VERTEX
  8
Sketch1
  10
8.95
  20
2.4
  0
SEQEND
  0
POLYLINE
  8
Sketch1
  70
0
  66
1
  0
VERTEX
  8
Sketch1
  10
11.05
  20
2.7
  0
VERTEX
  8
Sketch1
  10
11.05
  20
2.4
  0
SEQEND
  0
POLYLINE
  8
Sketch1
  70
0
  66
1
  0
VERTEX
  8
Sketch1
  10
8.95
  20
3.2
  0
VERTEX
  8
Sketch1
  10
8.95
  20
2.9
  0
SEQEND
  0
POLYLINE
  8
Sketch1
  70
0
  66
1
  0
VERTEX
  8
Sketch1
  10
8.45
  20
2.9
  0
VERTEX
  8
Sketch1
  10
8.45
  20
3.2
  0
SEQEND
  0
POLYLINE
  8
Sketch1
  70
0
  66
1
  0
VERTEX
  8
Sketch1
  10
11.55
  20
1.9
  0
VERTEX
  8
Sketch1
  10
11.55
  20
2.2
  0
SEQEND
  0
POLYLINE
  8
Sketch1
  70
0
  66
1
  0
VERTEX
  8
Sketch1
  10
8.95
  20
3.4
  0
VERTEX
  8
Sketch1
  10
8.95
  20
3.7
  0
SEQEND
  0
POLYLINE
  8
Sketch1
  70
0
  66
1
  0
VERTEX
  8
Sketch1
  10
8.45
  20
2.4
  0
VERTEX
  8
Sketch1
  10
8.45
  20
2.7
  0
SEQEND
  0
POLYLINE
  8
Sketch1
  70
0
  66
1
  0
VERTEX
  8
Sketch1
  10
11.05
  20
2.2
  0
VERTEX
  8
Sketch1
  10
11.05
  20
1.9
  0
SEQEND
  0
POLYLINE
  8
Sketch1
  70
0
  66
1
  0
VERTEX
  8
Sketch1
  10
11.55
  20
2.9
  0
VERTEX
  8
Sketch1
  10
11.55
  20
3.2
  0
SEQEND
  0
POLYLINE
  8
Sketch1
  70
0
  66
1
  0
VERTEX
  8
Sketch1
  10
11.55
  20
3.7
  0
VERTEX
  8
Sketch1
  10
11.55
  20
3.4
  0
SEQEND
  0
POLYLINE
  8
SilkScreenTop
  70
1
  66
1
  0
VERTEX
  8
SilkScreenTop
  10
9.6
  20
-4.5
  0
VERTEX
  8
SilkScreenTop
  10
9.4
  20
-4.5
  0
VERTEX
  8
SilkScreenTop
  10
7.9
  20
-4.5
  0
VERTEX
  8
SilkScreenTop
  10
7.9
  20
-4.3
  0
VERTEX
  8
SilkScreenTop
  10
9.4
  20
-4.3
  0
VERTEX
  8
SilkScreenTop
  10
9.4
  20
-3.5
  0
VERTEX
  8
SilkScreenTop
  10
7.9
  20
-3.5
  0
VERTEX
  8
SilkScreenTop
  10
7.9
  20
-3.3
  0
VERTEX
  8
SilkScreenTop
  10
9.45
  20
-3.3
  0
VERTEX
  8
SilkScreenTop
  10
9.6
  20
-3.3
  0
SEQEND
  0
POLYLINE
  8
SilkScreenTop
  70
1
  66
1
  0
VERTEX
  8
SilkScreenTop
  10
7.8
  20
-4.2
  0
VERTEX
  8
SilkScreenTop
  10
7.6
  20
-4.2
  0
VERTEX
  8
SilkScreenTop
  10
7.6
  20
-3.6
  0
VERTEX
  8
SilkScreenTop
  10
7.8
  20
-3.6
  0
SEQEND
  0
POLYLINE
  8
SilkScreenTop
  70
1
  66
1
  0
VERTEX
  8
SilkScreenTop
  10
8.65
  20
-3.85
  0
VERTEX
  8
SilkScreenTop
  10
8.77
  20
-3.85
  0
VERTEX
  8
SilkScreenTop
  10
8.77
  20
-3.95
  0
VERTEX
  8
SilkScreenTop
  10
8.65
  20
-3.95
  0
VERTEX
  8
SilkScreenTop
  10
8.65
  20
-4.07
  0
VERTEX
  8
SilkScreenTop
  10
8.55
  20
-4.07
  0
VERTEX
  8
SilkScreenTop
  10
8.55
  20
-3.95
  0
VERTEX
  8
SilkScreenTop
  10
8.43
  20
-3.95
  0
VERTEX
  8
SilkScreenTop
  10
8.43
  20
-3.85
  0
VERTEX
  8
SilkScreenTop
  10
8.55
  20
-3.85
  0
VERTEX
  8
SilkScreenTop
  10
8.55
  20
-3.73
  0
VERTEX
  8
SilkScreenTop
  10
8.65
  20
-3.73
  0
SEQEND
  0
POLYLINE
  8
SilkScreenTop
  70
1
  66
1
  0
VERTEX
  8
SilkScreenTop
  10
6.694915
  20
-0.812283
  0
VERTEX
  8
SilkScreenTop
  10
6.699511
  20
-0.827265
  0
VERTEX
  8
SilkScreenTop
  10
6.699511
  20
-0.86365
  0
VERTEX
  8
SilkScreenTop
  10
6.699511
  20
-0.899322
  0
VERTEX
  8
SilkScreenTop
  10
6.694915
  20
-0.914661
  0
VERTEX
  8
SilkScreenTop
  10
6.690318
  20
-0.93
  0
VERTEX
  8
SilkScreenTop
  10
6.679674
  20
-0.93
  0
VERTEX
  8
SilkScreenTop
  10
6.22004
  20
-0.93
  0
VERTEX
  8
SilkScreenTop
  10
6.208913
  20
-0.93
  0
VERTEX
  8
SilkScreenTop
  10
6.204316
  20
-0.915018
  0
VERTEX
  8
SilkScreenTop
  10
6.19972
  20
-0.900036
  0
VERTEX
  8
SilkScreenTop
  10
6.19972
  20
-0.864364
  0
VERTEX
  8
SilkScreenTop
  10
6.19972
  20
-0.828692
  0
VERTEX
  8
SilkScreenTop
  10
6.204316
  20
-0.812996
  0
VERTEX
  8
SilkScreenTop
  10
6.208913
  20
-0.797301
  0
VERTEX
  8
SilkScreenTop
  10
6.22004
  20
-0.797301
  0
VERTEX
  8
SilkScreenTop
  10
6.679674
  20
-0.797301
  0
VERTEX
  8
SilkScreenTop
  10
6.690318
  20
-0.797301
  0
SEQEND
  0
POLYLINE
  8
SilkScreenTop
  70
1
  66
1
  0
VERTEX
  8
SilkScreenTop
  10
8.276538
  20
-0.812283
  0
VERTEX
  8
SilkScreenTop
  10
8.281135
  20
-0.827265
  0
VERTEX
  8
SilkScreenTop
  10
8.281135
  20
-0.86365
  0
VERTEX
  8
SilkScreenTop
  10
8.281135
  20
-0.899322
  0
VERTEX
  8
SilkScreenTop
  10
8.276538
  20
-0.914661
  0
VERTEX
  8
SilkScreenTop
  10
8.271942
  20
-0.93
  0
VERTEX
  8
SilkScreenTop
  10
8.261298
  20
-0.93
  0
VERTEX
  8
SilkScreenTop
  10
7.801664
  20
-0.93
  0
VERTEX
  8
SilkScreenTop
  10
7.790536
  20
-0.93
  0
VERTEX
  8
SilkScreenTop
  10
7.78594
  20
-0.915018
  0
VERTEX
  8
SilkScreenTop
  10
7.781344
  20
-0.900036
  0
VERTEX
  8
SilkScreenTop
  10
7.781344
  20
-0.864364
  0
VERTEX
  8
SilkScreenTop
  10
7.781344
  20
-0.828692
  0
VERTEX
  8
SilkScreenTop
  10
7.78594
  20
-0.812996
  0
VERTEX
  8
SilkScreenTop
  10
7.790536
  20
-0.797301
  0
VERTEX
  8
SilkScreenTop
  10
7.801664
  20
-0.797301
  0
VERTEX
  8
SilkScreenTop
  10
8.261298
  20
-0.797301
  0
VERTEX
  8
SilkScreenTop
  10
8.271942
  20
-0.797301
  0
SEQEND
  0
POLYLINE
  8
SilkScreenTop
  70
1
  66
1
  0
VERTEX
  8
SilkScreenTop
  10
5.506399
  20
0.254661
  0
VERTEX
  8
SilkScreenTop
  10
5.517527
  20
0.252878
  0
VERTEX
  8
SilkScreenTop
  10
5.523574
  20
0.248597
  0
VERTEX
  8
SilkScreenTop
  10
5.529622
  20
0.244316
  0
VERTEX
  8
SilkScreenTop
  10
5.532041
  20
0.238609
  0
VERTEX
  8
SilkScreenTop
  10
5.534461
  20
0.232901
  0
VERTEX
  8
SilkScreenTop
  10
5.534461
  20
0.225767
  0
VERTEX
  8
SilkScreenTop
  10
5.534461
  20
-0.60396
  0
VERTEX
  8
SilkScreenTop
  10
5.534461
  20
-0.620369
  0
VERTEX
  8
SilkScreenTop
  10
5.53059
  20
-0.63321
  0
VERTEX
  8
SilkScreenTop
  10
5.526719
  20
-0.646052
  0
VERTEX
  8
SilkScreenTop
  10
5.520188
  20
-0.654614
  0
VERTEX
  8
SilkScreenTop
  10
5.513656
  20
-0.663175
  0
VERTEX
  8
SilkScreenTop
  10
5.504705
  20
-0.667099
  0
VERTEX
  8
SilkScreenTop
  10
5.495755
  20
-0.671023
  0
VERTEX
  8
SilkScreenTop
  10
5.486562
  20
-0.671023
  0
VERTEX
  8
SilkScreenTop
  10
5.432373
  20
-0.671023
  0
VERTEX
  8
SilkScreenTop
  10
5.41544
  20
-0.671023
  0
VERTEX
  8
SilkScreenTop
  10
5.403102
  20
-0.666029
  0
VERTEX
  8
SilkScreenTop
  10
5.390765
  20
-0.661034
  0
VERTEX
  8
SilkScreenTop
  10
5.380362
  20
-0.647836
  0
VERTEX
  8
SilkScreenTop
  10
5.36996
  20
-0.634637
  0
VERTEX
  8
SilkScreenTop
  10
5.360284
  20
-0.612164
  0
VERTEX
  8
SilkScreenTop
  10
5.350607
  20
-0.589691
  0
VERTEX
  8
SilkScreenTop
  10
5.338511
  20
-0.554019
  0
VERTEX
  8
SilkScreenTop
  10
5.18272
  20
-0.12239
  0
VERTEX
  8
SilkScreenTop
  10
5.169173
  20
-0.083864
  0
VERTEX
  8
SilkScreenTop
  10
5.155142
  20
-0.039275
  0
VERTEX
  8
SilkScreenTop
  10
5.141111
  20
0.005315
  0
VERTEX
  8
SilkScreenTop
  10
5.129983
  20
0.047408
  0
VERTEX
  8
SilkScreenTop
  10
5.129015
  20
0.047408
  0
VERTEX
  8
SilkScreenTop
  10
5.130951
  20
-0.00396
  0
VERTEX
  8
SilkScreenTop
  10
5.131918
  20
-0.05497
  0
VERTEX
  8
SilkScreenTop
  10
5.132886
  20
-0.105981
  0
VERTEX
  8
SilkScreenTop
  10
5.132886
  20
-0.160202
  0
VERTEX
  8
SilkScreenTop
  10
5.132886
  20
-0.643199
  0
VERTEX
  8
SilkScreenTop
  10
5.132886
  20
-0.650333
  0
VERTEX
  8
SilkScreenTop
  10
5.130225
  20
-0.65604
  0
VERTEX
  8
SilkScreenTop
  10
5.127564
  20
-0.661748
  0
VERTEX
  8
SilkScreenTop
  10
5.121032
  20
-0.665672
  0
VERTEX
  8
SilkScreenTop
  10
5.1145
  20
-0.669596
  0
VERTEX
  8
SilkScreenTop
  10
5.103373
  20
-0.671736
  0
VERTEX
  8
SilkScreenTop
  10
5.092245
  20
-0.673876
  0
VERTEX
  8
SilkScreenTop
  10
5.074827
  20
-0.673876
  0
VERTEX
  8
SilkScreenTop
  10
5.057893
  20
-0.673876
  0
VERTEX
  8
SilkScreenTop
  10
5.046765
  20
-0.671736
  0
VERTEX
  8
SilkScreenTop
  10
5.035637
  20
-0.669596
  0
VERTEX
  8
SilkScreenTop
  10
5.029347
  20
-0.665672
  0
VERTEX
  8
SilkScreenTop
  10
5.023058
  20
-0.661748
  0
VERTEX
  8
SilkScreenTop
  10
5.020638
  20
-0.65604
  0
VERTEX
  8
SilkScreenTop
  10
5.018219
  20
-0.650333
  0
VERTEX
  8
SilkScreenTop
  10
5.018219
  20
-0.643199
  0
VERTEX
  8
SilkScreenTop
  10
5.018219
  20
0.186528
  0
VERTEX
  8
SilkScreenTop
  10
5.018219
  20
0.220059
  0
VERTEX
  8
SilkScreenTop
  10
5.031525
  20
0.236825
  0
VERTEX
  8
SilkScreenTop
  10
5.04483
  20
0.253591
  0
VERTEX
  8
SilkScreenTop
  10
5.064183
  20
0.253591
  0
VERTEX
  8
SilkScreenTop
  10
5.132402
  20
0.253591
  0
VERTEX
  8
SilkScreenTop
  10
5.150787
  20
0.253591
  0
VERTEX
  8
SilkScreenTop
  10
5.163367
  20
0.248954
  0
VERTEX
  8
SilkScreenTop
  10
5.175946
  20
0.244316
  0
VERTEX
  8
SilkScreenTop
  10
5.185865
  20
0.233615
  0
VERTEX
  8
SilkScreenTop
  10
5.195783
  20
0.222913
  0
VERTEX
  8
SilkScreenTop
  10
5.204492
  20
0.204007
  0
VERTEX
  8
SilkScreenTop
  10
5.213201
  20
0.185101
  0
VERTEX
  8
SilkScreenTop
  10
5.222393
  20
0.157277
  0
VERTEX
  8
SilkScreenTop
  10
5.344317
  20
-0.180178
  0
VERTEX
  8
SilkScreenTop
  10
5.354961
  20
-0.210856
  0
VERTEX
  8
SilkScreenTop
  10
5.365364
  20
-0.240464
  0
VERTEX
  8
SilkScreenTop
  10
5.375766
  20
-0.270071
  0
VERTEX
  8
SilkScreenTop
  10
5.385442
  20
-0.299679
  0
VERTEX
  8
SilkScreenTop
  10
5.395119
  20
-0.329287
  0
VERTEX
  8
SilkScreenTop
  10
5.404312
  20
-0.357824
  0
VERTEX
  8
SilkScreenTop
  10
5.413504
  20
-0.386361
  0
VERTEX
  8
SilkScreenTop
  10
5.422213
  20
-0.414899
  0
VERTEX
  8
SilkScreenTop
  10
5.422697
  20
-0.414899
  0
VERTEX
  8
SilkScreenTop
  10
5.421245
  20
-0.364958
  0
VERTEX
  8
SilkScreenTop
  10
5.42052
  20
-0.310737
  0
VERTEX
  8
SilkScreenTop
  10
5.419794
  20
-0.256516
  0
VERTEX
  8
SilkScreenTop
  10
5.419794
  20
-0.207289
  0
VERTEX
  8
SilkScreenTop
  10
5.419794
  20
0.225767
  0
VERTEX
  8
SilkScreenTop
  10
5.419794
  20
0.232901
  0
VERTEX
  8
SilkScreenTop
  10
5.422697
  20
0.238609
  0
VERTEX
  8
SilkScreenTop
  10
5.4256
  20
0.244316
  0
VERTEX
  8
SilkScreenTop
  10
5.432373
  20
0.248597
  0
VERTEX
  8
SilkScreenTop
  10
5.439147
  20
0.252878
  0
VERTEX
  8
SilkScreenTop
  10
5.450275
  20
0.254661
  0
VERTEX
  8
SilkScreenTop
  10
5.461403
  20
0.256445
  0
VERTEX
  8
SilkScreenTop
  10
5.478821
  20
0.256445
  0
VERTEX
  8
SilkScreenTop
  10
5.495271
  20
0.256445
  0
SEQEND
  0
POLYLINE
  8
SilkScreenTop
  70
1
  66
1
  0
VERTEX
  8
SilkScreenTop
  10
5.943293
  20
0.256801
  0
VERTEX
  8
SilkScreenTop
  10
5.960226
  20
0.255731
  0
VERTEX
  8
SilkScreenTop
  10
5.979096
  20
0.247883
  0
VERTEX
  8
SilkScreenTop
  10
5.983208
  20
0.240036
  0
VERTEX
  8
SilkScreenTop
  10
5.987321
  20
0.232188
  0
VERTEX
  8
SilkScreenTop
  10
5.990224
  20
0.218633
  0
VERTEX
  8
SilkScreenTop
  10
6.183754
  20
-0.599679
  0
VERTEX
  8
SilkScreenTop
  10
6.18956
  20
-0.625363
  0
VERTEX
  8
SilkScreenTop
  10
6.192462
  20
-0.655327
  0
VERTEX
  8
SilkScreenTop
  10
6.181818
  20
-0.670309
  0
VERTEX
  8
SilkScreenTop
  10
6.168271
  20
-0.672093
  0
VERTEX
  8
SilkScreenTop
  10
6.154724
  20
-0.673876
  0
VERTEX
  8
SilkScreenTop
  10
6.106342
  20
-0.673876
  0
VERTEX
  8
SilkScreenTop
  10
6.078764
  20
-0.671736
  0
VERTEX
  8
SilkScreenTop
  10
6.071506
  20
-0.668526
  0
VERTEX
  8
SilkScreenTop
  10
6.064249
  20
-0.665315
  0
VERTEX
  8
SilkScreenTop
  10
6.061346
  20
-0.659608
  0
VERTEX
  8
SilkScreenTop
  10
6.058443
  20
-0.6539
  0
VERTEX
  8
SilkScreenTop
  10
6.056508
  20
-0.644625
  0
VERTEX
  8
SilkScreenTop
  10
6.014415
  20
-0.459132
  0
VERTEX
  8
SilkScreenTop
  10
5.779276
  20
-0.459132
  0
VERTEX
  8
SilkScreenTop
  10
5.739602
  20
-0.639631
  0
VERTEX
  8
SilkScreenTop
  10
5.737667
  20
-0.64962
  0
VERTEX
  8
SilkScreenTop
  10
5.734522
  20
-0.656397
  0
VERTEX
  8
SilkScreenTop
  10
5.731377
  20
-0.663175
  0
VERTEX
  8
SilkScreenTop
  10
5.724362
  20
-0.667099
  0
VERTEX
  8
SilkScreenTop
  10
5.717346
  20
-0.671023
  0
VERTEX
  8
SilkScreenTop
  10
5.704525
  20
-0.672449
  0
VERTEX
  8
SilkScreenTop
  10
5.691704
  20
-0.673876
  0
VERTEX
  8
SilkScreenTop
  10
5.648643
  20
-0.673876
  0
VERTEX
  8
SilkScreenTop
  10
5.636064
  20
-0.671736
  0
VERTEX
  8
SilkScreenTop
  10
5.623484
  20
-0.669596
  0
VERTEX
  8
SilkScreenTop
  10
5.618646
  20
-0.661391
  0
VERTEX
  8
SilkScreenTop
  10
5.613808
  20
-0.653187
  0
VERTEX
  8
SilkScreenTop
  10
5.615259
  20
-0.638205
  0
VERTEX
  8
SilkScreenTop
  10
5.616711
  20
-0.623222
  0
VERTEX
  8
SilkScreenTop
  10
5.622517
  20
-0.598252
  0
VERTEX
  8
SilkScreenTop
  10
5.727185
  20
-0.154182
  0
VERTEX
  8
SilkScreenTop
  10
5.84363
  20
-0.154182
  0
VERTEX
  8
SilkScreenTop
  10
5.807338
  20
-0.315018
  0
VERTEX
  8
SilkScreenTop
  10
5.984902
  20
-0.315018
  0
VERTEX
  8
SilkScreenTop
  10
5.896362
  20
0.077372
  0
VERTEX
  8
SilkScreenTop
  10
5.895878
  20
0.077372
  0
VERTEX
  8
SilkScreenTop
  10
5.84363
  20
-0.154182
  0
VERTEX
  8
SilkScreenTop
  10
5.727185
  20
-0.154182
  0
VERTEX
  8
SilkScreenTop
  10
5.815563
  20
0.220773
  0
VERTEX
  8
SilkScreenTop
  10
5.818466
  20
0.232901
  0
VERTEX
  8
SilkScreenTop
  10
5.822336
  20
0.240392
  0
VERTEX
  8
SilkScreenTop
  10
5.826207
  20
0.247883
  0
VERTEX
  8
SilkScreenTop
  10
5.843141
  20
0.255731
  0
VERTEX
  8
SilkScreenTop
  10
5.858139
  20
0.256801
  0
VERTEX
  8
SilkScreenTop
  10
5.873138
  20
0.257872
  0
VERTEX
  8
SilkScreenTop
  10
5.926359
  20
0.257872
  0
SEQEND
  0
POLYLINE
  8
SilkScreenTop
  70
1
  66
1
  0
VERTEX
  8
SilkScreenTop
  10
6.809339
  20
0.256445
  0
VERTEX
  8
SilkScreenTop
  10
6.821919
  20
0.255018
  0
VERTEX
  8
SilkScreenTop
  10
6.828692
  20
0.251451
  0
VERTEX
  8
SilkScreenTop
  10
6.835466
  20
0.247883
  0
VERTEX
  8
SilkScreenTop
  10
6.838127
  20
0.240749
  0
VERTEX
  8
SilkScreenTop
  10
6.840788
  20
0.233615
  0
VERTEX
  8
SilkScreenTop
  10
6.843207
  20
0.222913
  0
VERTEX
  8
SilkScreenTop
  10
6.995612
  20
-0.489096
  0
VERTEX
  8
SilkScreenTop
  10
6.996096
  20
-0.489096
  0
VERTEX
  8
SilkScreenTop
  10
7.145598
  20
0.219346
  0
VERTEX
  8
SilkScreenTop
  10
7.147533
  20
0.231474
  0
VERTEX
  8
SilkScreenTop
  10
7.150436
  20
0.238966
  0
VERTEX
  8
SilkScreenTop
  10
7.153339
  20
0.246457
  0
VERTEX
  8
SilkScreenTop
  10
7.160354
  20
0.250737
  0
VERTEX
  8
SilkScreenTop
  10
7.16737
  20
0.255018
  0
VERTEX
  8
SilkScreenTop
  10
7.180433
  20
0.256445
  0
VERTEX
  8
SilkScreenTop
  10
7.193496
  20
0.257872
  0
VERTEX
  8
SilkScreenTop
  10
7.216236
  20
0.257872
  0
VERTEX
  8
SilkScreenTop
  10
7.238492
  20
0.257872
  0
VERTEX
  8
SilkScreenTop
  10
7.25083
  20
0.255731
  0
VERTEX
  8
SilkScreenTop
  10
7.263167
  20
0.253591
  0
VERTEX
  8
SilkScreenTop
  10
7.267763
  20
0.245386
  0
VERTEX
  8
SilkScreenTop
  10
7.27236
  20
0.237182
  0
VERTEX
  8
SilkScreenTop
  10
7.270666
  20
0.2222
  0
VERTEX
  8
SilkScreenTop
  10
7.268973
  20
0.207218
  0
VERTEX
  8
SilkScreenTop
  10
7.263167
  20
0.182247
  0
VERTEX
  8
SilkScreenTop
  10
7.076411
  20
-0.636778
  0
VERTEX
  8
SilkScreenTop
  10
7.073992
  20
-0.648906
  0
VERTEX
  8
SilkScreenTop
  10
7.070121
  20
-0.656397
  0
VERTEX
  8
SilkScreenTop
  10
7.06625
  20
-0.663888
  0
VERTEX
  8
SilkScreenTop
  10
7.057541
  20
-0.667812
  0
VERTEX
  8
SilkScreenTop
  10
7.048833
  20
-0.671736
  0
VERTEX
  8
SilkScreenTop
  10
7.033834
  20
-0.672806
  0
VERTEX
  8
SilkScreenTop
  10
7.018835
  20
-0.673876
  0
VERTEX
  8
SilkScreenTop
  10
6.994644
  20
-0.673876
  0
VERTEX
  8
SilkScreenTop
  10
6.975291
  20
-0.673876
  0
VERTEX
  8
SilkScreenTop
  10
6.961502
  20
-0.67352
  0
VERTEX
  8
SilkScreenTop
  10
6.947713
  20
-0.673163
  0
VERTEX
  8
SilkScreenTop
  10
6.938037
  20
-0.671736
  0
VERTEX
  8
SilkScreenTop
  10
6.92836
  20
-0.670309
  0
VERTEX
  8
SilkScreenTop
  10
6.922312
  20
-0.667455
  0
VERTEX
  8
SilkScreenTop
  10
6.916265
  20
-0.664602
  0
VERTEX
  8
SilkScreenTop
  10
6.912152
  20
-0.660321
  0
VERTEX
  8
SilkScreenTop
  10
6.90804
  20
-0.65604
  0
VERTEX
  8
SilkScreenTop
  10
6.905862
  20
-0.649976
  0
VERTEX
  8
SilkScreenTop
  10
6.903685
  20
-0.643912
  0
VERTEX
  8
SilkScreenTop
  10
6.90175
  20
-0.634637
  0
VERTEX
  8
SilkScreenTop
  10
6.715477
  20
0.183674
  0
VERTEX
  8
SilkScreenTop
  10
6.709671
  20
0.209358
  0
VERTEX
  8
SilkScreenTop
  10
6.708462
  20
0.22434
  0
VERTEX
  8
SilkScreenTop
  10
6.707252
  20
0.239322
  0
VERTEX
  8
SilkScreenTop
  10
6.7133
  20
0.246813
  0
VERTEX
  8
SilkScreenTop
  10
6.719348
  20
0.254304
  0
VERTEX
  8
SilkScreenTop
  10
6.733863
  20
0.256088
  0
VERTEX
  8
SilkScreenTop
  10
6.748377
  20
0.257872
  0
VERTEX
  8
SilkScreenTop
  10
6.774504
  20
0.257872
  0
VERTEX
  8
SilkScreenTop
  10
6.79676
  20
0.257872
  0
SEQEND
  0
POLYLINE
  8
SilkScreenTop
  70
1
  66
1
  0
VERTEX
  8
SilkScreenTop
  10
8.599492
  20
0.248597
  0
VERTEX
  8
SilkScreenTop
  10
8.627553
  20
0.240392
  0
VERTEX
  8
SilkScreenTop
  10
8.655615
  20
0.232188
  0
VERTEX
  8
SilkScreenTop
  10
8.684403
  20
0.210071
  0
VERTEX
  8
SilkScreenTop
  10
8.71319
  20
0.187955
  0
VERTEX
  8
SilkScreenTop
  10
8.733511
  20
0.154067
  0
VERTEX
  8
SilkScreenTop
  10
8.753832
  20
0.120178
  0
VERTEX
  8
SilkScreenTop
  10
8.77512
  20
0.029572
  0
VERTEX
  8
SilkScreenTop
  10
8.77512
  20
-0.104554
  0
VERTEX
  8
SilkScreenTop
  10
8.75867
  20
-0.164483
  0
VERTEX
  8
SilkScreenTop
  10
8.74222
  20
-0.224411
  0
VERTEX
  8
SilkScreenTop
  10
8.710771
  20
-0.265434
  0
VERTEX
  8
SilkScreenTop
  10
8.679323
  20
-0.306457
  0
VERTEX
  8
SilkScreenTop
  10
8.633601
  20
-0.32786
  0
VERTEX
  8
SilkScreenTop
  10
8.58788
  20
-0.349263
  0
VERTEX
  8
SilkScreenTop
  10
8.473697
  20
-0.349263
  0
VERTEX
  8
SilkScreenTop
  10
8.473697
  20
-0.651046
  0
VERTEX
  8
SilkScreenTop
  10
8.470552
  20
-0.656754
  0
VERTEX
  8
SilkScreenTop
  10
8.467407
  20
-0.662461
  0
VERTEX
  8
SilkScreenTop
  10
8.46015
  20
-0.666029
  0
VERTEX
  8
SilkScreenTop
  10
8.452893
  20
-0.669596
  0
VERTEX
  8
SilkScreenTop
  10
8.428701
  20
-0.673876
  0
VERTEX
  8
SilkScreenTop
  10
8.391447
  20
-0.673876
  0
VERTEX
  8
SilkScreenTop
  10
8.379109
  20
-0.671736
  0
VERTEX
  8
SilkScreenTop
  10
8.366772
  20
-0.669596
  0
VERTEX
  8
SilkScreenTop
  10
8.359514
  20
-0.666029
  0
VERTEX
  8
SilkScreenTop
  10
8.352257
  20
-0.662461
  0
VERTEX
  8
SilkScreenTop
  10
8.349354
  20
-0.656754
  0
VERTEX
  8
SilkScreenTop
  10
8.346451
  20
-0.651046
  0
VERTEX
  8
SilkScreenTop
  10
8.346451
  20
-0.047128
  0
VERTEX
  8
SilkScreenTop
  10
8.473697
  20
-0.047128
  0
VERTEX
  8
SilkScreenTop
  10
8.473697
  20
-0.204435
  0
VERTEX
  8
SilkScreenTop
  10
8.561269
  20
-0.204435
  0
VERTEX
  8
SilkScreenTop
  10
8.581832
  20
-0.192307
  0
VERTEX
  8
SilkScreenTop
  10
8.602394
  20
-0.180178
  0
VERTEX
  8
SilkScreenTop
  10
8.615458
  20
-0.158419
  0
VERTEX
  8
SilkScreenTop
  10
8.628521
  20
-0.136659
  0
VERTEX
  8
SilkScreenTop
  10
8.635295
  20
-0.106338
  0
VERTEX
  8
SilkScreenTop
  10
8.642068
  20
-0.076017
  0
VERTEX
  8
SilkScreenTop
  10
8.642068
  20
0.008169
  0
VERTEX
  8
SilkScreenTop
  10
8.630456
  20
0.03956
  0
VERTEX
  8
SilkScreenTop
  10
8.618845
  20
0.070951
  0
VERTEX
  8
SilkScreenTop
  10
8.601911
  20
0.085933
  0
VERTEX
  8
SilkScreenTop
  10
8.584977
  20
0.100916
  0
VERTEX
  8
SilkScreenTop
  10
8.56635
  20
0.104839
  0
VERTEX
  8
SilkScreenTop
  10
8.547722
  20
0.108763
  0
VERTEX
  8
SilkScreenTop
  10
8.473697
  20
0.108763
  0
VERTEX
  8
SilkScreenTop
  10
8.473697
  20
-0.047128
  0
VERTEX
  8
SilkScreenTop
  10
8.346451
  20
-0.047128
  0
VERTEX
  8
SilkScreenTop
  10
8.346451
  20
0.220059
  0
VERTEX
  8
SilkScreenTop
  10
8.370159
  20
0.253591
  0
VERTEX
  8
SilkScreenTop
  10
8.559334
  20
0.253591
  0
SEQEND
  0
POLYLINE
  8
SilkScreenTop
  70
1
  66
1
  0
VERTEX
  8
SilkScreenTop
  10
7.611279
  20
0.251807
  0
VERTEX
  8
SilkScreenTop
  10
7.647808
  20
0.233615
  0
VERTEX
  8
SilkScreenTop
  10
7.671999
  20
0.201153
  0
VERTEX
  8
SilkScreenTop
  10
7.69619
  20
0.168692
  0
VERTEX
  8
SilkScreenTop
  10
7.708044
  20
0.124102
  0
VERTEX
  8
SilkScreenTop
  10
7.719898
  20
0.079512
  0
VERTEX
  8
SilkScreenTop
  10
7.719898
  20
0.028145
  0
VERTEX
  8
SilkScreenTop
  10
7.719898
  20
-0.016801
  0
VERTEX
  8
SilkScreenTop
  10
7.714092
  20
-0.060321
  0
VERTEX
  8
SilkScreenTop
  10
7.708286
  20
-0.103841
  0
VERTEX
  8
SilkScreenTop
  10
7.689901
  20
-0.154138
  0
VERTEX
  8
SilkScreenTop
  10
7.671515
  20
-0.204435
  0
VERTEX
  8
SilkScreenTop
  10
7.638131
  20
-0.265434
  0
VERTEX
  8
SilkScreenTop
  10
7.604747
  20
-0.326433
  0
VERTEX
  8
SilkScreenTop
  10
7.549591
  20
-0.407051
  0
VERTEX
  8
SilkScreenTop
  10
7.476534
  20
-0.517634
  0
VERTEX
  8
SilkScreenTop
  10
7.723285
  20
-0.517634
  0
VERTEX
  8
SilkScreenTop
  10
7.728123
  20
-0.517634
  0
VERTEX
  8
SilkScreenTop
  10
7.732235
  20
-0.521914
  0
VERTEX
  8
SilkScreenTop
  10
7.736348
  20
-0.526195
  0
VERTEX
  8
SilkScreenTop
  10
7.739251
  20
-0.535113
  0
VERTEX
  8
SilkScreenTop
  10
7.742154
  20
-0.544031
  0
VERTEX
  8
SilkScreenTop
  10
7.743605
  20
-0.558656
  0
VERTEX
  8
SilkScreenTop
  10
7.745057
  20
-0.573282
  0
VERTEX
  8
SilkScreenTop
  10
7.745057
  20
-0.593258
  0
VERTEX
  8
SilkScreenTop
  10
7.745057
  20
-0.613948
  0
VERTEX
  8
SilkScreenTop
  10
7.743847
  20
-0.628573
  0
VERTEX
  8
SilkScreenTop
  10
7.742638
  20
-0.643199
  0
VERTEX
  8
SilkScreenTop
  10
7.740218
  20
-0.652473
  0
VERTEX
  8
SilkScreenTop
  10
7.737799
  20
-0.661748
  0
VERTEX
  8
SilkScreenTop
  10
7.733929
  20
-0.665672
  0
VERTEX
  8
SilkScreenTop
  10
7.730058
  20
-0.669596
  0
VERTEX
  8
SilkScreenTop
  10
7.72522
  20
-0.669596
  0
VERTEX
  8
SilkScreenTop
  10
7.365254
  20
-0.669596
  0
VERTEX
  8
SilkScreenTop
  10
7.35461
  20
-0.669596
  0
VERTEX
  8
SilkScreenTop
  10
7.346869
  20
-0.666742
  0
VERTEX
  8
SilkScreenTop
  10
7.339128
  20
-0.663888
  0
VERTEX
  8
SilkScreenTop
  10
7.334289
  20
-0.655684
  0
VERTEX
  8
SilkScreenTop
  10
7.329451
  20
-0.647479
  0
VERTEX
  8
SilkScreenTop
  10
7.327274
  20
-0.631784
  0
VERTEX
  8
SilkScreenTop
  10
7.325097
  20
-0.616088
  0
VERTEX
  8
SilkScreenTop
  10
7.325097
  20
-0.591118
  0
VERTEX
  8
SilkScreenTop
  10
7.325097
  20
-0.567574
  0
VERTEX
  8
SilkScreenTop
  10
7.326548
  20
-0.550809
  0
VERTEX
  8
SilkScreenTop
  10
7.328
  20
-0.534043
  0
VERTEX
  8
SilkScreenTop
  10
7.33187
  20
-0.520844
  0
VERTEX
  8
SilkScreenTop
  10
7.335741
  20
-0.507646
  0
VERTEX
  8
SilkScreenTop
  10
7.341789
  20
-0.495161
  0
VERTEX
  8
SilkScreenTop
  10
7.347836
  20
-0.482675
  0
VERTEX
  8
SilkScreenTop
  10
7.357513
  20
-0.467693
  0
VERTEX
  8
SilkScreenTop
  10
7.46589
  20
-0.296468
  0
VERTEX
  8
SilkScreenTop
  10
7.498306
  20
-0.246528
  0
VERTEX
  8
SilkScreenTop
  10
7.518143
  20
-0.205505
  0
VERTEX
  8
SilkScreenTop
  10
7.53798
  20
-0.164483
  0
VERTEX
  8
SilkScreenTop
  10
7.549108
  20
-0.130595
  0
VERTEX
  8
SilkScreenTop
  10
7.560236
  20
-0.096706
  0
VERTEX
  8
SilkScreenTop
  10
7.564348
  20
-0.068169
  0
VERTEX
  8
SilkScreenTop
  10
7.568461
  20
-0.039631
  0
VERTEX
  8
SilkScreenTop
  10
7.568461
  20
-0.013948
  0
VERTEX
  8
SilkScreenTop
  10
7.568461
  20
0.009596
  0
VERTEX
  8
SilkScreenTop
  10
7.56338
  20
0.030642
  0
VERTEX
  8
SilkScreenTop
  10
7.5583
  20
0.051688
  0
VERTEX
  8
SilkScreenTop
  10
7.548382
  20
0.067384
  0
VERTEX
  8
SilkScreenTop
  10
7.538463
  20
0.08308
  0
VERTEX
  8
SilkScreenTop
  10
7.523465
  20
0.091998
  0
VERTEX
  8
SilkScreenTop
  10
7.508466
  20
0.100916
  0
VERTEX
  8
SilkScreenTop
  10
7.488146
  20
0.100916
  0
VERTEX
  8
SilkScreenTop
  10
7.4596
  20
0.100916
  0
VERTEX
  8
SilkScreenTop
  10
7.437586
  20
0.090214
  0
VERTEX
  8
SilkScreenTop
  10
7.415572
  20
0.079512
  0
VERTEX
  8
SilkScreenTop
  10
7.39888
  20
0.066314
  0
VERTEX
  8
SilkScreenTop
  10
7.382188
  20
0.053115
  0
VERTEX
  8
SilkScreenTop
  10
7.37106
  20
0.042057
  0
VERTEX
  8
SilkScreenTop
  10
7.359932
  20
0.030999
  0
VERTEX
  8
SilkScreenTop
  10
7.353642
  20
0.030999
  0
VERTEX
  8
SilkScreenTop
  10
7.349288
  20
0.030999
  0
VERTEX
  8
SilkScreenTop
  10
7.346143
  20
0.035279
  0
VERTEX
  8
SilkScreenTop
  10
7.342998
  20
0.03956
  0
VERTEX
  8
SilkScreenTop
  10
7.341063
  20
0.049548
  0
VERTEX
  8
SilkScreenTop
  10
7.339128
  20
0.059536
  0
VERTEX
  8
SilkScreenTop
  10
7.337918
  20
0.076302
  0
VERTEX
  8
SilkScreenTop
  10
7.336708
  20
0.093068
  0
VERTEX
  8
SilkScreenTop
  10
7.336708
  20
0.117325
  0
VERTEX
  8
SilkScreenTop
  10
7.336708
  20
0.133734
  0
VERTEX
  8
SilkScreenTop
  10
7.337434
  20
0.144792
  0
VERTEX
  8
SilkScreenTop
  10
7.33816
  20
0.15585
  0
VERTEX
  8
SilkScreenTop
  10
7.339611
  20
0.164055
  0
VERTEX
  8
SilkScreenTop
  10
7.341063
  20
0.172259
  0
VERTEX
  8
SilkScreenTop
  10
7.343482
  20
0.178323
  0
VERTEX
  8
SilkScreenTop
  10
7.345901
  20
0.184388
  0
VERTEX
  8
SilkScreenTop
  10
7.351949
  20
0.192949
  0
VERTEX
  8
SilkScreenTop
  10
7.357997
  20
0.20151
  0
VERTEX
  8
SilkScreenTop
  10
7.374205
  20
0.214709
  0
VERTEX
  8
SilkScreenTop
  10
7.390413
  20
0.227907
  0
VERTEX
  8
SilkScreenTop
  10
7.41412
  20
0.240392
  0
VERTEX
  8
SilkScreenTop
  10
7.437828
  20
0.252878
  0
VERTEX
  8
SilkScreenTop
  10
7.466374
  20
0.261439
  0
VERTEX
  8
SilkScreenTop
  10
7.494919
  20
0.27
  0
VERTEX
  8
SilkScreenTop
  10
7.525884
  20
0.27
  0
VERTEX
  8
SilkScreenTop
  10
7.57475
  20
0.27
  0
SEQEND
  0
POLYLINE
  8
SilkScreenTop
  70
1
  66
1
  0
VERTEX
  8
SilkScreenTop
  10
12.1
  20
1.6
  0
VERTEX
  8
SilkScreenTop
  10
7.9
  20
1.6
  0
VERTEX
  8
SilkScreenTop
  10
7.9
  20
3.45
  0
VERTEX
  8
SilkScreenTop
  10
8.1
  20
3.45
  0
VERTEX
  8
SilkScreenTop
  10
8.1
  20
1.8
  0
VERTEX
  8
SilkScreenTop
  10
11.9
  20
1.8
  0
VERTEX
  8
SilkScreenTop
  10
11.9
  20
3.8
  0
VERTEX
  8
SilkScreenTop
  10
8.95
  20
3.8
  0
VERTEX
  8
SilkScreenTop
  10
8.95
  20
4
  0
VERTEX
  8
SilkScreenTop
  10
12.1
  20
4
  0
SEQEND
  0
CIRCLE
  8
SilkScreenTop
  10
8.15
  20
4.2
  40
0.161803
  0
POLYLINE
  8
CopperBottom
  70
1
  66
1
  0
VERTEX
  8
CopperBottom
  10
5.273463
  20
-4.474715
  0
VERTEX
  8
CopperBottom
  10
5.266976
  20
-4.473861
  0
VERTEX
  8
CopperBottom
  10
5.260589
  20
-4.472444
  0
VERTEX
  8
CopperBottom
  10
5.254348
  20
-4.470477
  0
VERTEX
  8
CopperBottom
  10
5.248304
  20
-4.467973
  0
VERTEX
  8
CopperBottom
  10
5.2425
  20
-4.464952
  0
VERTEX
  8
CopperBottom
  10
5.236982
  20
-4.461436
  0
VERTEX
  8
CopperBottom
  10
5.231791
  20
-4.457453
  0
VERTEX
  8
CopperBottom
  10
5.226967
  20
-4.453033
  0
VERTEX
  8
CopperBottom
  10
4.496967
  20
-3.723033
  0
VERTEX
  8
CopperBottom
  10
4.492547
  20
-3.718209
  0
VERTEX
  8
CopperBottom
  10
4.488564
  20
-3.713018
  0
VERTEX
  8
CopperBottom
  10
4.485048
  20
-3.7075
  0
VERTEX
  8
CopperBottom
  10
4.482027
  20
-3.701696
  0
VERTEX
  8
CopperBottom
  10
4.479523
  20
-3.695652
  0
VERTEX
  8
CopperBottom
  10
4.477556
  20
-3.689411
  0
VERTEX
  8
CopperBottom
  10
4.476139
  20
-3.683024
  0
VERTEX
  8
CopperBottom
  10
4.475285
  20
-3.676537
  0
VERTEX
  8
CopperBottom
  10
4.475
  20
-3.67
  0
VERTEX
  8
CopperBottom
  10
4.475
  20
3.9
  0
VERTEX
  8
CopperBottom
  10
4.475285
  20
3.906537
  0
VERTEX
  8
CopperBottom
  10
4.476139
  20
3.913024
  0
VERTEX
  8
CopperBottom
  10
4.477556
  20
3.919411
  0
VERTEX
  8
CopperBottom
  10
4.479523
  20
3.925652
  0
VERTEX
  8
CopperBottom
  10
4.482027
  20
3.931696
  0
VERTEX
  8
CopperBottom
  10
4.485048
  20
3.9375
  0
VERTEX
  8
CopperBottom
  10
4.488564
  20
3.943018
  0
VERTEX
  8
CopperBottom
  10
4.492547
  20
3.948209
  0
VERTEX
  8
CopperBottom
  10
4.496967
  20
3.953033
  0
VERTEX
  8
CopperBottom
  10
4.746967
  20
4.203033
  0
VERTEX
  8
CopperBottom
  10
4.751791
  20
4.207453
  0
VERTEX
  8
CopperBottom
  10
4.756982
  20
4.211436
  0
VERTEX
  8
CopperBottom
  10
4.7625
  20
4.214952
  0
VERTEX
  8
CopperBottom
  10
4.768304
  20
4.217973
  0
VERTEX
  8
CopperBottom
  10
4.774348
  20
4.220477
  0
VERTEX
  8
CopperBottom
  10
4.780589
  20
4.222444
  0
VERTEX
  8
CopperBottom
  10
4.786976
  20
4.223861
  0
VERTEX
  8
CopperBottom
  10
4.793463
  20
4.224715
  0
VERTEX
  8
CopperBottom
  10
4.8
  20
4.225
  0
VERTEX
  8
CopperBottom
  10
12.7
  20
4.225
  0
VERTEX
  8
CopperBottom
  10
12.706537
  20
4.224715
  0
VERTEX
  8
CopperBottom
  10
12.713024
  20
4.223861
  0
VERTEX
  8
CopperBottom
  10
12.719411
  20
4.222444
  0
VERTEX
  8
CopperBottom
  10
12.725652
  20
4.220477
  0
VERTEX
  8
CopperBottom
  10
12.731696
  20
4.217973
  0
VERTEX
  8
CopperBottom
  10
12.7375
  20
4.214952
  0
VERTEX
  8
CopperBottom
  10
12.743018
  20
4.211436
  0
VERTEX
  8
CopperBottom
  10
12.748209
  20
4.207453
  0
VERTEX
  8
CopperBottom
  10
12.753033
  20
4.203033
  0
VERTEX
  8
CopperBottom
  10
12.953033
  20
4.003033
  0
VERTEX
  8
CopperBottom
  10
12.957453
  20
3.998209
  0
VERTEX
  8
CopperBottom
  10
12.961436
  20
3.993018
  0
VERTEX
  8
CopperBottom
  10
12.964952
  20
3.9875
  0
VERTEX
  8
CopperBottom
  10
12.967973
  20
3.981696
  0
VERTEX
  8
CopperBottom
  10
12.970477
  20
3.975652
  0
VERTEX
  8
CopperBottom
  10
12.972444
  20
3.969411
  0
VERTEX
  8
CopperBottom
  10
12.973861
  20
3.963024
  0
VERTEX
  8
CopperBottom
  10
12.974715
  20
3.956537
  0
VERTEX
  8
CopperBottom
  10
12.975
  20
3.95
  0
VERTEX
  8
CopperBottom
  10
12.975
  20
-0.5
  0
VERTEX
  8
CopperBottom
  10
12.974715
  20
-0.506537
  0
VERTEX
  8
CopperBottom
  10
12.973861
  20
-0.513024
  0
VERTEX
  8
CopperBottom
  10
12.972444
  20
-0.519411
  0
VERTEX
  8
CopperBottom
  10
12.970477
  20
-0.525652
  0
VERTEX
  8
CopperBottom
  10
12.967973
  20
-0.531696
  0
VERTEX
  8
CopperBottom
  10
12.964952
  20
-0.5375
  0
VERTEX
  8
CopperBottom
  10
12.961436
  20
-0.543018
  0
VERTEX
  8
CopperBottom
  10
12.957453
  20
-0.548209
  0
VERTEX
  8
CopperBottom
  10
12.953033
  20
-0.553033
  0
VERTEX
  8
CopperBottom
  10
12.153033
  20
-1.353033
  0
VERTEX
  8
CopperBottom
  10
12.148209
  20
-1.357453
  0
VERTEX
  8
CopperBottom
  10
12.143018
  20
-1.361436
  0
VERTEX
  8
CopperBottom
  10
12.1375
  20
-1.364952
  0
VERTEX
  8
CopperBottom
  10
12.131696
  20
-1.367973
  0
VERTEX
  8
CopperBottom
  10
12.125652
  20
-1.370477
  0
VERTEX
  8
CopperBottom
  10
12.119411
  20
-1.372444
  0
VERTEX
  8
CopperBottom
  10
12.113024
  20
-1.373861
  0
VERTEX
  8
CopperBottom
  10
12.106537
  20
-1.374715
  0
VERTEX
  8
CopperBottom
  10
12.1
  20
-1.375
  0
VERTEX
  8
CopperBottom
  10
10.131066
  20
-1.375
  0
VERTEX
  8
CopperBottom
  10
10.078033
  20
-1.428033
  0
VERTEX
  8
CopperBottom
  10
9.825
  20
-1.681066
  0
VERTEX
  8
CopperBottom
  10
9.825
  20
-2.925
  0
VERTEX
  8
CopperBottom
  10
12.37
  20
-2.925
  0
VERTEX
  8
CopperBottom
  10
12.376537
  20
-2.925285
  0
VERTEX
  8
CopperBottom
  10
12.383024
  20
-2.926139
  0
VERTEX
  8
CopperBottom
  10
12.389411
  20
-2.927556
  0
VERTEX
  8
CopperBottom
  10
12.395652
  20
-2.929523
  0
VERTEX
  8
CopperBottom
  10
12.401696
  20
-2.932027
  0
VERTEX
  8
CopperBottom
  10
12.4075
  20
-2.935048
  0
VERTEX
  8
CopperBottom
  10
12.413018
  20
-2.938564
  0
VERTEX
  8
CopperBottom
  10
12.418209
  20
-2.942547
  0
VERTEX
  8
CopperBottom
  10
12.423033
  20
-2.946967
  0
VERTEX
  8
CopperBottom
  10
12.532556
  20
-3.05649
  0
VERTEX
  8
CopperBottom
  10
12.536976
  20
-3.061314
  0
VERTEX
  8
CopperBottom
  10
12.540959
  20
-3.066505
  0
VERTEX
  8
CopperBottom
  10
12.544475
  20
-3.072023
  0
VERTEX
  8
CopperBottom
  10
12.547496
  20
-3.077827
  0
VERTEX
  8
CopperBottom
  10
12.55
  20
-3.083871
  0
VERTEX
  8
CopperBottom
  10
12.551967
  20
-3.090112
  0
VERTEX
  8
CopperBottom
  10
12.553384
  20
-3.096499
  0
VERTEX
  8
CopperBottom
  10
12.554238
  20
-3.102986
  0
VERTEX
  8
CopperBottom
  10
12.554523
  20
-3.109523
  0
VERTEX
  8
CopperBottom
  10
12.554523
  20
-3.438296
  0
VERTEX
  8
CopperBottom
  10
12.555
  20
-3.44375
  0
VERTEX
  8
CopperBottom
  10
12.555
  20
-3.87
  0
VERTEX
  8
CopperBottom
  10
12.554715
  20
-3.876537
  0
VERTEX
  8
CopperBottom
  10
12.553861
  20
-3.883024
  0
VERTEX
  8
CopperBottom
  10
12.552444
  20
-3.889411
  0
VERTEX
  8
CopperBottom
  10
12.550477
  20
-3.895652
  0
VERTEX
  8
CopperBottom
  10
12.547973
  20
-3.901696
  0
VERTEX
  8
CopperBottom
  10
12.544952
  20
-3.9075
  0
VERTEX
  8
CopperBottom
  10
12.541436
  20
-3.913018
  0
VERTEX
  8
CopperBottom
  10
12.537453
  20
-3.918209
  0
VERTEX
  8
CopperBottom
  10
12.533033
  20
-3.923033
  0
VERTEX
  8
CopperBottom
  10
12.303033
  20
-4.153033
  0
VERTEX
  8
CopperBottom
  10
12.298209
  20
-4.157453
  0
VERTEX
  8
CopperBottom
  10
12.293018
  20
-4.161436
  0
VERTEX
  8
CopperBottom
  10
12.2875
  20
-4.164952
  0
VERTEX
  8
CopperBottom
  10
12.281696
  20
-4.167973
  0
VERTEX
  8
CopperBottom
  10
12.275652
  20
-4.170477
  0
VERTEX
  8
CopperBottom
  10
12.269411
  20
-4.172444
  0
VERTEX
  8
CopperBottom
  10
12.263024
  20
-4.173861
  0
VERTEX
  8
CopperBottom
  10
12.256537
  20
-4.174715
  0
VERTEX
  8
CopperBottom
  10
12.25
  20
-4.175
  0
VERTEX
  8
CopperBottom
  10
5.51
  20
-4.175
  0
VERTEX
  8
CopperBottom
  10
5.503463
  20
-4.174715
  0
VERTEX
  8
CopperBottom
  10
5.496976
  20
-4.173861
  0
VERTEX
  8
CopperBottom
  10
5.490589
  20
-4.172444
  0
VERTEX
  8
CopperBottom
  10
5.484348
  20
-4.170477
  0
VERTEX
  8
CopperBottom
  10
5.478304
  20
-4.167973
  0
VERTEX
  8
CopperBottom
  10
5.4725
  20
-4.164952
  0
VERTEX
  8
CopperBottom
  10
5.466982
  20
-4.161436
  0
VERTEX
  8
CopperBottom
  10
5.461791
  20
-4.157453
  0
VERTEX
  8
CopperBottom
  10
5.456967
  20
-4.153033
  0
VERTEX
  8
CopperBottom
  10
4.796967
  20
-3.493033
  0
VERTEX
  8
CopperBottom
  10
4.792547
  20
-3.488209
  0
VERTEX
  8
CopperBottom
  10
4.788564
  20
-3.483018
  0
VERTEX
  8
CopperBottom
  10
4.785048
  20
-3.4775
  0
VERTEX
  8
CopperBottom
  10
4.782027
  20
-3.471696
  0
VERTEX
  8
CopperBottom
  10
4.779523
  20
-3.465652
  0
VERTEX
  8
CopperBottom
  10
4.777556
  20
-3.459411
  0
VERTEX
  8
CopperBottom
  10
4.776139
  20
-3.453024
  0
VERTEX
  8
CopperBottom
  10
4.775285
  20
-3.446537
  0
VERTEX
  8
CopperBottom
  10
4.775
  20
-3.44
  0
VERTEX
  8
CopperBottom
  10
4.775
  20
3.68
  0
VERTEX
  8
CopperBottom
  10
4.775285
  20
3.686537
  0
VERTEX
  8
CopperBottom
  10
4.776139
  20
3.693024
  0
VERTEX
  8
CopperBottom
  10
4.777556
  20
3.699411
  0
VERTEX
  8
CopperBottom
  10
4.779523
  20
3.705652
  0
VERTEX
  8
CopperBottom
  10
4.782027
  20
3.711696
  0
VERTEX
  8
CopperBottom
  10
4.785048
  20
3.7175
  0
VERTEX
  8
CopperBottom
  10
4.788564
  20
3.723018
  0
VERTEX
  8
CopperBottom
  10
4.792547
  20
3.728209
  0
VERTEX
  8
CopperBottom
  10
4.796967
  20
3.733033
  0
VERTEX
  8
CopperBottom
  10
4.966967
  20
3.903033
  0
VERTEX
  8
CopperBottom
  10
4.971791
  20
3.907453
  0
VERTEX
  8
CopperBottom
  10
4.976982
  20
3.911436
  0
VERTEX
  8
CopperBottom
  10
4.9825
  20
3.914952
  0
VERTEX
  8
CopperBottom
  10
4.988304
  20
3.917973
  0
VERTEX
  8
CopperBottom
  10
4.994348
  20
3.920477
  0
VERTEX
  8
CopperBottom
  10
5.000589
  20
3.922444
  0
VERTEX
  8
CopperBottom
  10
5.006976
  20
3.923861
  0
VERTEX
  8
CopperBottom
  10
5.013463
  20
3.924715
  0
VERTEX
  8
CopperBottom
  10
5.02
  20
3.925
  0
VERTEX
  8
CopperBottom
  10
12.45
  20
3.925
  0
VERTEX
  8
CopperBottom
  10
12.456537
  20
3.924715
  0
VERTEX
  8
CopperBottom
  10
12.463024
  20
3.923861
  0
VERTEX
  8
CopperBottom
  10
12.469411
  20
3.922444
  0
VERTEX
  8
CopperBottom
  10
12.475652
  20
3.920477
  0
VERTEX
  8
CopperBottom
  10
12.481696
  20
3.917973
  0
VERTEX
  8
CopperBottom
  10
12.4875
  20
3.914952
  0
VERTEX
  8
CopperBottom
  10
12.493018
  20
3.911436
  0
VERTEX
  8
CopperBottom
  10
12.498209
  20
3.907453
  0
VERTEX
  8
CopperBottom
  10
12.503033
  20
3.903033
  0
VERTEX
  8
CopperBottom
  10
12.653033
  20
3.753033
  0
VERTEX
  8
CopperBottom
  10
12.657453
  20
3.748209
  0
VERTEX
  8
CopperBottom
  10
12.661436
  20
3.743018
  0
VERTEX
  8
CopperBottom
  10
12.664952
  20
3.7375
  0
VERTEX
  8
CopperBottom
  10
12.667973
  20
3.731696
  0
VERTEX
  8
CopperBottom
  10
12.670477
  20
3.725652
  0
VERTEX
  8
CopperBottom
  10
12.672444
  20
3.719411
  0
VERTEX
  8
CopperBottom
  10
12.673861
  20
3.713024
  0
VERTEX
  8
CopperBottom
  10
12.674715
  20
3.706537
  0
VERTEX
  8
CopperBottom
  10
12.675
  20
3.7
  0
VERTEX
  8
CopperBottom
  10
12.675
  20
-0.35
  0
VERTEX
  8
CopperBottom
  10
12.674715
  20
-0.356537
  0
VERTEX
  8
CopperBottom
  10
12.673861
  20
-0.363024
  0
VERTEX
  8
CopperBottom
  10
12.672444
  20
-0.369411
  0
VERTEX
  8
CopperBottom
  10
12.670477
  20
-0.375652
  0
VERTEX
  8
CopperBottom
  10
12.667973
  20
-0.381696
  0
VERTEX
  8
CopperBottom
  10
12.664952
  20
-0.3875
  0
VERTEX
  8
CopperBottom
  10
12.661436
  20
-0.393018
  0
VERTEX
  8
CopperBottom
  10
12.657453
  20
-0.398209
  0
VERTEX
  8
CopperBottom
  10
12.653033
  20
-0.403033
  0
VERTEX
  8
CopperBottom
  10
12.003033
  20
-1.053033
  0
VERTEX
  8
CopperBottom
  10
11.998209
  20
-1.057453
  0
VERTEX
  8
CopperBottom
  10
11.993018
  20
-1.061436
  0
VERTEX
  8
CopperBottom
  10
11.9875
  20
-1.064952
  0
VERTEX
  8
CopperBottom
  10
11.981696
  20
-1.067973
  0
VERTEX
  8
CopperBottom
  10
11.975652
  20
-1.070477
  0
VERTEX
  8
CopperBottom
  10
11.969411
  20
-1.072444
  0
VERTEX
  8
CopperBottom
  10
11.963024
  20
-1.073861
  0
VERTEX
  8
CopperBottom
  10
11.956537
  20
-1.074715
  0
VERTEX
  8
CopperBottom
  10
11.95
  20
-1.075
  0
VERTEX
  8
CopperBottom
  10
9.991066
  20
-1.075
  0
VERTEX
  8
CopperBottom
  10
9.505
  20
-1.561066
  0
VERTEX
  8
CopperBottom
  10
9.505
  20
-3.62
  0
VERTEX
  8
CopperBottom
  10
9.504715
  20
-3.626537
  0
VERTEX
  8
CopperBottom
  10
9.503861
  20
-3.633024
  0
VERTEX
  8
CopperBottom
  10
9.502444
  20
-3.639411
  0
VERTEX
  8
CopperBottom
  10
9.500477
  20
-3.645652
  0
VERTEX
  8
CopperBottom
  10
9.497973
  20
-3.651696
  0
VERTEX
  8
CopperBottom
  10
9.494952
  20
-3.6575
  0
VERTEX
  8
CopperBottom
  10
9.491436
  20
-3.663018
  0
VERTEX
  8
CopperBottom
  10
9.487453
  20
-3.668209
  0
VERTEX
  8
CopperBottom
  10
9.483033
  20
-3.673033
  0
VERTEX
  8
CopperBottom
  10
9.333033
  20
-3.823033
  0
VERTEX
  8
CopperBottom
  10
9.328209
  20
-3.827453
  0
VERTEX
  8
CopperBottom
  10
9.323018
  20
-3.831436
  0
VERTEX
  8
CopperBottom
  10
9.3175
  20
-3.834952
  0
VERTEX
  8
CopperBottom
  10
9.311696
  20
-3.837973
  0
VERTEX
  8
CopperBottom
  10
9.305652
  20
-3.840477
  0
VERTEX
  8
CopperBottom
  10
9.299411
  20
-3.842444
  0
VERTEX
  8
CopperBottom
  10
9.293024
  20
-3.843861
  0
VERTEX
  8
CopperBottom
  10
9.286537
  20
-3.844715
  0
VERTEX
  8
CopperBottom
  10
9.28
  20
-3.845
  0
VERTEX
  8
CopperBottom
  10
5.63
  20
-3.845
  0
VERTEX
  8
CopperBottom
  10
5.623463
  20
-3.844715
  0
VERTEX
  8
CopperBottom
  10
5.616976
  20
-3.843861
  0
VERTEX
  8
CopperBottom
  10
5.610589
  20
-3.842444
  0
VERTEX
  8
CopperBottom
  10
5.604348
  20
-3.840477
  0
VERTEX
  8
CopperBottom
  10
5.598304
  20
-3.837973
  0
VERTEX
  8
CopperBottom
  10
5.5925
  20
-3.834952
  0
VERTEX
  8
CopperBottom
  10
5.586982
  20
-3.831436
  0
VERTEX
  8
CopperBottom
  10
5.581791
  20
-3.827453
  0
VERTEX
  8
CopperBottom
  10
5.576967
  20
-3.823033
  0
VERTEX
  8
CopperBottom
  10
5.126967
  20
-3.373033
  0
VERTEX
  8
CopperBottom
  10
5.122547
  20
-3.368209
  0
VERTEX
  8
CopperBottom
  10
5.118564
  20
-3.363018
  0
VERTEX
  8
CopperBottom
  10
5.115048
  20
-3.3575
  0
VERTEX
  8
CopperBottom
  10
5.112027
  20
-3.351696
  0
VERTEX
  8
CopperBottom
  10
5.109523
  20
-3.345652
  0
VERTEX
  8
CopperBottom
  10
5.107556
  20
-3.339411
  0
VERTEX
  8
CopperBottom
  10
5.106139
  20
-3.333024
  0
VERTEX
  8
CopperBottom
  10
5.105285
  20
-3.326537
  0
VERTEX
  8
CopperBottom
  10
5.105
  20
-3.32
  0
VERTEX
  8
CopperBottom
  10
5.105
  20
3.53
  0
VERTEX
  8
CopperBottom
  10
5.106139
  20
3.543024
  0
VERTEX
  8
CopperBottom
  10
5.109523
  20
3.555652
  0
VERTEX
  8
CopperBottom
  10
5.115048
  20
3.5675
  0
VERTEX
  8
CopperBottom
  10
5.122547
  20
3.578209
  0
VERTEX
  8
CopperBottom
  10
5.131791
  20
3.587453
  0
VERTEX
  8
CopperBottom
  10
5.1425
  20
3.594952
  0
VERTEX
  8
CopperBottom
  10
5.154348
  20
3.600477
  0
VERTEX
  8
CopperBottom
  10
5.166976
  20
3.603861
  0
VERTEX
  8
CopperBottom
  10
5.18
  20
3.605
  0
VERTEX
  8
CopperBottom
  10
12.23
  20
3.605
  0
VERTEX
  8
CopperBottom
  10
12.236537
  20
3.604715
  0
VERTEX
  8
CopperBottom
  10
12.243024
  20
3.603861
  0
VERTEX
  8
CopperBottom
  10
12.249411
  20
3.602444
  0
VERTEX
  8
CopperBottom
  10
12.255652
  20
3.600477
  0
VERTEX
  8
CopperBottom
  10
12.261696
  20
3.597973
  0
VERTEX
  8
CopperBottom
  10
12.2675
  20
3.594952
  0
VERTEX
  8
CopperBottom
  10
12.273018
  20
3.591436
  0
VERTEX
  8
CopperBottom
  10
12.278209
  20
3.587453
  0
VERTEX
  8
CopperBottom
  10
12.283033
  20
3.583033
  0
VERTEX
  8
CopperBottom
  10
12.333033
  20
3.533033
  0
VERTEX
  8
CopperBottom
  10
12.337453
  20
3.528209
  0
VERTEX
  8
CopperBottom
  10
12.341436
  20
3.523018
  0
VERTEX
  8
CopperBottom
  10
12.344952
  20
3.5175
  0
VERTEX
  8
CopperBottom
  10
12.347973
  20
3.511696
  0
VERTEX
  8
CopperBottom
  10
12.350477
  20
3.505652
  0
VERTEX
  8
CopperBottom
  10
12.352444
  20
3.499411
  0
VERTEX
  8
CopperBottom
  10
12.353861
  20
3.493024
  0
VERTEX
  8
CopperBottom
  10
12.354715
  20
3.486537
  0
VERTEX
  8
CopperBottom
  10
12.355
  20
3.48
  0
VERTEX
  8
CopperBottom
  10
12.355
  20
-0.22
  0
VERTEX
  8
CopperBottom
  10
12.354715
  20
-0.226537
  0
VERTEX
  8
CopperBottom
  10
12.353861
  20
-0.233024
  0
VERTEX
  8
CopperBottom
  10
12.352444
  20
-0.239411
  0
VERTEX
  8
CopperBottom
  10
12.350477
  20
-0.245652
  0
VERTEX
  8
CopperBottom
  10
12.347973
  20
-0.251696
  0
VERTEX
  8
CopperBottom
  10
12.344952
  20
-0.2575
  0
VERTEX
  8
CopperBottom
  10
12.341436
  20
-0.263018
  0
VERTEX
  8
CopperBottom
  10
12.337453
  20
-0.268209
  0
VERTEX
  8
CopperBottom
  10
12.333033
  20
-0.273033
  0
VERTEX
  8
CopperBottom
  10
11.933033
  20
-0.673033
  0
VERTEX
  8
CopperBottom
  10
11.928209
  20
-0.677453
  0
VERTEX
  8
CopperBottom
  10
11.923018
  20
-0.681436
  0
VERTEX
  8
CopperBottom
  10
11.9175
  20
-0.684952
  0
VERTEX
  8
CopperBottom
  10
11.911696
  20
-0.687973
  0
VERTEX
  8
CopperBottom
  10
11.905652
  20
-0.690477
  0
VERTEX
  8
CopperBottom
  10
11.899411
  20
-0.692444
  0
VERTEX
  8
CopperBottom
  10
11.893024
  20
-0.693861
  0
VERTEX
  8
CopperBottom
  10
11.886537
  20
-0.694715
  0
VERTEX
  8
CopperBottom
  10
11.88
  20
-0.695
  0
VERTEX
  8
CopperBottom
  10
10.771987
  20
-0.695
  0
VERTEX
  8
CopperBottom
  10
10.744627
  20
-0.72236
  0
VERTEX
  8
CopperBottom
  10
10.7125
  20
-0.744856
  0
VERTEX
  8
CopperBottom
  10
10.676955
  20
-0.761431
  0
VERTEX
  8
CopperBottom
  10
10.639071
  20
-0.771582
  0
VERTEX
  8
CopperBottom
  10
10.6
  20
-0.775
  0
VERTEX
  8
CopperBottom
  10
10.560929
  20
-0.771582
  0
VERTEX
  8
CopperBottom
  10
10.523045
  20
-0.761431
  0
VERTEX
  8
CopperBottom
  10
10.4875
  20
-0.744856
  0
VERTEX
  8
CopperBottom
  10
10.455373
  20
-0.72236
  0
VERTEX
  8
CopperBottom
  10
10.42764
  20
-0.694627
  0
VERTEX
  8
CopperBottom
  10
10.405144
  20
-0.6625
  0
VERTEX
  8
CopperBottom
  10
10.388569
  20
-0.626955
  0
VERTEX
  8
CopperBottom
  10
10.378418
  20
-0.589071
  0
VERTEX
  8
CopperBottom
  10
10.375
  20
-0.55
  0
VERTEX
  8
CopperBottom
  10
10.378418
  20
-0.510929
  0
VERTEX
  8
CopperBottom
  10
10.388569
  20
-0.473045
  0
VERTEX
  8
CopperBottom
  10
10.405144
  20
-0.4375
  0
VERTEX
  8
CopperBottom
  10
10.42764
  20
-0.405373
  0
VERTEX
  8
CopperBottom
  10
10.455373
  20
-0.37764
  0
VERTEX
  8
CopperBottom
  10
10.4875
  20
-0.355144
  0
VERTEX
  8
CopperBottom
  10
10.523045
  20
-0.338569
  0
VERTEX
  8
CopperBottom
  10
10.560929
  20
-0.328418
  0
VERTEX
  8
CopperBottom
  10
10.6
  20
-0.325
  0
VERTEX
  8
CopperBottom
  10
10.639071
  20
-0.328418
  0
VERTEX
  8
CopperBottom
  10
10.676955
  20
-0.338569
  0
VERTEX
  8
CopperBottom
  10
10.7125
  20
-0.355144
  0
VERTEX
  8
CopperBottom
  10
10.744627
  20
-0.37764
  0
VERTEX
  8
CopperBottom
  10
10.77236
  20
-0.405373
  0
VERTEX
  8
CopperBottom
  10
10.794856
  20
-0.4375
  0
VERTEX
  8
CopperBottom
  10
10.811431
  20
-0.473045
  0
VERTEX
  8
CopperBottom
  10
10.821582
  20
-0.510929
  0
VERTEX
  8
CopperBottom
  10
10.824563
  20
-0.545
  0
VERTEX
  8
CopperBottom
  10
11.848934
  20
-0.545
  0
VERTEX
  8
CopperBottom
  10
12.205
  20
-0.188934
  0
VERTEX
  8
CopperBottom
  10
12.205
  20
3.448934
  0
VERTEX
  8
CopperBottom
  10
12.198934
  20
3.455
  0
VERTEX
  8
CopperBottom
  10
5.255
  20
3.455
  0
VERTEX
  8
CopperBottom
  10
5.255
  20
-3.288934
  0
VERTEX
  8
CopperBottom
  10
5.661066
  20
-3.695
  0
VERTEX
  8
CopperBottom
  10
9.248934
  20
-3.695
  0
VERTEX
  8
CopperBottom
  10
9.355
  20
-3.588934
  0
VERTEX
  8
CopperBottom
  10
9.355
  20
-1.53
  0
VERTEX
  8
CopperBottom
  10
9.355285
  20
-1.523463
  0
VERTEX
  8
CopperBottom
  10
9.356139
  20
-1.516976
  0
VERTEX
  8
CopperBottom
  10
9.357556
  20
-1.510589
  0
VERTEX
  8
CopperBottom
  10
9.359523
  20
-1.504348
  0
VERTEX
  8
CopperBottom
  10
9.362027
  20
-1.498304
  0
VERTEX
  8
CopperBottom
  10
9.365048
  20
-1.4925
  0
VERTEX
  8
CopperBottom
  10
9.368564
  20
-1.486982
  0
VERTEX
  8
CopperBottom
  10
9.372547
  20
-1.481791
  0
VERTEX
  8
CopperBottom
  10
9.376967
  20
-1.476967
  0
VERTEX
  8
CopperBottom
  10
9.906967
  20
-0.946967
  0
VERTEX
  8
CopperBottom
  10
9.909477
  20
-0.944861
  0
VERTEX
  8
CopperBottom
  10
9.911791
  20
-0.942547
  0
VERTEX
  8
CopperBottom
  10
9.914475
  20
-0.940668
  0
VERTEX
  8
CopperBottom
  10
9.916982
  20
-0.938564
  0
VERTEX
  8
CopperBottom
  10
9.919814
  20
-0.936929
  0
VERTEX
  8
CopperBottom
  10
9.9225
  20
-0.935048
  0
VERTEX
  8
CopperBottom
  10
9.925472
  20
-0.933662
  0
VERTEX
  8
CopperBottom
  10
9.928304
  20
-0.932027
  0
VERTEX
  8
CopperBottom
  10
9.931375
  20
-0.930909
  0
VERTEX
  8
CopperBottom
  10
9.934348
  20
-0.929523
  0
VERTEX
  8
CopperBottom
  10
9.937519
  20
-0.928673
  0
VERTEX
  8
CopperBottom
  10
9.940589
  20
-0.927556
  0
VERTEX
  8
CopperBottom
  10
9.943806
  20
-0.926989
  0
VERTEX
  8
CopperBottom
  10
9.946976
  20
-0.926139
  0
VERTEX
  8
CopperBottom
  10
9.95024
  20
-0.925854
  0
VERTEX
  8
CopperBottom
  10
9.953463
  20
-0.925285
  0
VERTEX
  8
CopperBottom
  10
9.956741
  20
-0.925285
  0
VERTEX
  8
CopperBottom
  10
9.96
  20
-0.925
  0
VERTEX
  8
CopperBottom
  10
11.918934
  20
-0.925
  0
VERTEX
  8
CopperBottom
  10
12.525
  20
-0.318934
  0
VERTEX
  8
CopperBottom
  10
12.525
  20
3.668934
  0
VERTEX
  8
CopperBottom
  10
12.418934
  20
3.775
  0
VERTEX
  8
CopperBottom
  10
5.051066
  20
3.775
  0
VERTEX
  8
CopperBottom
  10
4.925
  20
3.648934
  0
VERTEX
  8
CopperBottom
  10
4.925
  20
-3.408934
  0
VERTEX
  8
CopperBottom
  10
5.541066
  20
-4.025
  0
VERTEX
  8
CopperBottom
  10
12.218934
  20
-4.025
  0
VERTEX
  8
CopperBottom
  10
12.405
  20
-3.838934
  0
VERTEX
  8
CopperBottom
  10
12.405
  20
-3.525454
  0
VERTEX
  8
CopperBottom
  10
12.404523
  20
-3.52
  0
VERTEX
  8
CopperBottom
  10
12.404523
  20
-3.140589
  0
VERTEX
  8
CopperBottom
  10
12.338934
  20
-3.075
  0
VERTEX
  8
CopperBottom
  10
9.77
  20
-3.075
  0
VERTEX
  8
CopperBottom
  10
9.756976
  20
-3.073861
  0
VERTEX
  8
CopperBottom
  10
9.744348
  20
-3.070477
  0
VERTEX
  8
CopperBottom
  10
9.7325
  20
-3.064952
  0
VERTEX
  8
CopperBottom
  10
9.721791
  20
-3.057453
  0
VERTEX
  8
CopperBottom
  10
9.712547
  20
-3.048209
  0
VERTEX
  8
CopperBottom
  10
9.705048
  20
-3.0375
  0
VERTEX
  8
CopperBottom
  10
9.699523
  20
-3.025652
  0
VERTEX
  8
CopperBottom
  10
9.699352
  20
-3.025014
  0
VERTEX
  8
CopperBottom
  10
9.692547
  20
-3.018209
  0
VERTEX
  8
CopperBottom
  10
9.685048
  20
-3.0075
  0
VERTEX
  8
CopperBottom
  10
9.679523
  20
-2.995652
  0
VERTEX
  8
CopperBottom
  10
9.676139
  20
-2.983024
  0
VERTEX
  8
CopperBottom
  10
9.675
  20
-2.97
  0
VERTEX
  8
CopperBottom
  10
9.675
  20
-1.65
  0
VERTEX
  8
CopperBottom
  10
9.675285
  20
-1.643463
  0
VERTEX
  8
CopperBottom
  10
9.676139
  20
-1.636976
  0
VERTEX
  8
CopperBottom
  10
9.677556
  20
-1.630589
  0
VERTEX
  8
CopperBottom
  10
9.679523
  20
-1.624348
  0
VERTEX
  8
CopperBottom
  10
9.682027
  20
-1.618304
  0
VERTEX
  8
CopperBottom
  10
9.685048
  20
-1.6125
  0
VERTEX
  8
CopperBottom
  10
9.688564
  20
-1.606982
  0
VERTEX
  8
CopperBottom
  10
9.692547
  20
-1.601791
  0
VERTEX
  8
CopperBottom
  10
9.696967
  20
-1.596967
  0
VERTEX
  8
CopperBottom
  10
9.971967
  20
-1.321967
  0
VERTEX
  8
CopperBottom
  10
10.046967
  20
-1.246967
  0
VERTEX
  8
CopperBottom
  10
10.051791
  20
-1.242547
  0
VERTEX
  8
CopperBottom
  10
10.056982
  20
-1.238564
  0
VERTEX
  8
CopperBottom
  10
10.0625
  20
-1.235048
  0
VERTEX
  8
CopperBottom
  10
10.068304
  20
-1.232027
  0
VERTEX
  8
CopperBottom
  10
10.074348
  20
-1.229523
  0
VERTEX
  8
CopperBottom
  10
10.080589
  20
-1.227556
  0
VERTEX
  8
CopperBottom
  10
10.086976
  20
-1.226139
  0
VERTEX
  8
CopperBottom
  10
10.093463
  20
-1.225285
  0
VERTEX
  8
CopperBottom
  10
10.1
  20
-1.225
  0
VERTEX
  8
CopperBottom
  10
12.068934
  20
-1.225
  0
VERTEX
  8
CopperBottom
  10
12.825
  20
-0.468934
  0
VERTEX
  8
CopperBottom
  10
12.825
  20
3.918934
  0
VERTEX
  8
CopperBottom
  10
12.668934
  20
4.075
  0
VERTEX
  8
CopperBottom
  10
4.831066
  20
4.075
  0
VERTEX
  8
CopperBottom
  10
4.625
  20
3.868934
  0
VERTEX
  8
CopperBottom
  10
4.625
  20
-3.638934
  0
VERTEX
  8
CopperBottom
  10
5.311066
  20
-4.325
  0
VERTEX
  8
CopperBottom
  10
12.28
  20
-4.325
  0
VERTEX
  8
CopperBottom
  10
12.588934
  20
-4.325
  0
VERTEX
  8
CopperBottom
  10
12.775
  20
-4.138934
  0
VERTEX
  8
CopperBottom
  10
12.775
  20
-3.02
  0
VERTEX
  8
CopperBottom
  10
12.775
  20
-2.811066
  0
VERTEX
  8
CopperBottom
  10
12.638934
  20
-2.675
  0
VERTEX
  8
CopperBottom
  10
10.07
  20
-2.675
  0
VERTEX
  8
CopperBottom
  10
10.056976
  20
-2.673861
  0
VERTEX
  8
CopperBottom
  10
10.044348
  20
-2.670477
  0
VERTEX
  8
CopperBottom
  10
10.0325
  20
-2.664952
  0
VERTEX
  8
CopperBottom
  10
10.021791
  20
-2.657453
  0
VERTEX
  8
CopperBottom
  10
10.012547
  20
-2.648209
  0
VERTEX
  8
CopperBottom
  10
10.005048
  20
-2.6375
  0
VERTEX
  8
CopperBottom
  10
9.999523
  20
-2.625652
  0
VERTEX
  8
CopperBottom
  10
9.999352
  20
-2.625014
  0
VERTEX
  8
CopperBottom
  10
9.992547
  20
-2.618209
  0
VERTEX
  8
CopperBottom
  10
9.985048
  20
-2.6075
  0
VERTEX
  8
CopperBottom
  10
9.979523
  20
-2.595652
  0
VERTEX
  8
CopperBottom
  10
9.976139
  20
-2.583024
  0
VERTEX
  8
CopperBottom
  10
9.975
  20
-2.57
  0
VERTEX
  8
CopperBottom
  10
9.975
  20
-1.85
  0
VERTEX
  8
CopperBottom
  10
9.975285
  20
-1.843463
  0
VERTEX
  8
CopperBottom
  10
9.976139
  20
-1.836976
  0
VERTEX
  8
CopperBottom
  10
9.977556
  20
-1.830589
  0
VERTEX
  8
CopperBottom
  10
9.979523
  20
-1.824348
  0
VERTEX
  8
CopperBottom
  10
9.982027
  20
-1.818304
  0
VERTEX
  8
CopperBottom
  10
9.985048
  20
-1.8125
  0
VERTEX
  8
CopperBottom
  10
9.988564
  20
-1.806982
  0
VERTEX
  8
CopperBottom
  10
9.992547
  20
-1.801791
  0
VERTEX
  8
CopperBottom
  10
9.996967
  20
-1.796967
  0
VERTEX
  8
CopperBottom
  10
10.246967
  20
-1.546967
  0
VERTEX
  8
CopperBottom
  10
10.251791
  20
-1.542547
  0
VERTEX
  8
CopperBottom
  10
10.256982
  20
-1.538564
  0
VERTEX
  8
CopperBottom
  10
10.2625
  20
-1.535048
  0
VERTEX
  8
CopperBottom
  10
10.268304
  20
-1.532027
  0
VERTEX
  8
CopperBottom
  10
10.274348
  20
-1.529523
  0
VERTEX
  8
CopperBottom
  10
10.280589
  20
-1.527556
  0
VERTEX
  8
CopperBottom
  10
10.286976
  20
-1.526139
  0
VERTEX
  8
CopperBottom
  10
10.293463
  20
-1.525285
  0
VERTEX
  8
CopperBottom
  10
10.3
  20
-1.525
  0
VERTEX
  8
CopperBottom
  10
12.218934
  20
-1.525
  0
VERTEX
  8
CopperBottom
  10
13.125
  20
-0.618934
  0
VERTEX
  8
CopperBottom
  10
13.125
  20
4.218934
  0
VERTEX
  8
CopperBottom
  10
12.968934
  20
4.375
  0
VERTEX
  8
CopperBottom
  10
4.631066
  20
4.375
  0
VERTEX
  8
CopperBottom
  10
4.325
  20
4.068934
  0
VERTEX
  8
CopperBottom
  10
4.325
  20
-3.768934
  0
VERTEX
  8
CopperBottom
  10
5.181066
  20
-4.625
  0
VERTEX
  8
CopperBottom
  10
13.018934
  20
-4.625
  0
VERTEX
  8
CopperBottom
  10
13.125
  20
-4.518934
  0
VERTEX
  8
CopperBottom
  10
13.125
  20
-2.231066
  0
VERTEX
  8
CopperBottom
  10
13.018934
  20
-2.125
  0
VERTEX
  8
CopperBottom
  10
10.822813
  20
-2.125
  0
VERTEX
  8
CopperBottom
  10
10.821582
  20
-2.139071
  0
VERTEX
  8
CopperBottom
  10
10.811431
  20
-2.176955
  0
VERTEX
  8
CopperBottom
  10
10.794856
  20
-2.2125
  0
VERTEX
  8
CopperBottom
  10
10.77236
  20
-2.244627
  0
VERTEX
  8
CopperBottom
  10
10.744627
  20
-2.27236
  0
VERTEX
  8
CopperBottom
  10
10.7125
  20
-2.294856
  0
VERTEX
  8
CopperBottom
  10
10.676955
  20
-2.311431
  0
VERTEX
  8
CopperBottom
  10
10.639071
  20
-2.321582
  0
VERTEX
  8
CopperBottom
  10
10.6
  20
-2.325
  0
VERTEX
  8
CopperBottom
  10
10.560929
  20
-2.321582
  0
VERTEX
  8
CopperBottom
  10
10.523045
  20
-2.311431
  0
VERTEX
  8
CopperBottom
  10
10.4875
  20
-2.294856
  0
VERTEX
  8
CopperBottom
  10
10.455373
  20
-2.27236
  0
VERTEX
  8
CopperBottom
  10
10.42764
  20
-2.244627
  0
VERTEX
  8
CopperBottom
  10
10.405144
  20
-2.2125
  0
VERTEX
  8
CopperBottom
  10
10.388569
  20
-2.176955
  0
VERTEX
  8
CopperBottom
  10
10.378418
  20
-2.139071
  0
VERTEX
  8
CopperBottom
  10
10.375
  20
-2.1
  0
VERTEX
  8
CopperBottom
  10
10.378418
  20
-2.060929
  0
VERTEX
  8
CopperBottom
  10
10.388569
  20
-2.023045
  0
VERTEX
  8
CopperBottom
  10
10.405144
  20
-1.9875
  0
VERTEX
  8
CopperBottom
  10
10.42764
  20
-1.955373
  0
VERTEX
  8
CopperBottom
  10
10.455373
  20
-1.92764
  0
VERTEX
  8
CopperBottom
  10
10.4875
  20
-1.905144
  0
VERTEX
  8
CopperBottom
  10
10.523045
  20
-1.888569
  0
VERTEX
  8
CopperBottom
  10
10.560929
  20
-1.878418
  0
VERTEX
  8
CopperBottom
  10
10.6
  20
-1.875
  0
VERTEX
  8
CopperBottom
  10
10.639071
  20
-1.878418
  0
VERTEX
  8
CopperBottom
  10
10.676955
  20
-1.888569
  0
VERTEX
  8
CopperBottom
  10
10.7125
  20
-1.905144
  0
VERTEX
  8
CopperBottom
  10
10.744627
  20
-1.92764
  0
VERTEX
  8
CopperBottom
  10
10.77236
  20
-1.955373
  0
VERTEX
  8
CopperBottom
  10
10.786103
  20
-1.975
  0
VERTEX
  8
CopperBottom
  10
13.05
  20
-1.975
  0
VERTEX
  8
CopperBottom
  10
13.056537
  20
-1.975285
  0
VERTEX
  8
CopperBottom
  10
13.063024
  20
-1.976139
  0
VERTEX
  8
CopperBottom
  10
13.069411
  20
-1.977556
  0
VERTEX
  8
CopperBottom
  10
13.075652
  20
-1.979523
  0
VERTEX
  8
CopperBottom
  10
13.081696
  20
-1.982027
  0
VERTEX
  8
CopperBottom
  10
13.0875
  20
-1.985048
  0
VERTEX
  8
CopperBottom
  10
13.093018
  20
-1.988564
  0
VERTEX
  8
CopperBottom
  10
13.098209
  20
-1.992547
  0
VERTEX
  8
CopperBottom
  10
13.103033
  20
-1.996967
  0
VERTEX
  8
CopperBottom
  10
13.253033
  20
-2.146967
  0
VERTEX
  8
CopperBottom
  10
13.257453
  20
-2.151791
  0
VERTEX
  8
CopperBottom
  10
13.261436
  20
-2.156982
  0
VERTEX
  8
CopperBottom
  10
13.264952
  20
-2.1625
  0
VERTEX
  8
CopperBottom
  10
13.267973
  20
-2.168304
  0
VERTEX
  8
CopperBottom
  10
13.270477
  20
-2.174348
  0
VERTEX
  8
CopperBottom
  10
13.272444
  20
-2.180589
  0
VERTEX
  8
CopperBottom
  10
13.273861
  20
-2.186976
  0
VERTEX
  8
CopperBottom
  10
13.274715
  20
-2.193463
  0
VERTEX
  8
CopperBottom
  10
13.275
  20
-2.2
  0
VERTEX
  8
CopperBottom
  10
13.275
  20
-4.55
  0
VERTEX
  8
CopperBottom
  10
13.274715
  20
-4.556537
  0
VERTEX
  8
CopperBottom
  10
13.273861
  20
-4.563024
  0
VERTEX
  8
CopperBottom
  10
13.272444
  20
-4.569411
  0
VERTEX
  8
CopperBottom
  10
13.270477
  20
-4.575652
  0
VERTEX
  8
CopperBottom
  10
13.267973
  20
-4.581696
  0
VERTEX
  8
CopperBottom
  10
13.264952
  20
-4.5875
  0
VERTEX
  8
CopperBottom
  10
13.261436
  20
-4.593018
  0
VERTEX
  8
CopperBottom
  10
13.257453
  20
-4.598209
  0
VERTEX
  8
CopperBottom
  10
13.253033
  20
-4.603033
  0
VERTEX
  8
CopperBottom
  10
13.103033
  20
-4.753033
  0
VERTEX
  8
CopperBottom
  10
13.098209
  20
-4.757453
  0
VERTEX
  8
CopperBottom
  10
13.093018
  20
-4.761436
  0
VERTEX
  8
CopperBottom
  10
13.0875
  20
-4.764952
  0
VERTEX
  8
CopperBottom
  10
13.081696
  20
-4.767973
  0
VERTEX
  8
CopperBottom
  10
13.075652
  20
-4.770477
  0
VERTEX
  8
CopperBottom
  10
13.069411
  20
-4.772444
  0
VERTEX
  8
CopperBottom
  10
13.063024
  20
-4.773861
  0
VERTEX
  8
CopperBottom
  10
13.056537
  20
-4.774715
  0
VERTEX
  8
CopperBottom
  10
13.05
  20
-4.775
  0
VERTEX
  8
CopperBottom
  10
5.15
  20
-4.775
  0
VERTEX
  8
CopperBottom
  10
5.143463
  20
-4.774715
  0
VERTEX
  8
CopperBottom
  10
5.136976
  20
-4.773861
  0
VERTEX
  8
CopperBottom
  10
5.130589
  20
-4.772444
  0
VERTEX
  8
CopperBottom
  10
5.124348
  20
-4.770477
  0
VERTEX
  8
CopperBottom
  10
5.118304
  20
-4.767973
  0
VERTEX
  8
CopperBottom
  10
5.1125
  20
-4.764952
  0
VERTEX
  8
CopperBottom
  10
5.106982
  20
-4.761436
  0
VERTEX
  8
CopperBottom
  10
5.101791
  20
-4.757453
  0
VERTEX
  8
CopperBottom
  10
5.096967
  20
-4.753033
  0
VERTEX
  8
CopperBottom
  10
4.196967
  20
-3.853033
  0
VERTEX
  8
CopperBottom
  10
4.192547
  20
-3.848209
  0
VERTEX
  8
CopperBottom
  10
4.188564
  20
-3.843018
  0
VERTEX
  8
CopperBottom
  10
4.185048
  20
-3.8375
  0
VERTEX
  8
CopperBottom
  10
4.182027
  20
-3.831696
  0
VERTEX
  8
CopperBottom
  10
4.179523
  20
-3.825652
  0
VERTEX
  8
CopperBottom
  10
4.177556
  20
-3.819411
  0
VERTEX
  8
CopperBottom
  10
4.176139
  20
-3.813024
  0
VERTEX
  8
CopperBottom
  10
4.175285
  20
-3.806537
  0
VERTEX
  8
CopperBottom
  10
4.175
  20
-3.8
  0
VERTEX
  8
CopperBottom
  10
4.175
  20
4.1
  0
VERTEX
  8
CopperBottom
  10
4.175285
  20
4.106537
  0
VERTEX
  8
CopperBottom
  10
4.176139
  20
4.113024
  0
VERTEX
  8
CopperBottom
  10
4.177556
  20
4.119411
  0
VERTEX
  8
CopperBottom
  10
4.179523
  20
4.125652
  0
VERTEX
  8
CopperBottom
  10
4.182027
  20
4.131696
  0
VERTEX
  8
CopperBottom
  10
4.185048
  20
4.1375
  0
VERTEX
  8
CopperBottom
  10
4.188564
  20
4.143018
  0
VERTEX
  8
CopperBottom
  10
4.192547
  20
4.148209
  0
VERTEX
  8
CopperBottom
  10
4.196967
  20
4.153033
  0
VERTEX
  8
CopperBottom
  10
4.546967
  20
4.503033
  0
VERTEX
  8
CopperBottom
  10
4.551791
  20
4.507453
  0
VERTEX
  8
CopperBottom
  10
4.556982
  20
4.511436
  0
VERTEX
  8
CopperBottom
  10
4.5625
  20
4.514952
  0
VERTEX
  8
CopperBottom
  10
4.568304
  20
4.517973
  0
VERTEX
  8
CopperBottom
  10
4.574348
  20
4.520477
  0
VERTEX
  8
CopperBottom
  10
4.580589
  20
4.522444
  0
VERTEX
  8
CopperBottom
  10
4.586976
  20
4.523861
  0
VERTEX
  8
CopperBottom
  10
4.593463
  20
4.524715
  0
VERTEX
  8
CopperBottom
  10
4.6
  20
4.525
  0
VERTEX
  8
CopperBottom
  10
13
  20
4.525
  0
VERTEX
  8
CopperBottom
  10
13.006537
  20
4.524715
  0
VERTEX
  8
CopperBottom
  10
13.013024
  20
4.523861
  0
VERTEX
  8
CopperBottom
  10
13.019411
  20
4.522444
  0
VERTEX
  8
CopperBottom
  10
13.025652
  20
4.520477
  0
VERTEX
  8
CopperBottom
  10
13.031696
  20
4.517973
  0
VERTEX
  8
CopperBottom
  10
13.0375
  20
4.514952
  0
VERTEX
  8
CopperBottom
  10
13.043018
  20
4.511436
  0
VERTEX
  8
CopperBottom
  10
13.048209
  20
4.507453
  0
VERTEX
  8
CopperBottom
  10
13.053033
  20
4.503033
  0
VERTEX
  8
CopperBottom
  10
13.253033
  20
4.303033
  0
VERTEX
  8
CopperBottom
  10
13.257453
  20
4.298209
  0
VERTEX
  8
CopperBottom
  10
13.261436
  20
4.293018
  0
VERTEX
  8
CopperBottom
  10
13.264952
  20
4.2875
  0
VERTEX
  8
CopperBottom
  10
13.267973
  20
4.281696
  0
VERTEX
  8
CopperBottom
  10
13.270477
  20
4.275652
  0
VERTEX
  8
CopperBottom
  10
13.272444
  20
4.269411
  0
VERTEX
  8
CopperBottom
  10
13.273861
  20
4.263024
  0
VERTEX
  8
CopperBottom
  10
13.274715
  20
4.256537
  0
VERTEX
  8
CopperBottom
  10
13.275
  20
4.25
  0
VERTEX
  8
CopperBottom
  10
13.275
  20
-0.65
  0
VERTEX
  8
CopperBottom
  10
13.274715
  20
-0.656537
  0
VERTEX
  8
CopperBottom
  10
13.273861
  20
-0.663024
  0
VERTEX
  8
CopperBottom
  10
13.272444
  20
-0.669411
  0
VERTEX
  8
CopperBottom
  10
13.270477
  20
-0.675652
  0
VERTEX
  8
CopperBottom
  10
13.267973
  20
-0.681696
  0
VERTEX
  8
CopperBottom
  10
13.264952
  20
-0.6875
  0
VERTEX
  8
CopperBottom
  10
13.261436
  20
-0.693018
  0
VERTEX
  8
CopperBottom
  10
13.257453
  20
-0.698209
  0
VERTEX
  8
CopperBottom
  10
13.253033
  20
-0.703033
  0
VERTEX
  8
CopperBottom
  10
12.303033
  20
-1.653033
  0
VERTEX
  8
CopperBottom
  10
12.298209
  20
-1.657453
  0
VERTEX
  8
CopperBottom
  10
12.293018
  20
-1.661436
  0
VERTEX
  8
CopperBottom
  10
12.2875
  20
-1.664952
  0
VERTEX
  8
CopperBottom
  10
12.281696
  20
-1.667973
  0
VERTEX
  8
CopperBottom
  10
12.275652
  20
-1.670477
  0
VERTEX
  8
CopperBottom
  10
12.269411
  20
-1.672444
  0
VERTEX
  8
CopperBottom
  10
12.263024
  20
-1.673861
  0
VERTEX
  8
CopperBottom
  10
12.256537
  20
-1.674715
  0
VERTEX
  8
CopperBottom
  10
12.25
  20
-1.675
  0
VERTEX
  8
CopperBottom
  10
10.331066
  20
-1.675
  0
VERTEX
  8
CopperBottom
  10
10.125
  20
-1.881066
  0
VERTEX
  8
CopperBottom
  10
10.125
  20
-2.525
  0
VERTEX
  8
CopperBottom
  10
12.67
  20
-2.525
  0
VERTEX
  8
CopperBottom
  10
12.676537
  20
-2.525285
  0
VERTEX
  8
CopperBottom
  10
12.683024
  20
-2.526139
  0
VERTEX
  8
CopperBottom
  10
12.689411
  20
-2.527556
  0
VERTEX
  8
CopperBottom
  10
12.695652
  20
-2.529523
  0
VERTEX
  8
CopperBottom
  10
12.701696
  20
-2.532027
  0
VERTEX
  8
CopperBottom
  10
12.7075
  20
-2.535048
  0
VERTEX
  8
CopperBottom
  10
12.713018
  20
-2.538564
  0
VERTEX
  8
CopperBottom
  10
12.718209
  20
-2.542547
  0
VERTEX
  8
CopperBottom
  10
12.723033
  20
-2.546967
  0
VERTEX
  8
CopperBottom
  10
12.903033
  20
-2.726967
  0
VERTEX
  8
CopperBottom
  10
12.907453
  20
-2.731791
  0
VERTEX
  8
CopperBottom
  10
12.911436
  20
-2.736982
  0
VERTEX
  8
CopperBottom
  10
12.914952
  20
-2.7425
  0
VERTEX
  8
CopperBottom
  10
12.917973
  20
-2.748304
  0
VERTEX
  8
CopperBottom
  10
12.920477
  20
-2.754348
  0
VERTEX
  8
CopperBottom
  10
12.922444
  20
-2.760589
  0
VERTEX
  8
CopperBottom
  10
12.923861
  20
-2.766976
  0
VERTEX
  8
CopperBottom
  10
12.924715
  20
-2.773463
  0
VERTEX
  8
CopperBottom
  10
12.925
  20
-2.78
  0
VERTEX
  8
CopperBottom
  10
12.925
  20
-3.02
  0
VERTEX
  8
CopperBottom
  10
12.925
  20
-4.17
  0
VERTEX
  8
CopperBottom
  10
12.924715
  20
-4.176537
  0
VERTEX
  8
CopperBottom
  10
12.923861
  20
-4.183024
  0
VERTEX
  8
CopperBottom
  10
12.922444
  20
-4.189411
  0
VERTEX
  8
CopperBottom
  10
12.920477
  20
-4.195652
  0
VERTEX
  8
CopperBottom
  10
12.917973
  20
-4.201696
  0
VERTEX
  8
CopperBottom
  10
12.914952
  20
-4.2075
  0
VERTEX
  8
CopperBottom
  10
12.911436
  20
-4.213018
  0
VERTEX
  8
CopperBottom
  10
12.907453
  20
-4.218209
  0
VERTEX
  8
CopperBottom
  10
12.903033
  20
-4.223033
  0
VERTEX
  8
CopperBottom
  10
12.673033
  20
-4.453033
  0
VERTEX
  8
CopperBottom
  10
12.668209
  20
-4.457453
  0
VERTEX
  8
CopperBottom
  10
12.663018
  20
-4.461436
  0
VERTEX
  8
CopperBottom
  10
12.6575
  20
-4.464952
  0
VERTEX
  8
CopperBottom
  10
12.651696
  20
-4.467973
  0
VERTEX
  8
CopperBottom
  10
12.645652
  20
-4.470477
  0
VERTEX
  8
CopperBottom
  10
12.639411
  20
-4.472444
  0
VERTEX
  8
CopperBottom
  10
12.633024
  20
-4.473861
  0
VERTEX
  8
CopperBottom
  10
12.626537
  20
-4.474715
  0
VERTEX
  8
CopperBottom
  10
12.62
  20
-4.475
  0
VERTEX
  8
CopperBottom
  10
12.28
  20
-4.475
  0
VERTEX
  8
CopperBottom
  10
5.28
  20
-4.475
  0
SEQEND
  0
CIRCLE
  8
CopperBottom
  10
4.32
  20
-4.54
  40
0.225
  0
CIRCLE
  8
CopperBottom
  10
7.2
  20
1.9
  40
0.225
  0
POLYLINE
  8
CopperMid
  70
1
  66
1
  0
VERTEX
  8
CopperMid
  10
13.006537
  20
4.524715
  0
VERTEX
  8
CopperMid
  10
13.013024
  20
4.523861
  0
VERTEX
  8
CopperMid
  10
13.019411
  20
4.522444
  0
VERTEX
  8
CopperMid
  10
13.025652
  20
4.520477
  0
VERTEX
  8
CopperMid
  10
13.031696
  20
4.517973
  0
VERTEX
  8
CopperMid
  10
13.0375
  20
4.514952
  0
VERTEX
  8
CopperMid
  10
13.043018
  20
4.511436
  0
VERTEX
  8
CopperMid
  10
13.048209
  20
4.507453
  0
VERTEX
  8
CopperMid
  10
13.053033
  20
4.503033
  0
VERTEX
  8
CopperMid
  10
13.253033
  20
4.303033
  0
VERTEX
  8
CopperMid
  10
13.257453
  20
4.298209
  0
VERTEX
  8
CopperMid
  10
13.261436
  20
4.293018
  0
VERTEX
  8
CopperMid
  10
13.264952
  20
4.2875
  0
VERTEX
  8
CopperMid
  10
13.267973
  20
4.281696
  0
VERTEX
  8
CopperMid
  10
13.270477
  20
4.275652
  0
VERTEX
  8
CopperMid
  10
13.272444
  20
4.269411
  0
VERTEX
  8
CopperMid
  10
13.273861
  20
4.263024
  0
VERTEX
  8
CopperMid
  10
13.274715
  20
4.256537
  0
VERTEX
  8
CopperMid
  10
13.275
  20
4.25
  0
VERTEX
  8
CopperMid
  10
13.275
  20
-4.55
  0
VERTEX
  8
CopperMid
  10
13.274715
  20
-4.556537
  0
VERTEX
  8
CopperMid
  10
13.273861
  20
-4.563024
  0
VERTEX
  8
CopperMid
  10
13.272444
  20
-4.569411
  0
VERTEX
  8
CopperMid
  10
13.270477
  20
-4.575652
  0
VERTEX
  8
CopperMid
  10
13.267973
  20
-4.581696
  0
VERTEX
  8
CopperMid
  10
13.264952
  20
-4.5875
  0
VERTEX
  8
CopperMid
  10
13.261436
  20
-4.593018
  0
VERTEX
  8
CopperMid
  10
13.257453
  20
-4.598209
  0
VERTEX
  8
CopperMid
  10
13.253033
  20
-4.603033
  0
VERTEX
  8
CopperMid
  10
13.103033
  20
-4.753033
  0
VERTEX
  8
CopperMid
  10
13.098209
  20
-4.757453
  0
VERTEX
  8
CopperMid
  10
13.093018
  20
-4.761436
  0
VERTEX
  8
CopperMid
  10
13.0875
  20
-4.764952
  0
VERTEX
  8
CopperMid
  10
13.081696
  20
-4.767973
  0
VERTEX
  8
CopperMid
  10
13.075652
  20
-4.770477
  0
VERTEX
  8
CopperMid
  10
13.069411
  20
-4.772444
  0
VERTEX
  8
CopperMid
  10
13.063024
  20
-4.773861
  0
VERTEX
  8
CopperMid
  10
13.056537
  20
-4.774715
  0
VERTEX
  8
CopperMid
  10
13.05
  20
-4.775
  0
VERTEX
  8
CopperMid
  10
4.75
  20
-4.775
  0
VERTEX
  8
CopperMid
  10
4.7469
  20
-4.774936
  0
VERTEX
  8
CopperMid
  10
4.743806
  20
-4.774744
  0
VERTEX
  8
CopperMid
  10
4.740722
  20
-4.774424
  0
VERTEX
  8
CopperMid
  10
4.737654
  20
-4.773977
  0
VERTEX
  8
CopperMid
  10
4.734607
  20
-4.773403
  0
VERTEX
  8
CopperMid
  10
4.731587
  20
-4.772705
  0
VERTEX
  8
CopperMid
  10
4.728598
  20
-4.771881
  0
VERTEX
  8
CopperMid
  10
4.725645
  20
-4.770935
  0
VERTEX
  8
CopperMid
  10
4.722734
  20
-4.769868
  0
VERTEX
  8
CopperMid
  10
4.494923
  20
-4.680966
  0
VERTEX
  8
CopperMid
  10
4.49236
  20
-4.684627
  0
VERTEX
  8
CopperMid
  10
4.464627
  20
-4.71236
  0
VERTEX
  8
CopperMid
  10
4.4325
  20
-4.734856
  0
VERTEX
  8
CopperMid
  10
4.396955
  20
-4.751431
  0
VERTEX
  8
CopperMid
  10
4.359071
  20
-4.761582
  0
VERTEX
  8
CopperMid
  10
4.32
  20
-4.765
  0
VERTEX
  8
CopperMid
  10
4.280929
  20
-4.761582
  0
VERTEX
  8
CopperMid
  10
4.243045
  20
-4.751431
  0
VERTEX
  8
CopperMid
  10
4.2075
  20
-4.734856
  0
VERTEX
  8
CopperMid
  10
4.175373
  20
-4.71236
  0
VERTEX
  8
CopperMid
  10
4.14764
  20
-4.684627
  0
VERTEX
  8
CopperMid
  10
4.125144
  20
-4.6525
  0
VERTEX
  8
CopperMid
  10
4.108569
  20
-4.616955
  0
VERTEX
  8
CopperMid
  10
4.098418
  20
-4.579071
  0
VERTEX
  8
CopperMid
  10
4.095
  20
-4.54
  0
VERTEX
  8
CopperMid
  10
4.098418
  20
-4.500929
  0
VERTEX
  8
CopperMid
  10
4.108569
  20
-4.463045
  0
VERTEX
  8
CopperMid
  10
4.125144
  20
-4.4275
  0
VERTEX
  8
CopperMid
  10
4.14764
  20
-4.395373
  0
VERTEX
  8
CopperMid
  10
4.175373
  20
-4.36764
  0
VERTEX
  8
CopperMid
  10
4.2075
  20
-4.345144
  0
VERTEX
  8
CopperMid
  10
4.243045
  20
-4.328569
  0
VERTEX
  8
CopperMid
  10
4.280929
  20
-4.318418
  0
VERTEX
  8
CopperMid
  10
4.32
  20
-4.315
  0
VERTEX
  8
CopperMid
  10
4.359071
  20
-4.318418
  0
VERTEX
  8
CopperMid
  10
4.396955
  20
-4.328569
  0
VERTEX
  8
CopperMid
  10
4.4325
  20
-4.345144
  0
VERTEX
  8
CopperMid
  10
4.464627
  20
-4.36764
  0
VERTEX
  8
CopperMid
  10
4.49236
  20
-4.395373
  0
VERTEX
  8
CopperMid
  10
4.514856
  20
-4.4275
  0
VERTEX
  8
CopperMid
  10
4.531431
  20
-4.463045
  0
VERTEX
  8
CopperMid
  10
4.541582
  20
-4.500929
  0
VERTEX
  8
CopperMid
  10
4.544954
  20
-4.539474
  0
VERTEX
  8
CopperMid
  10
4.764116
  20
-4.625
  0
VERTEX
  8
CopperMid
  10
13.018934
  20
-4.625
  0
VERTEX
  8
CopperMid
  10
13.125
  20
-4.518934
  0
VERTEX
  8
CopperMid
  10
13.125
  20
4.218934
  0
VERTEX
  8
CopperMid
  10
12.968934
  20
4.375
  0
VERTEX
  8
CopperMid
  10
4.631066
  20
4.375
  0
VERTEX
  8
CopperMid
  10
4.325
  20
4.068934
  0
VERTEX
  8
CopperMid
  10
4.325
  20
-3.778934
  0
VERTEX
  8
CopperMid
  10
4.871066
  20
-4.325
  0
VERTEX
  8
CopperMid
  10
12.718934
  20
-4.325
  0
VERTEX
  8
CopperMid
  10
12.825
  20
-4.218934
  0
VERTEX
  8
CopperMid
  10
12.825
  20
3.968934
  0
VERTEX
  8
CopperMid
  10
12.718934
  20
4.075
  0
VERTEX
  8
CopperMid
  10
4.881066
  20
4.075
  0
VERTEX
  8
CopperMid
  10
4.635
  20
3.828934
  0
VERTEX
  8
CopperMid
  10
4.635
  20
-3.648934
  0
VERTEX
  8
CopperMid
  10
5.011066
  20
-4.025
  0
VERTEX
  8
CopperMid
  10
12.418934
  20
-4.025
  0
VERTEX
  8
CopperMid
  10
12.525
  20
-3.918934
  0
VERTEX
  8
CopperMid
  10
12.525
  20
3.718934
  0
VERTEX
  8
CopperMid
  10
12.468934
  20
3.775
  0
VERTEX
  8
CopperMid
  10
4.981066
  20
3.775
  0
VERTEX
  8
CopperMid
  10
4.925
  20
3.718934
  0
VERTEX
  8
CopperMid
  10
4.925
  20
-3.418934
  0
VERTEX
  8
CopperMid
  10
5.231066
  20
-3.725
  0
VERTEX
  8
CopperMid
  10
12.118934
  20
-3.725
  0
VERTEX
  8
CopperMid
  10
12.225
  20
-3.618934
  0
VERTEX
  8
CopperMid
  10
12.225
  20
3.418934
  0
VERTEX
  8
CopperMid
  10
12.168934
  20
3.475
  0
VERTEX
  8
CopperMid
  10
5.281066
  20
3.475
  0
VERTEX
  8
CopperMid
  10
5.225
  20
3.418934
  0
VERTEX
  8
CopperMid
  10
5.225
  20
-3.118934
  0
VERTEX
  8
CopperMid
  10
5.531066
  20
-3.425
  0
VERTEX
  8
CopperMid
  10
11.868934
  20
-3.425
  0
VERTEX
  8
CopperMid
  10
11.925
  20
-3.368934
  0
VERTEX
  8
CopperMid
  10
11.925
  20
3.118934
  0
VERTEX
  8
CopperMid
  10
11.868934
  20
3.175
  0
VERTEX
  8
CopperMid
  10
5.581066
  20
3.175
  0
VERTEX
  8
CopperMid
  10
5.525
  20
3.118934
  0
VERTEX
  8
CopperMid
  10
5.525
  20
-2.868934
  0
VERTEX
  8
CopperMid
  10
5.781066
  20
-3.125
  0
VERTEX
  8
CopperMid
  10
11.568934
  20
-3.125
  0
VERTEX
  8
CopperMid
  10
11.625
  20
-3.068934
  0
VERTEX
  8
CopperMid
  10
11.625
  20
2.818934
  0
VERTEX
  8
CopperMid
  10
11.568934
  20
2.875
  0
VERTEX
  8
CopperMid
  10
5.881066
  20
2.875
  0
VERTEX
  8
CopperMid
  10
5.825
  20
2.818934
  0
VERTEX
  8
CopperMid
  10
5.825
  20
-2.568934
  0
VERTEX
  8
CopperMid
  10
6.081066
  20
-2.825
  0
VERTEX
  8
CopperMid
  10
11.218934
  20
-2.825
  0
VERTEX
  8
CopperMid
  10
11.325
  20
-2.718934
  0
VERTEX
  8
CopperMid
  10
11.325
  20
2.518934
  0
VERTEX
  8
CopperMid
  10
11.268934
  20
2.575
  0
VERTEX
  8
CopperMid
  10
6.181066
  20
2.575
  0
VERTEX
  8
CopperMid
  10
6.125
  20
2.518934
  0
VERTEX
  8
CopperMid
  10
6.125
  20
-2.318934
  0
VERTEX
  8
CopperMid
  10
6.331066
  20
-2.525
  0
VERTEX
  8
CopperMid
  10
10.918934
  20
-2.525
  0
VERTEX
  8
CopperMid
  10
11.025
  20
-2.418934
  0
VERTEX
  8
CopperMid
  10
11.025
  20
2.218934
  0
VERTEX
  8
CopperMid
  10
10.968934
  20
2.275
  0
VERTEX
  8
CopperMid
  10
7.63368
  20
2.275
  0
VERTEX
  8
CopperMid
  10
7.396745
  20
2.008448
  0
VERTEX
  8
CopperMid
  10
7.411431
  20
1.976955
  0
VERTEX
  8
CopperMid
  10
7.421582
  20
1.939071
  0
VERTEX
  8
CopperMid
  10
7.425
  20
1.9
  0
VERTEX
  8
CopperMid
  10
7.421582
  20
1.860929
  0
VERTEX
  8
CopperMid
  10
7.411431
  20
1.823045
  0
VERTEX
  8
CopperMid
  10
7.394856
  20
1.7875
  0
VERTEX
  8
CopperMid
  10
7.37236
  20
1.755373
  0
VERTEX
  8
CopperMid
  10
7.344627
  20
1.72764
  0
VERTEX
  8
CopperMid
  10
7.3125
  20
1.705144
  0
VERTEX
  8
CopperMid
  10
7.276955
  20
1.688569
  0
VERTEX
  8
CopperMid
  10
7.239071
  20
1.678418
  0
VERTEX
  8
CopperMid
  10
7.2
  20
1.675
  0
VERTEX
  8
CopperMid
  10
7.160929
  20
1.678418
  0
VERTEX
  8
CopperMid
  10
7.123045
  20
1.688569
  0
VERTEX
  8
CopperMid
  10
7.0875
  20
1.705144
  0
VERTEX
  8
CopperMid
  10
7.055373
  20
1.72764
  0
VERTEX
  8
CopperMid
  10
7.02764
  20
1.755373
  0
VERTEX
  8
CopperMid
  10
7.005144
  20
1.7875
  0
VERTEX
  8
CopperMid
  10
6.988569
  20
1.823045
  0
VERTEX
  8
CopperMid
  10
6.978418
  20
1.860929
  0
VERTEX
  8
CopperMid
  10
6.975
  20
1.9
  0
VERTEX
  8
CopperMid
  10
6.978418
  20
1.939071
  0
VERTEX
  8
CopperMid
  10
6.988569
  20
1.976955
  0
VERTEX
  8
CopperMid
  10
7.005144
  20
2.0125
  0
VERTEX
  8
CopperMid
  10
7.02764
  20
2.044627
  0
VERTEX
  8
CopperMid
  10
7.055373
  20
2.07236
  0
VERTEX
  8
CopperMid
  10
7.0875
  20
2.094856
  0
VERTEX
  8
CopperMid
  10
7.123045
  20
2.111431
  0
VERTEX
  8
CopperMid
  10
7.160929
  20
2.121582
  0
VERTEX
  8
CopperMid
  10
7.2
  20
2.125
  0
VERTEX
  8
CopperMid
  10
7.239071
  20
2.121582
  0
VERTEX
  8
CopperMid
  10
7.276955
  20
2.111431
  0
VERTEX
  8
CopperMid
  10
7.284475
  20
2.107924
  0
VERTEX
  8
CopperMid
  10
7.543944
  20
2.399827
  0
VERTEX
  8
CopperMid
  10
7.548857
  20
2.404858
  0
VERTEX
  8
CopperMid
  10
7.55422
  20
2.409407
  0
VERTEX
  8
CopperMid
  10
7.559985
  20
2.413434
  0
VERTEX
  8
CopperMid
  10
7.566102
  20
2.416902
  0
VERTEX
  8
CopperMid
  10
7.572517
  20
2.419783
  0
VERTEX
  8
CopperMid
  10
7.579174
  20
2.42205
  0
VERTEX
  8
CopperMid
  10
7.586013
  20
2.423684
  0
VERTEX
  8
CopperMid
  10
7.592976
  20
2.42467
  0
VERTEX
  8
CopperMid
  10
7.6
  20
2.425
  0
VERTEX
  8
CopperMid
  10
11
  20
2.425
  0
VERTEX
  8
CopperMid
  10
11.006537
  20
2.424715
  0
VERTEX
  8
CopperMid
  10
11.013024
  20
2.423861
  0
VERTEX
  8
CopperMid
  10
11.019411
  20
2.422444
  0
VERTEX
  8
CopperMid
  10
11.025652
  20
2.420477
  0
VERTEX
  8
CopperMid
  10
11.031696
  20
2.417973
  0
VERTEX
  8
CopperMid
  10
11.0375
  20
2.414952
  0
VERTEX
  8
CopperMid
  10
11.043018
  20
2.411436
  0
VERTEX
  8
CopperMid
  10
11.048209
  20
2.407453
  0
VERTEX
  8
CopperMid
  10
11.053033
  20
2.403033
  0
VERTEX
  8
CopperMid
  10
11.153033
  20
2.303033
  0
VERTEX
  8
CopperMid
  10
11.157453
  20
2.298209
  0
VERTEX
  8
CopperMid
  10
11.161436
  20
2.293018
  0
VERTEX
  8
CopperMid
  10
11.164952
  20
2.2875
  0
VERTEX
  8
CopperMid
  10
11.167973
  20
2.281696
  0
VERTEX
  8
CopperMid
  10
11.170477
  20
2.275652
  0
VERTEX
  8
CopperMid
  10
11.172444
  20
2.269411
  0
VERTEX
  8
CopperMid
  10
11.173861
  20
2.263024
  0
VERTEX
  8
CopperMid
  10
11.174715
  20
2.256537
  0
VERTEX
  8
CopperMid
  10
11.175
  20
2.25
  0
VERTEX
  8
CopperMid
  10
11.175
  20
-2.45
  0
VERTEX
  8
CopperMid
  10
11.174715
  20
-2.456537
  0
VERTEX
  8
CopperMid
  10
11.173861
  20
-2.463024
  0
VERTEX
  8
CopperMid
  10
11.172444
  20
-2.469411
  0
VERTEX
  8
CopperMid
  10
11.170477
  20
-2.475652
  0
VERTEX
  8
CopperMid
  10
11.167973
  20
-2.481696
  0
VERTEX
  8
CopperMid
  10
11.164952
  20
-2.4875
  0
VERTEX
  8
CopperMid
  10
11.161436
  20
-2.493018
  0
VERTEX
  8
CopperMid
  10
11.157453
  20
-2.498209
  0
VERTEX
  8
CopperMid
  10
11.153033
  20
-2.503033
  0
VERTEX
  8
CopperMid
  10
11.003033
  20
-2.653033
  0
VERTEX
  8
CopperMid
  10
10.998209
  20
-2.657453
  0
VERTEX
  8
CopperMid
  10
10.993018
  20
-2.661436
  0
VERTEX
  8
CopperMid
  10
10.9875
  20
-2.664952
  0
VERTEX
  8
CopperMid
  10
10.981696
  20
-2.667973
  0
VERTEX
  8
CopperMid
  10
10.975652
  20
-2.670477
  0
VERTEX
  8
CopperMid
  10
10.969411
  20
-2.672444
  0
VERTEX
  8
CopperMid
  10
10.963024
  20
-2.673861
  0
VERTEX
  8
CopperMid
  10
10.956537
  20
-2.674715
  0
VERTEX
  8
CopperMid
  10
10.95
  20
-2.675
  0
VERTEX
  8
CopperMid
  10
6.3
  20
-2.675
  0
VERTEX
  8
CopperMid
  10
6.293463
  20
-2.674715
  0
VERTEX
  8
CopperMid
  10
6.286976
  20
-2.673861
  0
VERTEX
  8
CopperMid
  10
6.280589
  20
-2.672444
  0
VERTEX
  8
CopperMid
  10
6.274348
  20
-2.670477
  0
VERTEX
  8
CopperMid
  10
6.268304
  20
-2.667973
  0
VERTEX
  8
CopperMid
  10
6.2625
  20
-2.664952
  0
VERTEX
  8
CopperMid
  10
6.256982
  20
-2.661436
  0
VERTEX
  8
CopperMid
  10
6.251791
  20
-2.657453
  0
VERTEX
  8
CopperMid
  10
6.246967
  20
-2.653033
  0
VERTEX
  8
CopperMid
  10
5.996967
  20
-2.403033
  0
VERTEX
  8
CopperMid
  10
5.992547
  20
-2.398209
  0
VERTEX
  8
CopperMid
  10
5.988564
  20
-2.393018
  0
VERTEX
  8
CopperMid
  10
5.985048
  20
-2.3875
  0
VERTEX
  8
CopperMid
  10
5.982027
  20
-2.381696
  0
VERTEX
  8
CopperMid
  10
5.979523
  20
-2.375652
  0
VERTEX
  8
CopperMid
  10
5.977556
  20
-2.369411
  0
VERTEX
  8
CopperMid
  10
5.976139
  20
-2.363024
  0
VERTEX
  8
CopperMid
  10
5.975285
  20
-2.356537
  0
VERTEX
  8
CopperMid
  10
5.975
  20
-2.35
  0
VERTEX
  8
CopperMid
  10
5.975
  20
2.55
  0
VERTEX
  8
CopperMid
  10
5.975285
  20
2.556537
  0
VERTEX
  8
CopperMid
  10
5.976139
  20
2.563024
  0
VERTEX
  8
CopperMid
  10
5.977556
  20
2.569411
  0
VERTEX
  8
CopperMid
  10
5.979523
  20
2.575652
  0
VERTEX
  8
CopperMid
  10
5.982027
  20
2.581696
  0
VERTEX
  8
CopperMid
  10
5.985048
  20
2.5875
  0
VERTEX
  8
CopperMid
  10
5.988564
  20
2.593018
  0
VERTEX
  8
CopperMid
  10
5.992547
  20
2.598209
  0
VERTEX
  8
CopperMid
  10
5.996967
  20
2.603033
  0
VERTEX
  8
CopperMid
  10
6.096967
  20
2.703033
  0
VERTEX
  8
CopperMid
  10
6.101791
  20
2.707453
  0
VERTEX
  8
CopperMid
  10
6.106982
  20
2.711436
  0
VERTEX
  8
CopperMid
  10
6.1125
  20
2.714952
  0
VERTEX
  8
CopperMid
  10
6.118304
  20
2.717973
  0
VERTEX
  8
CopperMid
  10
6.124348
  20
2.720477
  0
VERTEX
  8
CopperMid
  10
6.130589
  20
2.722444
  0
VERTEX
  8
CopperMid
  10
6.136976
  20
2.723861
  0
VERTEX
  8
CopperMid
  10
6.143463
  20
2.724715
  0
VERTEX
  8
CopperMid
  10
6.15
  20
2.725
  0
VERTEX
  8
CopperMid
  10
11.3
  20
2.725
  0
VERTEX
  8
CopperMid
  10
11.306537
  20
2.724715
  0
VERTEX
  8
CopperMid
  10
11.313024
  20
2.723861
  0
VERTEX
  8
CopperMid
  10
11.319411
  20
2.722444
  0
VERTEX
  8
CopperMid
  10
11.325652
  20
2.720477
  0
VERTEX
  8
CopperMid
  10
11.331696
  20
2.717973
  0
VERTEX
  8
CopperMid
  10
11.3375
  20
2.714952
  0
VERTEX
  8
CopperMid
  10
11.343018
  20
2.711436
  0
VERTEX
  8
CopperMid
  10
11.348209
  20
2.707453
  0
VERTEX
  8
CopperMid
  10
11.353033
  20
2.703033
  0
VERTEX
  8
CopperMid
  10
11.453033
  20
2.603033
  0
VERTEX
  8
CopperMid
  10
11.457453
  20
2.598209
  0
VERTEX
  8
CopperMid
  10
11.461436
  20
2.593018
  0
VERTEX
  8
CopperMid
  10
11.464952
  20
2.5875
  0
VERTEX
  8
CopperMid
  10
11.467973
  20
2.581696
  0
VERTEX
  8
CopperMid
  10
11.470477
  20
2.575652
  0
VERTEX
  8
CopperMid
  10
11.472444
  20
2.569411
  0
VERTEX
  8
CopperMid
  10
11.473861
  20
2.563024
  0
VERTEX
  8
CopperMid
  10
11.474715
  20
2.556537
  0
VERTEX
  8
CopperMid
  10
11.475
  20
2.55
  0
VERTEX
  8
CopperMid
  10
11.475
  20
-2.75
  0
VERTEX
  8
CopperMid
  10
11.474715
  20
-2.756537
  0
VERTEX
  8
CopperMid
  10
11.473861
  20
-2.763024
  0
VERTEX
  8
CopperMid
  10
11.472444
  20
-2.769411
  0
VERTEX
  8
CopperMid
  10
11.470477
  20
-2.775652
  0
VERTEX
  8
CopperMid
  10
11.467973
  20
-2.781696
  0
VERTEX
  8
CopperMid
  10
11.464952
  20
-2.7875
  0
VERTEX
  8
CopperMid
  10
11.461436
  20
-2.793018
  0
VERTEX
  8
CopperMid
  10
11.457453
  20
-2.798209
  0
VERTEX
  8
CopperMid
  10
11.453033
  20
-2.803033
  0
VERTEX
  8
CopperMid
  10
11.303033
  20
-2.953033
  0
VERTEX
  8
CopperMid
  10
11.298209
  20
-2.957453
  0
VERTEX
  8
CopperMid
  10
11.293018
  20
-2.961436
  0
VERTEX
  8
CopperMid
  10
11.2875
  20
-2.964952
  0
VERTEX
  8
CopperMid
  10
11.281696
  20
-2.967973
  0
VERTEX
  8
CopperMid
  10
11.275652
  20
-2.970477
  0
VERTEX
  8
CopperMid
  10
11.269411
  20
-2.972444
  0
VERTEX
  8
CopperMid
  10
11.263024
  20
-2.973861
  0
VERTEX
  8
CopperMid
  10
11.256537
  20
-2.974715
  0
VERTEX
  8
CopperMid
  10
11.25
  20
-2.975
  0
VERTEX
  8
CopperMid
  10
6.05
  20
-2.975
  0
VERTEX
  8
CopperMid
  10
6.043463
  20
-2.974715
  0
VERTEX
  8
CopperMid
  10
6.036976
  20
-2.973861
  0
VERTEX
  8
CopperMid
  10
6.030589
  20
-2.972444
  0
VERTEX
  8
CopperMid
  10
6.024348
  20
-2.970477
  0
VERTEX
  8
CopperMid
  10
6.018304
  20
-2.967973
  0
VERTEX
  8
CopperMid
  10
6.0125
  20
-2.964952
  0
VERTEX
  8
CopperMid
  10
6.006982
  20
-2.961436
  0
VERTEX
  8
CopperMid
  10
6.001791
  20
-2.957453
  0
VERTEX
  8
CopperMid
  10
5.996967
  20
-2.953033
  0
VERTEX
  8
CopperMid
  10
5.696967
  20
-2.653033
  0
VERTEX
  8
CopperMid
  10
5.692547
  20
-2.648209
  0
VERTEX
  8
CopperMid
  10
5.688564
  20
-2.643018
  0
VERTEX
  8
CopperMid
  10
5.685048
  20
-2.6375
  0
VERTEX
  8
CopperMid
  10
5.682027
  20
-2.631696
  0
VERTEX
  8
CopperMid
  10
5.679523
  20
-2.625652
  0
VERTEX
  8
CopperMid
  10
5.677556
  20
-2.619411
  0
VERTEX
  8
CopperMid
  10
5.676139
  20
-2.613024
  0
VERTEX
  8
CopperMid
  10
5.675285
  20
-2.606537
  0
VERTEX
  8
CopperMid
  10
5.675
  20
-2.6
  0
VERTEX
  8
CopperMid
  10
5.675
  20
2.85
  0
VERTEX
  8
CopperMid
  10
5.675285
  20
2.856537
  0
VERTEX
  8
CopperMid
  10
5.676139
  20
2.863024
  0
VERTEX
  8
CopperMid
  10
5.677556
  20
2.869411
  0
VERTEX
  8
CopperMid
  10
5.679523
  20
2.875652
  0
VERTEX
  8
CopperMid
  10
5.682027
  20
2.881696
  0
VERTEX
  8
CopperMid
  10
5.685048
  20
2.8875
  0
VERTEX
  8
CopperMid
  10
5.688564
  20
2.893018
  0
VERTEX
  8
CopperMid
  10
5.692547
  20
2.898209
  0
VERTEX
  8
CopperMid
  10
5.696967
  20
2.903033
  0
VERTEX
  8
CopperMid
  10
5.796967
  20
3.003033
  0
VERTEX
  8
CopperMid
  10
5.801791
  20
3.007453
  0
VERTEX
  8
CopperMid
  10
5.806982
  20
3.011436
  0
VERTEX
  8
CopperMid
  10
5.8125
  20
3.014952
  0
VERTEX
  8
CopperMid
  10
5.818304
  20
3.017973
  0
VERTEX
  8
CopperMid
  10
5.824348
  20
3.020477
  0
VERTEX
  8
CopperMid
  10
5.830589
  20
3.022444
  0
VERTEX
  8
CopperMid
  10
5.836976
  20
3.023861
  0
VERTEX
  8
CopperMid
  10
5.843463
  20
3.024715
  0
VERTEX
  8
CopperMid
  10
5.85
  20
3.025
  0
VERTEX
  8
CopperMid
  10
11.6
  20
3.025
  0
VERTEX
  8
CopperMid
  10
11.606537
  20
3.024715
  0
VERTEX
  8
CopperMid
  10
11.613024
  20
3.023861
  0
VERTEX
  8
CopperMid
  10
11.619411
  20
3.022444
  0
VERTEX
  8
CopperMid
  10
11.625652
  20
3.020477
  0
VERTEX
  8
CopperMid
  10
11.631696
  20
3.017973
  0
VERTEX
  8
CopperMid
  10
11.6375
  20
3.014952
  0
VERTEX
  8
CopperMid
  10
11.643018
  20
3.011436
  0
VERTEX
  8
CopperMid
  10
11.648209
  20
3.007453
  0
VERTEX
  8
CopperMid
  10
11.653033
  20
3.003033
  0
VERTEX
  8
CopperMid
  10
11.753033
  20
2.903033
  0
VERTEX
  8
CopperMid
  10
11.757453
  20
2.898209
  0
VERTEX
  8
CopperMid
  10
11.761436
  20
2.893018
  0
VERTEX
  8
CopperMid
  10
11.764952
  20
2.8875
  0
VERTEX
  8
CopperMid
  10
11.767973
  20
2.881696
  0
VERTEX
  8
CopperMid
  10
11.770477
  20
2.875652
  0
VERTEX
  8
CopperMid
  10
11.772444
  20
2.869411
  0
VERTEX
  8
CopperMid
  10
11.773861
  20
2.863024
  0
VERTEX
  8
CopperMid
  10
11.774715
  20
2.856537
  0
VERTEX
  8
CopperMid
  10
11.775
  20
2.85
  0
VERTEX
  8
CopperMid
  10
11.775
  20
-3.1
  0
VERTEX
  8
CopperMid
  10
11.774715
  20
-3.106537
  0
VERTEX
  8
CopperMid
  10
11.773861
  20
-3.113024
  0
VERTEX
  8
CopperMid
  10
11.772444
  20
-3.119411
  0
VERTEX
  8
CopperMid
  10
11.770477
  20
-3.125652
  0
VERTEX
  8
CopperMid
  10
11.767973
  20
-3.131696
  0
VERTEX
  8
CopperMid
  10
11.764952
  20
-3.1375
  0
VERTEX
  8
CopperMid
  10
11.761436
  20
-3.143018
  0
VERTEX
  8
CopperMid
  10
11.757453
  20
-3.148209
  0
VERTEX
  8
CopperMid
  10
11.753033
  20
-3.153033
  0
VERTEX
  8
CopperMid
  10
11.653033
  20
-3.253033
  0
VERTEX
  8
CopperMid
  10
11.648209
  20
-3.257453
  0
VERTEX
  8
CopperMid
  10
11.643018
  20
-3.261436
  0
VERTEX
  8
CopperMid
  10
11.6375
  20
-3.264952
  0
VERTEX
  8
CopperMid
  10
11.631696
  20
-3.267973
  0
VERTEX
  8
CopperMid
  10
11.625652
  20
-3.270477
  0
VERTEX
  8
CopperMid
  10
11.619411
  20
-3.272444
  0
VERTEX
  8
CopperMid
  10
11.613024
  20
-3.273861
  0
VERTEX
  8
CopperMid
  10
11.606537
  20
-3.274715
  0
VERTEX
  8
CopperMid
  10
11.6
  20
-3.275
  0
VERTEX
  8
CopperMid
  10
5.75
  20
-3.275
  0
VERTEX
  8
CopperMid
  10
5.743463
  20
-3.274715
  0
VERTEX
  8
CopperMid
  10
5.736976
  20
-3.273861
  0
VERTEX
  8
CopperMid
  10
5.730589
  20
-3.272444
  0
VERTEX
  8
CopperMid
  10
5.724348
  20
-3.270477
  0
VERTEX
  8
CopperMid
  10
5.718304
  20
-3.267973
  0
VERTEX
  8
CopperMid
  10
5.7125
  20
-3.264952
  0
VERTEX
  8
CopperMid
  10
5.706982
  20
-3.261436
  0
VERTEX
  8
CopperMid
  10
5.701791
  20
-3.257453
  0
VERTEX
  8
CopperMid
  10
5.696967
  20
-3.253033
  0
VERTEX
  8
CopperMid
  10
5.396967
  20
-2.953033
  0
VERTEX
  8
CopperMid
  10
5.392547
  20
-2.948209
  0
VERTEX
  8
CopperMid
  10
5.388564
  20
-2.943018
  0
VERTEX
  8
CopperMid
  10
5.385048
  20
-2.9375
  0
VERTEX
  8
CopperMid
  10
5.382027
  20
-2.931696
  0
VERTEX
  8
CopperMid
  10
5.379523
  20
-2.925652
  0
VERTEX
  8
CopperMid
  10
5.377556
  20
-2.919411
  0
VERTEX
  8
CopperMid
  10
5.376139
  20
-2.913024
  0
VERTEX
  8
CopperMid
  10
5.375285
  20
-2.906537
  0
VERTEX
  8
CopperMid
  10
5.375
  20
-2.9
  0
VERTEX
  8
CopperMid
  10
5.375
  20
3.15
  0
VERTEX
  8
CopperMid
  10
5.375285
  20
3.156537
  0
VERTEX
  8
CopperMid
  10
5.376139
  20
3.163024
  0
VERTEX
  8
CopperMid
  10
5.377556
  20
3.169411
  0
VERTEX
  8
CopperMid
  10
5.379523
  20
3.175652
  0
VERTEX
  8
CopperMid
  10
5.382027
  20
3.181696
  0
VERTEX
  8
CopperMid
  10
5.385048
  20
3.1875
  0
VERTEX
  8
CopperMid
  10
5.388564
  20
3.193018
  0
VERTEX
  8
CopperMid
  10
5.392547
  20
3.198209
  0
VERTEX
  8
CopperMid
  10
5.396967
  20
3.203033
  0
VERTEX
  8
CopperMid
  10
5.496967
  20
3.303033
  0
VERTEX
  8
CopperMid
  10
5.501791
  20
3.307453
  0
VERTEX
  8
CopperMid
  10
5.506982
  20
3.311436
  0
VERTEX
  8
CopperMid
  10
5.5125
  20
3.314952
  0
VERTEX
  8
CopperMid
  10
5.518304
  20
3.317973
  0
VERTEX
  8
CopperMid
  10
5.524348
  20
3.320477
  0
VERTEX
  8
CopperMid
  10
5.530589
  20
3.322444
  0
VERTEX
  8
CopperMid
  10
5.536976
  20
3.323861
  0
VERTEX
  8
CopperMid
  10
5.543463
  20
3.324715
  0
VERTEX
  8
CopperMid
  10
5.55
  20
3.325
  0
VERTEX
  8
CopperMid
  10
11.9
  20
3.325
  0
VERTEX
  8
CopperMid
  10
11.906537
  20
3.324715
  0
VERTEX
  8
CopperMid
  10
11.913024
  20
3.323861
  0
VERTEX
  8
CopperMid
  10
11.919411
  20
3.322444
  0
VERTEX
  8
CopperMid
  10
11.925652
  20
3.320477
  0
VERTEX
  8
CopperMid
  10
11.931696
  20
3.317973
  0
VERTEX
  8
CopperMid
  10
11.9375
  20
3.314952
  0
VERTEX
  8
CopperMid
  10
11.943018
  20
3.311436
  0
VERTEX
  8
CopperMid
  10
11.948209
  20
3.307453
  0
VERTEX
  8
CopperMid
  10
11.953033
  20
3.303033
  0
VERTEX
  8
CopperMid
  10
12.053033
  20
3.203033
  0
VERTEX
  8
CopperMid
  10
12.057453
  20
3.198209
  0
VERTEX
  8
CopperMid
  10
12.061436
  20
3.193018
  0
VERTEX
  8
CopperMid
  10
12.064952
  20
3.1875
  0
VERTEX
  8
CopperMid
  10
12.067973
  20
3.181696
  0
VERTEX
  8
CopperMid
  10
12.070477
  20
3.175652
  0
VERTEX
  8
CopperMid
  10
12.072444
  20
3.169411
  0
VERTEX
  8
CopperMid
  10
12.073861
  20
3.163024
  0
VERTEX
  8
CopperMid
  10
12.074715
  20
3.156537
  0
VERTEX
  8
CopperMid
  10
12.075
  20
3.15
  0
VERTEX
  8
CopperMid
  10
12.075
  20
-3.4
  0
VERTEX
  8
CopperMid
  10
12.074715
  20
-3.406537
  0
VERTEX
  8
CopperMid
  10
12.073861
  20
-3.413024
  0
VERTEX
  8
CopperMid
  10
12.072444
  20
-3.419411
  0
VERTEX
  8
CopperMid
  10
12.070477
  20
-3.425652
  0
VERTEX
  8
CopperMid
  10
12.067973
  20
-3.431696
  0
VERTEX
  8
CopperMid
  10
12.064952
  20
-3.4375
  0
VERTEX
  8
CopperMid
  10
12.061436
  20
-3.443018
  0
VERTEX
  8
CopperMid
  10
12.057453
  20
-3.448209
  0
VERTEX
  8
CopperMid
  10
12.053033
  20
-3.453033
  0
VERTEX
  8
CopperMid
  10
11.953033
  20
-3.553033
  0
VERTEX
  8
CopperMid
  10
11.948209
  20
-3.557453
  0
VERTEX
  8
CopperMid
  10
11.943018
  20
-3.561436
  0
VERTEX
  8
CopperMid
  10
11.9375
  20
-3.564952
  0
VERTEX
  8
CopperMid
  10
11.931696
  20
-3.567973
  0
VERTEX
  8
CopperMid
  10
11.925652
  20
-3.570477
  0
VERTEX
  8
CopperMid
  10
11.919411
  20
-3.572444
  0
VERTEX
  8
CopperMid
  10
11.913024
  20
-3.573861
  0
VERTEX
  8
CopperMid
  10
11.906537
  20
-3.574715
  0
VERTEX
  8
CopperMid
  10
11.9
  20
-3.575
  0
VERTEX
  8
CopperMid
  10
5.5
  20
-3.575
  0
VERTEX
  8
CopperMid
  10
5.493463
  20
-3.574715
  0
VERTEX
  8
CopperMid
  10
5.486976
  20
-3.573861
  0
VERTEX
  8
CopperMid
  10
5.480589
  20
-3.572444
  0
VERTEX
  8
CopperMid
  10
5.474348
  20
-3.570477
  0
VERTEX
  8
CopperMid
  10
5.468304
  20
-3.567973
  0
VERTEX
  8
CopperMid
  10
5.4625
  20
-3.564952
  0
VERTEX
  8
CopperMid
  10
5.456982
  20
-3.561436
  0
VERTEX
  8
CopperMid
  10
5.451791
  20
-3.557453
  0
VERTEX
  8
CopperMid
  10
5.446967
  20
-3.553033
  0
VERTEX
  8
CopperMid
  10
5.096967
  20
-3.203033
  0
VERTEX
  8
CopperMid
  10
5.092547
  20
-3.198209
  0
VERTEX
  8
CopperMid
  10
5.088564
  20
-3.193018
  0
VERTEX
  8
CopperMid
  10
5.085048
  20
-3.1875
  0
VERTEX
  8
CopperMid
  10
5.082027
  20
-3.181696
  0
VERTEX
  8
CopperMid
  10
5.079523
  20
-3.175652
  0
VERTEX
  8
CopperMid
  10
5.077556
  20
-3.169411
  0
VERTEX
  8
CopperMid
  10
5.076139
  20
-3.163024
  0
VERTEX
  8
CopperMid
  10
5.075285
  20
-3.156537
  0
VERTEX
  8
CopperMid
  10
5.075
  20
-3.15
  0
VERTEX
  8
CopperMid
  10
5.075
  20
3.45
  0
VERTEX
  8
CopperMid
  10
5.075285
  20
3.456537
  0
VERTEX
  8
CopperMid
  10
5.076139
  20
3.463024
  0
VERTEX
  8
CopperMid
  10
5.077556
  20
3.469411
  0
VERTEX
  8
CopperMid
  10
5.079523
  20
3.475652
  0
VERTEX
  8
CopperMid
  10
5.082027
  20
3.481696
  0
VERTEX
  8
CopperMid
  10
5.085048
  20
3.4875
  0
VERTEX
  8
CopperMid
  10
5.088564
  20
3.493018
  0
VERTEX
  8
CopperMid
  10
5.092547
  20
3.498209
  0
VERTEX
  8
CopperMid
  10
5.096967
  20
3.503033
  0
VERTEX
  8
CopperMid
  10
5.196967
  20
3.603033
  0
VERTEX
  8
CopperMid
  10
5.201791
  20
3.607453
  0
VERTEX
  8
CopperMid
  10
5.206982
  20
3.611436
  0
VERTEX
  8
CopperMid
  10
5.2125
  20
3.614952
  0
VERTEX
  8
CopperMid
  10
5.218304
  20
3.617973
  0
VERTEX
  8
CopperMid
  10
5.224348
  20
3.620477
  0
VERTEX
  8
CopperMid
  10
5.230589
  20
3.622444
  0
VERTEX
  8
CopperMid
  10
5.236976
  20
3.623861
  0
VERTEX
  8
CopperMid
  10
5.243463
  20
3.624715
  0
VERTEX
  8
CopperMid
  10
5.25
  20
3.625
  0
VERTEX
  8
CopperMid
  10
12.2
  20
3.625
  0
VERTEX
  8
CopperMid
  10
12.206537
  20
3.624715
  0
VERTEX
  8
CopperMid
  10
12.213024
  20
3.623861
  0
VERTEX
  8
CopperMid
  10
12.219411
  20
3.622444
  0
VERTEX
  8
CopperMid
  10
12.225652
  20
3.620477
  0
VERTEX
  8
CopperMid
  10
12.231696
  20
3.617973
  0
VERTEX
  8
CopperMid
  10
12.2375
  20
3.614952
  0
VERTEX
  8
CopperMid
  10
12.243018
  20
3.611436
  0
VERTEX
  8
CopperMid
  10
12.248209
  20
3.607453
  0
VERTEX
  8
CopperMid
  10
12.253033
  20
3.603033
  0
VERTEX
  8
CopperMid
  10
12.353033
  20
3.503033
  0
VERTEX
  8
CopperMid
  10
12.357453
  20
3.498209
  0
VERTEX
  8
CopperMid
  10
12.361436
  20
3.493018
  0
VERTEX
  8
CopperMid
  10
12.364952
  20
3.4875
  0
VERTEX
  8
CopperMid
  10
12.367973
  20
3.481696
  0
VERTEX
  8
CopperMid
  10
12.370477
  20
3.475652
  0
VERTEX
  8
CopperMid
  10
12.372444
  20
3.469411
  0
VERTEX
  8
CopperMid
  10
12.373861
  20
3.463024
  0
VERTEX
  8
CopperMid
  10
12.374715
  20
3.456537
  0
VERTEX
  8
CopperMid
  10
12.375
  20
3.45
  0
VERTEX
  8
CopperMid
  10
12.375
  20
-3.65
  0
VERTEX
  8
CopperMid
  10
12.374715
  20
-3.656537
  0
VERTEX
  8
CopperMid
  10
12.373861
  20
-3.663024
  0
VERTEX
  8
CopperMid
  10
12.372444
  20
-3.669411
  0
VERTEX
  8
CopperMid
  10
12.370477
  20
-3.675652
  0
VERTEX
  8
CopperMid
  10
12.367973
  20
-3.681696
  0
VERTEX
  8
CopperMid
  10
12.364952
  20
-3.6875
  0
VERTEX
  8
CopperMid
  10
12.361436
  20
-3.693018
  0
VERTEX
  8
CopperMid
  10
12.357453
  20
-3.698209
  0
VERTEX
  8
CopperMid
  10
12.353033
  20
-3.703033
  0
VERTEX
  8
CopperMid
  10
12.203033
  20
-3.853033
  0
VERTEX
  8
CopperMid
  10
12.198209
  20
-3.857453
  0
VERTEX
  8
CopperMid
  10
12.193018
  20
-3.861436
  0
VERTEX
  8
CopperMid
  10
12.1875
  20
-3.864952
  0
VERTEX
  8
CopperMid
  10
12.181696
  20
-3.867973
  0
VERTEX
  8
CopperMid
  10
12.175652
  20
-3.870477
  0
VERTEX
  8
CopperMid
  10
12.169411
  20
-3.872444
  0
VERTEX
  8
CopperMid
  10
12.163024
  20
-3.873861
  0
VERTEX
  8
CopperMid
  10
12.156537
  20
-3.874715
  0
VERTEX
  8
CopperMid
  10
12.15
  20
-3.875
  0
VERTEX
  8
CopperMid
  10
5.2
  20
-3.875
  0
VERTEX
  8
CopperMid
  10
5.193463
  20
-3.874715
  0
VERTEX
  8
CopperMid
  10
5.186976
  20
-3.873861
  0
VERTEX
  8
CopperMid
  10
5.180589
  20
-3.872444
  0
VERTEX
  8
CopperMid
  10
5.174348
  20
-3.870477
  0
VERTEX
  8
CopperMid
  10
5.168304
  20
-3.867973
  0
VERTEX
  8
CopperMid
  10
5.1625
  20
-3.864952
  0
VERTEX
  8
CopperMid
  10
5.156982
  20
-3.861436
  0
VERTEX
  8
CopperMid
  10
5.151791
  20
-3.857453
  0
VERTEX
  8
CopperMid
  10
5.146967
  20
-3.853033
  0
VERTEX
  8
CopperMid
  10
4.796967
  20
-3.503033
  0
VERTEX
  8
CopperMid
  10
4.792547
  20
-3.498209
  0
VERTEX
  8
CopperMid
  10
4.788564
  20
-3.493018
  0
VERTEX
  8
CopperMid
  10
4.785048
  20
-3.4875
  0
VERTEX
  8
CopperMid
  10
4.782027
  20
-3.481696
  0
VERTEX
  8
CopperMid
  10
4.779523
  20
-3.475652
  0
VERTEX
  8
CopperMid
  10
4.777556
  20
-3.469411
  0
VERTEX
  8
CopperMid
  10
4.776139
  20
-3.463024
  0
VERTEX
  8
CopperMid
  10
4.775285
  20
-3.456537
  0
VERTEX
  8
CopperMid
  10
4.775
  20
-3.45
  0
VERTEX
  8
CopperMid
  10
4.775
  20
3.75
  0
VERTEX
  8
CopperMid
  10
4.775285
  20
3.756537
  0
VERTEX
  8
CopperMid
  10
4.776139
  20
3.763024
  0
VERTEX
  8
CopperMid
  10
4.777556
  20
3.769411
  0
VERTEX
  8
CopperMid
  10
4.779523
  20
3.775652
  0
VERTEX
  8
CopperMid
  10
4.782027
  20
3.781696
  0
VERTEX
  8
CopperMid
  10
4.785048
  20
3.7875
  0
VERTEX
  8
CopperMid
  10
4.788564
  20
3.793018
  0
VERTEX
  8
CopperMid
  10
4.792547
  20
3.798209
  0
VERTEX
  8
CopperMid
  10
4.796967
  20
3.803033
  0
VERTEX
  8
CopperMid
  10
4.896967
  20
3.903033
  0
VERTEX
  8
CopperMid
  10
4.901791
  20
3.907453
  0
VERTEX
  8
CopperMid
  10
4.906982
  20
3.911436
  0
VERTEX
  8
CopperMid
  10
4.9125
  20
3.914952
  0
VERTEX
  8
CopperMid
  10
4.918304
  20
3.917973
  0
VERTEX
  8
CopperMid
  10
4.924348
  20
3.920477
  0
VERTEX
  8
CopperMid
  10
4.930589
  20
3.922444
  0
VERTEX
  8
CopperMid
  10
4.936976
  20
3.923861
  0
VERTEX
  8
CopperMid
  10
4.943463
  20
3.924715
  0
VERTEX
  8
CopperMid
  10
4.95
  20
3.925
  0
VERTEX
  8
CopperMid
  10
12.5
  20
3.925
  0
VERTEX
  8
CopperMid
  10
12.506537
  20
3.924715
  0
VERTEX
  8
CopperMid
  10
12.513024
  20
3.923861
  0
VERTEX
  8
CopperMid
  10
12.519411
  20
3.922444
  0
VERTEX
  8
CopperMid
  10
12.525652
  20
3.920477
  0
VERTEX
  8
CopperMid
  10
12.531696
  20
3.917973
  0
VERTEX
  8
CopperMid
  10
12.5375
  20
3.914952
  0
VERTEX
  8
CopperMid
  10
12.543018
  20
3.911436
  0
VERTEX
  8
CopperMid
  10
12.548209
  20
3.907453
  0
VERTEX
  8
CopperMid
  10
12.553033
  20
3.903033
  0
VERTEX
  8
CopperMid
  10
12.653033
  20
3.803033
  0
VERTEX
  8
CopperMid
  10
12.657453
  20
3.798209
  0
VERTEX
  8
CopperMid
  10
12.661436
  20
3.793018
  0
VERTEX
  8
CopperMid
  10
12.664952
  20
3.7875
  0
VERTEX
  8
CopperMid
  10
12.667973
  20
3.781696
  0
VERTEX
  8
CopperMid
  10
12.670477
  20
3.775652
  0
VERTEX
  8
CopperMid
  10
12.672444
  20
3.769411
  0
VERTEX
  8
CopperMid
  10
12.673861
  20
3.763024
  0
VERTEX
  8
CopperMid
  10
12.674715
  20
3.756537
  0
VERTEX
  8
CopperMid
  10
12.675
  20
3.75
  0
VERTEX
  8
CopperMid
  10
12.675
  20
-3.95
  0
VERTEX
  8
CopperMid
  10
12.674715
  20
-3.956537
  0
VERTEX
  8
CopperMid
  10
12.673861
  20
-3.963024
  0
VERTEX
  8
CopperMid
  10
12.672444
  20
-3.969411
  0
VERTEX
  8
CopperMid
  10
12.670477
  20
-3.975652
  0
VERTEX
  8
CopperMid
  10
12.667973
  20
-3.981696
  0
VERTEX
  8
CopperMid
  10
12.664952
  20
-3.9875
  0
VERTEX
  8
CopperMid
  10
12.661436
  20
-3.993018
  0
VERTEX
  8
CopperMid
  10
12.657453
  20
-3.998209
  0
VERTEX
  8
CopperMid
  10
12.653033
  20
-4.003033
  0
VERTEX
  8
CopperMid
  10
12.503033
  20
-4.153033
  0
VERTEX
  8
CopperMid
  10
12.498209
  20
-4.157453
  0
VERTEX
  8
CopperMid
  10
12.493018
  20
-4.161436
  0
VERTEX
  8
CopperMid
  10
12.4875
  20
-4.164952
  0
VERTEX
  8
CopperMid
  10
12.481696
  20
-4.167973
  0
VERTEX
  8
CopperMid
  10
12.475652
  20
-4.170477
  0
VERTEX
  8
CopperMid
  10
12.469411
  20
-4.172444
  0
VERTEX
  8
CopperMid
  10
12.463024
  20
-4.173861
  0
VERTEX
  8
CopperMid
  10
12.456537
  20
-4.174715
  0
VERTEX
  8
CopperMid
  10
12.45
  20
-4.175
  0
VERTEX
  8
CopperMid
  10
4.98
  20
-4.175
  0
VERTEX
  8
CopperMid
  10
4.973463
  20
-4.174715
  0
VERTEX
  8
CopperMid
  10
4.966976
  20
-4.173861
  0
VERTEX
  8
CopperMid
  10
4.960589
  20
-4.172444
  0
VERTEX
  8
CopperMid
  10
4.954348
  20
-4.170477
  0
VERTEX
  8
CopperMid
  10
4.948304
  20
-4.167973
  0
VERTEX
  8
CopperMid
  10
4.9425
  20
-4.164952
  0
VERTEX
  8
CopperMid
  10
4.936982
  20
-4.161436
  0
VERTEX
  8
CopperMid
  10
4.931791
  20
-4.157453
  0
VERTEX
  8
CopperMid
  10
4.926967
  20
-4.153033
  0
VERTEX
  8
CopperMid
  10
4.506967
  20
-3.733033
  0
VERTEX
  8
CopperMid
  10
4.502547
  20
-3.728209
  0
VERTEX
  8
CopperMid
  10
4.498564
  20
-3.723018
  0
VERTEX
  8
CopperMid
  10
4.495048
  20
-3.7175
  0
VERTEX
  8
CopperMid
  10
4.492027
  20
-3.711696
  0
VERTEX
  8
CopperMid
  10
4.489523
  20
-3.705652
  0
VERTEX
  8
CopperMid
  10
4.487556
  20
-3.699411
  0
VERTEX
  8
CopperMid
  10
4.486139
  20
-3.693024
  0
VERTEX
  8
CopperMid
  10
4.485285
  20
-3.686537
  0
VERTEX
  8
CopperMid
  10
4.485
  20
-3.68
  0
VERTEX
  8
CopperMid
  10
4.485
  20
3.86
  0
VERTEX
  8
CopperMid
  10
4.485285
  20
3.866537
  0
VERTEX
  8
CopperMid
  10
4.486139
  20
3.873024
  0
VERTEX
  8
CopperMid
  10
4.487556
  20
3.879411
  0
VERTEX
  8
CopperMid
  10
4.489523
  20
3.885652
  0
VERTEX
  8
CopperMid
  10
4.492027
  20
3.891696
  0
VERTEX
  8
CopperMid
  10
4.495048
  20
3.8975
  0
VERTEX
  8
CopperMid
  10
4.498564
  20
3.903018
  0
VERTEX
  8
CopperMid
  10
4.502547
  20
3.908209
  0
VERTEX
  8
CopperMid
  10
4.506967
  20
3.913033
  0
VERTEX
  8
CopperMid
  10
4.796967
  20
4.203033
  0
VERTEX
  8
CopperMid
  10
4.801791
  20
4.207453
  0
VERTEX
  8
CopperMid
  10
4.806982
  20
4.211436
  0
VERTEX
  8
CopperMid
  10
4.8125
  20
4.214952
  0
VERTEX
  8
CopperMid
  10
4.818304
  20
4.217973
  0
VERTEX
  8
CopperMid
  10
4.824348
  20
4.220477
  0
VERTEX
  8
CopperMid
  10
4.830589
  20
4.222444
  0
VERTEX
  8
CopperMid
  10
4.836976
  20
4.223861
  0
VERTEX
  8
CopperMid
  10
4.843463
  20
4.224715
  0
VERTEX
  8
CopperMid
  10
4.85
  20
4.225
  0
VERTEX
  8
CopperMid
  10
12.75
  20
4.225
  0
VERTEX
  8
CopperMid
  10
12.756537
  20
4.224715
  0
VERTEX
  8
CopperMid
  10
12.763024
  20
4.223861
  0
VERTEX
  8
CopperMid
  10
12.769411
  20
4.222444
  0
VERTEX
  8
CopperMid
  10
12.775652
  20
4.220477
  0
VERTEX
  8
CopperMid
  10
12.781696
  20
4.217973
  0
VERTEX
  8
CopperMid
  10
12.7875
  20
4.214952
  0
VERTEX
  8
CopperMid
  10
12.793018
  20
4.211436
  0
VERTEX
  8
CopperMid
  10
12.798209
  20
4.207453
  0
VERTEX
  8
CopperMid
  10
12.803033
  20
4.203033
  0
VERTEX
  8
CopperMid
  10
12.953033
  20
4.053033
  0
VERTEX
  8
CopperMid
  10
12.957453
  20
4.048209
  0
VERTEX
  8
CopperMid
  10
12.961436
  20
4.043018
  0
VERTEX
  8
CopperMid
  10
12.964952
  20
4.0375
  0
VERTEX
  8
CopperMid
  10
12.967973
  20
4.031696
  0
VERTEX
  8
CopperMid
  10
12.970477
  20
4.025652
  0
VERTEX
  8
CopperMid
  10
12.972444
  20
4.019411
  0
VERTEX
  8
CopperMid
  10
12.973861
  20
4.013024
  0
VERTEX
  8
CopperMid
  10
12.974715
  20
4.006537
  0
VERTEX
  8
CopperMid
  10
12.975
  20
4
  0
VERTEX
  8
CopperMid
  10
12.975
  20
-4.25
  0
VERTEX
  8
CopperMid
  10
12.974715
  20
-4.256537
  0
VERTEX
  8
CopperMid
  10
12.973861
  20
-4.263024
  0
VERTEX
  8
CopperMid
  10
12.972444
  20
-4.269411
  0
VERTEX
  8
CopperMid
  10
12.970477
  20
-4.275652
  0
VERTEX
  8
CopperMid
  10
12.967973
  20
-4.281696
  0
VERTEX
  8
CopperMid
  10
12.964952
  20
-4.2875
  0
VERTEX
  8
CopperMid
  10
12.961436
  20
-4.293018
  0
VERTEX
  8
CopperMid
  10
12.957453
  20
-4.298209
  0
VERTEX
  8
CopperMid
  10
12.953033
  20
-4.303033
  0
VERTEX
  8
CopperMid
  10
12.803033
  20
-4.453033
  0
VERTEX
  8
CopperMid
  10
12.798209
  20
-4.457453
  0
VERTEX
  8
CopperMid
  10
12.793018
  20
-4.461436
  0
VERTEX
  8
CopperMid
  10
12.7875
  20
-4.464952
  0
VERTEX
  8
CopperMid
  10
12.781696
  20
-4.467973
  0
VERTEX
  8
CopperMid
  10
12.775652
  20
-4.470477
  0
VERTEX
  8
CopperMid
  10
12.769411
  20
-4.472444
  0
VERTEX
  8
CopperMid
  10
12.763024
  20
-4.473861
  0
VERTEX
  8
CopperMid
  10
12.756537
  20
-4.474715
  0
VERTEX
  8
CopperMid
  10
12.75
  20
-4.475
  0
VERTEX
  8
CopperMid
  10
4.84
  20
-4.475
  0
VERTEX
  8
CopperMid
  10
4.833463
  20
-4.474715
  0
VERTEX
  8
CopperMid
  10
4.826976
  20
-4.473861
  0
VERTEX
  8
CopperMid
  10
4.820589
  20
-4.472444
  0
VERTEX
  8
CopperMid
  10
4.814348
  20
-4.470477
  0
VERTEX
  8
CopperMid
  10
4.808304
  20
-4.467973
  0
VERTEX
  8
CopperMid
  10
4.8025
  20
-4.464952
  0
VERTEX
  8
CopperMid
  10
4.796982
  20
-4.461436
  0
VERTEX
  8
CopperMid
  10
4.791791
  20
-4.457453
  0
VERTEX
  8
CopperMid
  10
4.786967
  20
-4.453033
  0
VERTEX
  8
CopperMid
  10
4.196967
  20
-3.863033
  0
VERTEX
  8
CopperMid
  10
4.192547
  20
-3.858209
  0
VERTEX
  8
CopperMid
  10
4.188564
  20
-3.853018
  0
VERTEX
  8
CopperMid
  10
4.185048
  20
-3.8475
  0
VERTEX
  8
CopperMid
  10
4.182027
  20
-3.841696
  0
VERTEX
  8
CopperMid
  10
4.179523
  20
-3.835652
  0
VERTEX
  8
CopperMid
  10
4.177556
  20
-3.829411
  0
VERTEX
  8
CopperMid
  10
4.176139
  20
-3.823024
  0
VERTEX
  8
CopperMid
  10
4.175285
  20
-3.816537
  0
VERTEX
  8
CopperMid
  10
4.175
  20
-3.81
  0
VERTEX
  8
CopperMid
  10
4.175
  20
4.1
  0
VERTEX
  8
CopperMid
  10
4.175285
  20
4.106537
  0
VERTEX
  8
CopperMid
  10
4.176139
  20
4.113024
  0
VERTEX
  8
CopperMid
  10
4.177556
  20
4.119411
  0
VERTEX
  8
CopperMid
  10
4.179523
  20
4.125652
  0
VERTEX
  8
CopperMid
  10
4.182027
  20
4.131696
  0
VERTEX
  8
CopperMid
  10
4.185048
  20
4.1375
  0
VERTEX
  8
CopperMid
  10
4.188564
  20
4.143018
  0
VERTEX
  8
CopperMid
  10
4.192547
  20
4.148209
  0
VERTEX
  8
CopperMid
  10
4.196967
  20
4.153033
  0
VERTEX
  8
CopperMid
  10
4.546967
  20
4.503033
  0
VERTEX
  8
CopperMid
  10
4.551791
  20
4.507453
  0
VERTEX
  8
CopperMid
  10
4.556982
  20
4.511436
  0
VERTEX
  8
CopperMid
  10
4.5625
  20
4.514952
  0
VERTEX
  8
CopperMid
  10
4.568304
  20
4.517973
  0
VERTEX
  8
CopperMid
  10
4.574348
  20
4.520477
  0
VERTEX
  8
CopperMid
  10
4.580589
  20
4.522444
  0
VERTEX
  8
CopperMid
  10
4.586976
  20
4.523861
  0
VERTEX
  8
CopperMid
  10
4.593463
  20
4.524715
  0
VERTEX
  8
CopperMid
  10
4.6
  20
4.525
  0
VERTEX
  8
CopperMid
  10
13
  20
4.525
  0
SEQEND
  0
CIRCLE
  8
CopperMid
  10
10.6
  20
-2.1
  40
0.225
  0
CIRCLE
  8
CopperMid
  10
10.6
  20
-0.55
  40
0.225
  0
POLYLINE
  8
CopperMid2
  70
1
  66
1
  0
VERTEX
  8
CopperMid2
  10
13.006537
  20
4.524715
  0
VERTEX
  8
CopperMid2
  10
13.013024
  20
4.523861
  0
VERTEX
  8
CopperMid2
  10
13.019411
  20
4.522444
  0
VERTEX
  8
CopperMid2
  10
13.025652
  20
4.520477
  0
VERTEX
  8
CopperMid2
  10
13.031696
  20
4.517973
  0
VERTEX
  8
CopperMid2
  10
13.0375
  20
4.514952
  0
VERTEX
  8
CopperMid2
  10
13.043018
  20
4.511436
  0
VERTEX
  8
CopperMid2
  10
13.048209
  20
4.507453
  0
VERTEX
  8
CopperMid2
  10
13.053033
  20
4.503033
  0
VERTEX
  8
CopperMid2
  10
13.253033
  20
4.303033
  0
VERTEX
  8
CopperMid2
  10
13.257453
  20
4.298209
  0
VERTEX
  8
CopperMid2
  10
13.261436
  20
4.293018
  0
VERTEX
  8
CopperMid2
  10
13.264952
  20
4.2875
  0
VERTEX
  8
CopperMid2
  10
13.267973
  20
4.281696
  0
VERTEX
  8
CopperMid2
  10
13.270477
  20
4.275652
  0
VERTEX
  8
CopperMid2
  10
13.272444
  20
4.269411
  0
VERTEX
  8
CopperMid2
  10
13.273861
  20
4.263024
  0
VERTEX
  8
CopperMid2
  10
13.274715
  20
4.256537
  0
VERTEX
  8
CopperMid2
  10
13.275
  20
4.25
  0
VERTEX
  8
CopperMid2
  10
13.275
  20
-4.25
  0
VERTEX
  8
CopperMid2
  10
13.274715
  20
-4.256537
  0
VERTEX
  8
CopperMid2
  10
13.273861
  20
-4.263024
  0
VERTEX
  8
CopperMid2
  10
13.272444
  20
-4.269411
  0
VERTEX
  8
CopperMid2
  10
13.270477
  20
-4.275652
  0
VERTEX
  8
CopperMid2
  10
13.267973
  20
-4.281696
  0
VERTEX
  8
CopperMid2
  10
13.264952
  20
-4.2875
  0
VERTEX
  8
CopperMid2
  10
13.261436
  20
-4.293018
  0
VERTEX
  8
CopperMid2
  10
13.257453
  20
-4.298209
  0
VERTEX
  8
CopperMid2
  10
13.253033
  20
-4.303033
  0
VERTEX
  8
CopperMid2
  10
13.103033
  20
-4.453033
  0
VERTEX
  8
CopperMid2
  10
13.098209
  20
-4.457453
  0
VERTEX
  8
CopperMid2
  10
13.093018
  20
-4.461436
  0
VERTEX
  8
CopperMid2
  10
13.0875
  20
-4.464952
  0
VERTEX
  8
CopperMid2
  10
13.081696
  20
-4.467973
  0
VERTEX
  8
CopperMid2
  10
13.075652
  20
-4.470477
  0
VERTEX
  8
CopperMid2
  10
13.069411
  20
-4.472444
  0
VERTEX
  8
CopperMid2
  10
13.063024
  20
-4.473861
  0
VERTEX
  8
CopperMid2
  10
13.056537
  20
-4.474715
  0
VERTEX
  8
CopperMid2
  10
13.05
  20
-4.475
  0
VERTEX
  8
CopperMid2
  10
5
  20
-4.475
  0
VERTEX
  8
CopperMid2
  10
4.95
  20
-4.475
  0
VERTEX
  8
CopperMid2
  10
4.84
  20
-4.475
  0
VERTEX
  8
CopperMid2
  10
4.833463
  20
-4.474715
  0
VERTEX
  8
CopperMid2
  10
4.826976
  20
-4.473861
  0
VERTEX
  8
CopperMid2
  10
4.820589
  20
-4.472444
  0
VERTEX
  8
CopperMid2
  10
4.814348
  20
-4.470477
  0
VERTEX
  8
CopperMid2
  10
4.808304
  20
-4.467973
  0
VERTEX
  8
CopperMid2
  10
4.8025
  20
-4.464952
  0
VERTEX
  8
CopperMid2
  10
4.796982
  20
-4.461436
  0
VERTEX
  8
CopperMid2
  10
4.791791
  20
-4.457453
  0
VERTEX
  8
CopperMid2
  10
4.786967
  20
-4.453033
  0
VERTEX
  8
CopperMid2
  10
4.496967
  20
-4.163033
  0
VERTEX
  8
CopperMid2
  10
4.492547
  20
-4.158209
  0
VERTEX
  8
CopperMid2
  10
4.488564
  20
-4.153018
  0
VERTEX
  8
CopperMid2
  10
4.485048
  20
-4.1475
  0
VERTEX
  8
CopperMid2
  10
4.482027
  20
-4.141696
  0
VERTEX
  8
CopperMid2
  10
4.479523
  20
-4.135652
  0
VERTEX
  8
CopperMid2
  10
4.477556
  20
-4.129411
  0
VERTEX
  8
CopperMid2
  10
4.476139
  20
-4.123024
  0
VERTEX
  8
CopperMid2
  10
4.475285
  20
-4.116537
  0
VERTEX
  8
CopperMid2
  10
4.475
  20
-4.11
  0
VERTEX
  8
CopperMid2
  10
4.475
  20
3.85
  0
VERTEX
  8
CopperMid2
  10
4.475285
  20
3.856537
  0
VERTEX
  8
CopperMid2
  10
4.476139
  20
3.863024
  0
VERTEX
  8
CopperMid2
  10
4.477556
  20
3.869411
  0
VERTEX
  8
CopperMid2
  10
4.479523
  20
3.875652
  0
VERTEX
  8
CopperMid2
  10
4.482027
  20
3.881696
  0
VERTEX
  8
CopperMid2
  10
4.485048
  20
3.8875
  0
VERTEX
  8
CopperMid2
  10
4.488564
  20
3.893018
  0
VERTEX
  8
CopperMid2
  10
4.492547
  20
3.898209
  0
VERTEX
  8
CopperMid2
  10
4.496967
  20
3.903033
  0
VERTEX
  8
CopperMid2
  10
4.796967
  20
4.203033
  0
VERTEX
  8
CopperMid2
  10
4.801791
  20
4.207453
  0
VERTEX
  8
CopperMid2
  10
4.806982
  20
4.211436
  0
VERTEX
  8
CopperMid2
  10
4.8125
  20
4.214952
  0
VERTEX
  8
CopperMid2
  10
4.818304
  20
4.217973
  0
VERTEX
  8
CopperMid2
  10
4.824348
  20
4.220477
  0
VERTEX
  8
CopperMid2
  10
4.830589
  20
4.222444
  0
VERTEX
  8
CopperMid2
  10
4.836976
  20
4.223861
  0
VERTEX
  8
CopperMid2
  10
4.843463
  20
4.224715
  0
VERTEX
  8
CopperMid2
  10
4.85
  20
4.225
  0
VERTEX
  8
CopperMid2
  10
12.75
  20
4.225
  0
VERTEX
  8
CopperMid2
  10
12.756537
  20
4.224715
  0
VERTEX
  8
CopperMid2
  10
12.763024
  20
4.223861
  0
VERTEX
  8
CopperMid2
  10
12.769411
  20
4.222444
  0
VERTEX
  8
CopperMid2
  10
12.775652
  20
4.220477
  0
VERTEX
  8
CopperMid2
  10
12.781696
  20
4.217973
  0
VERTEX
  8
CopperMid2
  10
12.7875
  20
4.214952
  0
VERTEX
  8
CopperMid2
  10
12.793018
  20
4.211436
  0
VERTEX
  8
CopperMid2
  10
12.798209
  20
4.207453
  0
VERTEX
  8
CopperMid2
  10
12.803033
  20
4.203033
  0
VERTEX
  8
CopperMid2
  10
12.953033
  20
4.053033
  0
VERTEX
  8
CopperMid2
  10
12.957453
  20
4.048209
  0
VERTEX
  8
CopperMid2
  10
12.961436
  20
4.043018
  0
VERTEX
  8
CopperMid2
  10
12.964952
  20
4.0375
  0
VERTEX
  8
CopperMid2
  10
12.967973
  20
4.031696
  0
VERTEX
  8
CopperMid2
  10
12.970477
  20
4.025652
  0
VERTEX
  8
CopperMid2
  10
12.972444
  20
4.019411
  0
VERTEX
  8
CopperMid2
  10
12.973861
  20
4.013024
  0
VERTEX
  8
CopperMid2
  10
12.974715
  20
4.006537
  0
VERTEX
  8
CopperMid2
  10
12.975
  20
4
  0
VERTEX
  8
CopperMid2
  10
12.975
  20
-3.95
  0
VERTEX
  8
CopperMid2
  10
12.974715
  20
-3.956537
  0
VERTEX
  8
CopperMid2
  10
12.973861
  20
-3.963024
  0
VERTEX
  8
CopperMid2
  10
12.972444
  20
-3.969411
  0
VERTEX
  8
CopperMid2
  10
12.970477
  20
-3.975652
  0
VERTEX
  8
CopperMid2
  10
12.967973
  20
-3.981696
  0
VERTEX
  8
CopperMid2
  10
12.964952
  20
-3.9875
  0
VERTEX
  8
CopperMid2
  10
12.961436
  20
-3.993018
  0
VERTEX
  8
CopperMid2
  10
12.957453
  20
-3.998209
  0
VERTEX
  8
CopperMid2
  10
12.953033
  20
-4.003033
  0
VERTEX
  8
CopperMid2
  10
12.803033
  20
-4.153033
  0
VERTEX
  8
CopperMid2
  10
12.798209
  20
-4.157453
  0
VERTEX
  8
CopperMid2
  10
12.793018
  20
-4.161436
  0
VERTEX
  8
CopperMid2
  10
12.7875
  20
-4.164952
  0
VERTEX
  8
CopperMid2
  10
12.781696
  20
-4.167973
  0
VERTEX
  8
CopperMid2
  10
12.775652
  20
-4.170477
  0
VERTEX
  8
CopperMid2
  10
12.769411
  20
-4.172444
  0
VERTEX
  8
CopperMid2
  10
12.763024
  20
-4.173861
  0
VERTEX
  8
CopperMid2
  10
12.756537
  20
-4.174715
  0
VERTEX
  8
CopperMid2
  10
12.75
  20
-4.175
  0
VERTEX
  8
CopperMid2
  10
5
  20
-4.175
  0
VERTEX
  8
CopperMid2
  10
4.993463
  20
-4.174715
  0
VERTEX
  8
CopperMid2
  10
4.986976
  20
-4.173861
  0
VERTEX
  8
CopperMid2
  10
4.980589
  20
-4.172444
  0
VERTEX
  8
CopperMid2
  10
4.974348
  20
-4.170477
  0
VERTEX
  8
CopperMid2
  10
4.968304
  20
-4.167973
  0
VERTEX
  8
CopperMid2
  10
4.9625
  20
-4.164952
  0
VERTEX
  8
CopperMid2
  10
4.956982
  20
-4.161436
  0
VERTEX
  8
CopperMid2
  10
4.951791
  20
-4.157453
  0
VERTEX
  8
CopperMid2
  10
4.946967
  20
-4.153033
  0
VERTEX
  8
CopperMid2
  10
4.796967
  20
-4.003033
  0
VERTEX
  8
CopperMid2
  10
4.792547
  20
-3.998209
  0
VERTEX
  8
CopperMid2
  10
4.788564
  20
-3.993018
  0
VERTEX
  8
CopperMid2
  10
4.785048
  20
-3.9875
  0
VERTEX
  8
CopperMid2
  10
4.782027
  20
-3.981696
  0
VERTEX
  8
CopperMid2
  10
4.779523
  20
-3.975652
  0
VERTEX
  8
CopperMid2
  10
4.777556
  20
-3.969411
  0
VERTEX
  8
CopperMid2
  10
4.776139
  20
-3.963024
  0
VERTEX
  8
CopperMid2
  10
4.775285
  20
-3.956537
  0
VERTEX
  8
CopperMid2
  10
4.775
  20
-3.95
  0
VERTEX
  8
CopperMid2
  10
4.775
  20
3.75
  0
VERTEX
  8
CopperMid2
  10
4.775285
  20
3.756537
  0
VERTEX
  8
CopperMid2
  10
4.776139
  20
3.763024
  0
VERTEX
  8
CopperMid2
  10
4.777556
  20
3.769411
  0
VERTEX
  8
CopperMid2
  10
4.779523
  20
3.775652
  0
VERTEX
  8
CopperMid2
  10
4.782027
  20
3.781696
  0
VERTEX
  8
CopperMid2
  10
4.785048
  20
3.7875
  0
VERTEX
  8
CopperMid2
  10
4.788564
  20
3.793018
  0
VERTEX
  8
CopperMid2
  10
4.792547
  20
3.798209
  0
VERTEX
  8
CopperMid2
  10
4.796967
  20
3.803033
  0
VERTEX
  8
CopperMid2
  10
4.896967
  20
3.903033
  0
VERTEX
  8
CopperMid2
  10
4.901791
  20
3.907453
  0
VERTEX
  8
CopperMid2
  10
4.906982
  20
3.911436
  0
VERTEX
  8
CopperMid2
  10
4.9125
  20
3.914952
  0
VERTEX
  8
CopperMid2
  10
4.918304
  20
3.917973
  0
VERTEX
  8
CopperMid2
  10
4.924348
  20
3.920477
  0
VERTEX
  8
CopperMid2
  10
4.930589
  20
3.922444
  0
VERTEX
  8
CopperMid2
  10
4.936976
  20
3.923861
  0
VERTEX
  8
CopperMid2
  10
4.943463
  20
3.924715
  0
VERTEX
  8
CopperMid2
  10
4.95
  20
3.925
  0
VERTEX
  8
CopperMid2
  10
10.5
  20
3.925
  0
VERTEX
  8
CopperMid2
  10
12.5
  20
3.925
  0
VERTEX
  8
CopperMid2
  10
12.506537
  20
3.924715
  0
VERTEX
  8
CopperMid2
  10
12.513024
  20
3.923861
  0
VERTEX
  8
CopperMid2
  10
12.519411
  20
3.922444
  0
VERTEX
  8
CopperMid2
  10
12.525652
  20
3.920477
  0
VERTEX
  8
CopperMid2
  10
12.531696
  20
3.917973
  0
VERTEX
  8
CopperMid2
  10
12.5375
  20
3.914952
  0
VERTEX
  8
CopperMid2
  10
12.543018
  20
3.911436
  0
VERTEX
  8
CopperMid2
  10
12.548209
  20
3.907453
  0
VERTEX
  8
CopperMid2
  10
12.553033
  20
3.903033
  0
VERTEX
  8
CopperMid2
  10
12.653033
  20
3.803033
  0
VERTEX
  8
CopperMid2
  10
12.657453
  20
3.798209
  0
VERTEX
  8
CopperMid2
  10
12.661436
  20
3.793018
  0
VERTEX
  8
CopperMid2
  10
12.664952
  20
3.7875
  0
VERTEX
  8
CopperMid2
  10
12.667973
  20
3.781696
  0
VERTEX
  8
CopperMid2
  10
12.670477
  20
3.775652
  0
VERTEX
  8
CopperMid2
  10
12.672444
  20
3.769411
  0
VERTEX
  8
CopperMid2
  10
12.673861
  20
3.763024
  0
VERTEX
  8
CopperMid2
  10
12.674715
  20
3.756537
  0
VERTEX
  8
CopperMid2
  10
12.675
  20
3.75
  0
VERTEX
  8
CopperMid2
  10
12.675
  20
-3.7
  0
VERTEX
  8
CopperMid2
  10
12.674715
  20
-3.706537
  0
VERTEX
  8
CopperMid2
  10
12.673861
  20
-3.713024
  0
VERTEX
  8
CopperMid2
  10
12.672444
  20
-3.719411
  0
VERTEX
  8
CopperMid2
  10
12.670477
  20
-3.725652
  0
VERTEX
  8
CopperMid2
  10
12.667973
  20
-3.731696
  0
VERTEX
  8
CopperMid2
  10
12.664952
  20
-3.7375
  0
VERTEX
  8
CopperMid2
  10
12.661436
  20
-3.743018
  0
VERTEX
  8
CopperMid2
  10
12.657453
  20
-3.748209
  0
VERTEX
  8
CopperMid2
  10
12.653033
  20
-3.753033
  0
VERTEX
  8
CopperMid2
  10
12.553033
  20
-3.853033
  0
VERTEX
  8
CopperMid2
  10
12.548209
  20
-3.857453
  0
VERTEX
  8
CopperMid2
  10
12.543018
  20
-3.861436
  0
VERTEX
  8
CopperMid2
  10
12.5375
  20
-3.864952
  0
VERTEX
  8
CopperMid2
  10
12.531696
  20
-3.867973
  0
VERTEX
  8
CopperMid2
  10
12.525652
  20
-3.870477
  0
VERTEX
  8
CopperMid2
  10
12.519411
  20
-3.872444
  0
VERTEX
  8
CopperMid2
  10
12.513024
  20
-3.873861
  0
VERTEX
  8
CopperMid2
  10
12.506537
  20
-3.874715
  0
VERTEX
  8
CopperMid2
  10
12.5
  20
-3.875
  0
VERTEX
  8
CopperMid2
  10
5.25
  20
-3.875
  0
VERTEX
  8
CopperMid2
  10
5.243463
  20
-3.874715
  0
VERTEX
  8
CopperMid2
  10
5.236976
  20
-3.873861
  0
VERTEX
  8
CopperMid2
  10
5.230589
  20
-3.872444
  0
VERTEX
  8
CopperMid2
  10
5.224348
  20
-3.870477
  0
VERTEX
  8
CopperMid2
  10
5.218304
  20
-3.867973
  0
VERTEX
  8
CopperMid2
  10
5.2125
  20
-3.864952
  0
VERTEX
  8
CopperMid2
  10
5.206982
  20
-3.861436
  0
VERTEX
  8
CopperMid2
  10
5.201791
  20
-3.857453
  0
VERTEX
  8
CopperMid2
  10
5.196967
  20
-3.853033
  0
VERTEX
  8
CopperMid2
  10
5.096967
  20
-3.753033
  0
VERTEX
  8
CopperMid2
  10
5.092547
  20
-3.748209
  0
VERTEX
  8
CopperMid2
  10
5.088564
  20
-3.743018
  0
VERTEX
  8
CopperMid2
  10
5.085048
  20
-3.7375
  0
VERTEX
  8
CopperMid2
  10
5.082027
  20
-3.731696
  0
VERTEX
  8
CopperMid2
  10
5.079523
  20
-3.725652
  0
VERTEX
  8
CopperMid2
  10
5.077556
  20
-3.719411
  0
VERTEX
  8
CopperMid2
  10
5.076139
  20
-3.713024
  0
VERTEX
  8
CopperMid2
  10
5.075285
  20
-3.706537
  0
VERTEX
  8
CopperMid2
  10
5.075
  20
-3.7
  0
VERTEX
  8
CopperMid2
  10
5.075
  20
3.45
  0
VERTEX
  8
CopperMid2
  10
5.075285
  20
3.456537
  0
VERTEX
  8
CopperMid2
  10
5.076139
  20
3.463024
  0
VERTEX
  8
CopperMid2
  10
5.077556
  20
3.469411
  0
VERTEX
  8
CopperMid2
  10
5.079523
  20
3.475652
  0
VERTEX
  8
CopperMid2
  10
5.082027
  20
3.481696
  0
VERTEX
  8
CopperMid2
  10
5.085048
  20
3.4875
  0
VERTEX
  8
CopperMid2
  10
5.088564
  20
3.493018
  0
VERTEX
  8
CopperMid2
  10
5.092547
  20
3.498209
  0
VERTEX
  8
CopperMid2
  10
5.096967
  20
3.503033
  0
VERTEX
  8
CopperMid2
  10
5.196967
  20
3.603033
  0
VERTEX
  8
CopperMid2
  10
5.201791
  20
3.607453
  0
VERTEX
  8
CopperMid2
  10
5.206982
  20
3.611436
  0
VERTEX
  8
CopperMid2
  10
5.2125
  20
3.614952
  0
VERTEX
  8
CopperMid2
  10
5.218304
  20
3.617973
  0
VERTEX
  8
CopperMid2
  10
5.224348
  20
3.620477
  0
VERTEX
  8
CopperMid2
  10
5.230589
  20
3.622444
  0
VERTEX
  8
CopperMid2
  10
5.236976
  20
3.623861
  0
VERTEX
  8
CopperMid2
  10
5.243463
  20
3.624715
  0
VERTEX
  8
CopperMid2
  10
5.25
  20
3.625
  0
VERTEX
  8
CopperMid2
  10
12.2
  20
3.625
  0
VERTEX
  8
CopperMid2
  10
12.206537
  20
3.624715
  0
VERTEX
  8
CopperMid2
  10
12.213024
  20
3.623861
  0
VERTEX
  8
CopperMid2
  10
12.219411
  20
3.622444
  0
VERTEX
  8
CopperMid2
  10
12.225652
  20
3.620477
  0
VERTEX
  8
CopperMid2
  10
12.231696
  20
3.617973
  0
VERTEX
  8
CopperMid2
  10
12.2375
  20
3.614952
  0
VERTEX
  8
CopperMid2
  10
12.243018
  20
3.611436
  0
VERTEX
  8
CopperMid2
  10
12.248209
  20
3.607453
  0
VERTEX
  8
CopperMid2
  10
12.253033
  20
3.603033
  0
VERTEX
  8
CopperMid2
  10
12.353033
  20
3.503033
  0
VERTEX
  8
CopperMid2
  10
12.357453
  20
3.498209
  0
VERTEX
  8
CopperMid2
  10
12.361436
  20
3.493018
  0
VERTEX
  8
CopperMid2
  10
12.364952
  20
3.4875
  0
VERTEX
  8
CopperMid2
  10
12.367973
  20
3.481696
  0
VERTEX
  8
CopperMid2
  10
12.370477
  20
3.475652
  0
VERTEX
  8
CopperMid2
  10
12.372444
  20
3.469411
  0
VERTEX
  8
CopperMid2
  10
12.373861
  20
3.463024
  0
VERTEX
  8
CopperMid2
  10
12.374715
  20
3.456537
  0
VERTEX
  8
CopperMid2
  10
12.375
  20
3.45
  0
VERTEX
  8
CopperMid2
  10
12.375
  20
-3.4
  0
VERTEX
  8
CopperMid2
  10
12.374715
  20
-3.406537
  0
VERTEX
  8
CopperMid2
  10
12.373861
  20
-3.413024
  0
VERTEX
  8
CopperMid2
  10
12.372444
  20
-3.419411
  0
VERTEX
  8
CopperMid2
  10
12.370477
  20
-3.425652
  0
VERTEX
  8
CopperMid2
  10
12.367973
  20
-3.431696
  0
VERTEX
  8
CopperMid2
  10
12.364952
  20
-3.4375
  0
VERTEX
  8
CopperMid2
  10
12.361436
  20
-3.443018
  0
VERTEX
  8
CopperMid2
  10
12.357453
  20
-3.448209
  0
VERTEX
  8
CopperMid2
  10
12.353033
  20
-3.453033
  0
VERTEX
  8
CopperMid2
  10
12.253033
  20
-3.553033
  0
VERTEX
  8
CopperMid2
  10
12.248209
  20
-3.557453
  0
VERTEX
  8
CopperMid2
  10
12.243018
  20
-3.561436
  0
VERTEX
  8
CopperMid2
  10
12.2375
  20
-3.564952
  0
VERTEX
  8
CopperMid2
  10
12.231696
  20
-3.567973
  0
VERTEX
  8
CopperMid2
  10
12.225652
  20
-3.570477
  0
VERTEX
  8
CopperMid2
  10
12.219411
  20
-3.572444
  0
VERTEX
  8
CopperMid2
  10
12.213024
  20
-3.573861
  0
VERTEX
  8
CopperMid2
  10
12.206537
  20
-3.574715
  0
VERTEX
  8
CopperMid2
  10
12.2
  20
-3.575
  0
VERTEX
  8
CopperMid2
  10
5.55
  20
-3.575
  0
VERTEX
  8
CopperMid2
  10
5.543463
  20
-3.574715
  0
VERTEX
  8
CopperMid2
  10
5.536976
  20
-3.573861
  0
VERTEX
  8
CopperMid2
  10
5.530589
  20
-3.572444
  0
VERTEX
  8
CopperMid2
  10
5.524348
  20
-3.570477
  0
VERTEX
  8
CopperMid2
  10
5.518304
  20
-3.567973
  0
VERTEX
  8
CopperMid2
  10
5.5125
  20
-3.564952
  0
VERTEX
  8
CopperMid2
  10
5.506982
  20
-3.561436
  0
VERTEX
  8
CopperMid2
  10
5.501791
  20
-3.557453
  0
VERTEX
  8
CopperMid2
  10
5.496967
  20
-3.553033
  0
VERTEX
  8
CopperMid2
  10
5.396967
  20
-3.453033
  0
VERTEX
  8
CopperMid2
  10
5.392547
  20
-3.448209
  0
VERTEX
  8
CopperMid2
  10
5.388564
  20
-3.443018
  0
VERTEX
  8
CopperMid2
  10
5.385048
  20
-3.4375
  0
VERTEX
  8
CopperMid2
  10
5.382027
  20
-3.431696
  0
VERTEX
  8
CopperMid2
  10
5.379523
  20
-3.425652
  0
VERTEX
  8
CopperMid2
  10
5.377556
  20
-3.419411
  0
VERTEX
  8
CopperMid2
  10
5.376139
  20
-3.413024
  0
VERTEX
  8
CopperMid2
  10
5.375285
  20
-3.406537
  0
VERTEX
  8
CopperMid2
  10
5.375
  20
-3.4
  0
VERTEX
  8
CopperMid2
  10
5.375
  20
3.15
  0
VERTEX
  8
CopperMid2
  10
5.375285
  20
3.156537
  0
VERTEX
  8
CopperMid2
  10
5.376139
  20
3.163024
  0
VERTEX
  8
CopperMid2
  10
5.377556
  20
3.169411
  0
VERTEX
  8
CopperMid2
  10
5.379523
  20
3.175652
  0
VERTEX
  8
CopperMid2
  10
5.382027
  20
3.181696
  0
VERTEX
  8
CopperMid2
  10
5.385048
  20
3.1875
  0
VERTEX
  8
CopperMid2
  10
5.388564
  20
3.193018
  0
VERTEX
  8
CopperMid2
  10
5.392547
  20
3.198209
  0
VERTEX
  8
CopperMid2
  10
5.396967
  20
3.203033
  0
VERTEX
  8
CopperMid2
  10
5.496967
  20
3.303033
  0
VERTEX
  8
CopperMid2
  10
5.501791
  20
3.307453
  0
VERTEX
  8
CopperMid2
  10
5.506982
  20
3.311436
  0
VERTEX
  8
CopperMid2
  10
5.5125
  20
3.314952
  0
VERTEX
  8
CopperMid2
  10
5.518304
  20
3.317973
  0
VERTEX
  8
CopperMid2
  10
5.524348
  20
3.320477
  0
VERTEX
  8
CopperMid2
  10
5.530589
  20
3.322444
  0
VERTEX
  8
CopperMid2
  10
5.536976
  20
3.323861
  0
VERTEX
  8
CopperMid2
  10
5.543463
  20
3.324715
  0
VERTEX
  8
CopperMid2
  10
5.55
  20
3.325
  0
VERTEX
  8
CopperMid2
  10
11.9
  20
3.325
  0
VERTEX
  8
CopperMid2
  10
11.906537
  20
3.324715
  0
VERTEX
  8
CopperMid2
  10
11.913024
  20
3.323861
  0
VERTEX
  8
CopperMid2
  10
11.919411
  20
3.322444
  0
VERTEX
  8
CopperMid2
  10
11.925652
  20
3.320477
  0
VERTEX
  8
CopperMid2
  10
11.931696
  20
3.317973
  0
VERTEX
  8
CopperMid2
  10
11.9375
  20
3.314952
  0
VERTEX
  8
CopperMid2
  10
11.943018
  20
3.311436
  0
VERTEX
  8
CopperMid2
  10
11.948209
  20
3.307453
  0
VERTEX
  8
CopperMid2
  10
11.953033
  20
3.303033
  0
VERTEX
  8
CopperMid2
  10
12.053033
  20
3.203033
  0
VERTEX
  8
CopperMid2
  10
12.057453
  20
3.198209
  0
VERTEX
  8
CopperMid2
  10
12.061436
  20
3.193018
  0
VERTEX
  8
CopperMid2
  10
12.064952
  20
3.1875
  0
VERTEX
  8
CopperMid2
  10
12.067973
  20
3.181696
  0
VERTEX
  8
CopperMid2
  10
12.070477
  20
3.175652
  0
VERTEX
  8
CopperMid2
  10
12.072444
  20
3.169411
  0
VERTEX
  8
CopperMid2
  10
12.073861
  20
3.163024
  0
VERTEX
  8
CopperMid2
  10
12.074715
  20
3.156537
  0
VERTEX
  8
CopperMid2
  10
12.075
  20
3.15
  0
VERTEX
  8
CopperMid2
  10
12.075
  20
-3.1
  0
VERTEX
  8
CopperMid2
  10
12.074715
  20
-3.106537
  0
VERTEX
  8
CopperMid2
  10
12.073861
  20
-3.113024
  0
VERTEX
  8
CopperMid2
  10
12.072444
  20
-3.119411
  0
VERTEX
  8
CopperMid2
  10
12.070477
  20
-3.125652
  0
VERTEX
  8
CopperMid2
  10
12.067973
  20
-3.131696
  0
VERTEX
  8
CopperMid2
  10
12.064952
  20
-3.1375
  0
VERTEX
  8
CopperMid2
  10
12.061436
  20
-3.143018
  0
VERTEX
  8
CopperMid2
  10
12.057453
  20
-3.148209
  0
VERTEX
  8
CopperMid2
  10
12.053033
  20
-3.153033
  0
VERTEX
  8
CopperMid2
  10
11.953033
  20
-3.253033
  0
VERTEX
  8
CopperMid2
  10
11.948209
  20
-3.257453
  0
VERTEX
  8
CopperMid2
  10
11.943018
  20
-3.261436
  0
VERTEX
  8
CopperMid2
  10
11.9375
  20
-3.264952
  0
VERTEX
  8
CopperMid2
  10
11.931696
  20
-3.267973
  0
VERTEX
  8
CopperMid2
  10
11.925652
  20
-3.270477
  0
VERTEX
  8
CopperMid2
  10
11.919411
  20
-3.272444
  0
VERTEX
  8
CopperMid2
  10
11.913024
  20
-3.273861
  0
VERTEX
  8
CopperMid2
  10
11.906537
  20
-3.274715
  0
VERTEX
  8
CopperMid2
  10
11.9
  20
-3.275
  0
VERTEX
  8
CopperMid2
  10
8.05
  20
-3.275
  0
VERTEX
  8
CopperMid2
  10
5.85
  20
-3.275
  0
VERTEX
  8
CopperMid2
  10
5.843463
  20
-3.274715
  0
VERTEX
  8
CopperMid2
  10
5.836976
  20
-3.273861
  0
VERTEX
  8
CopperMid2
  10
5.830589
  20
-3.272444
  0
VERTEX
  8
CopperMid2
  10
5.824348
  20
-3.270477
  0
VERTEX
  8
CopperMid2
  10
5.818304
  20
-3.267973
  0
VERTEX
  8
CopperMid2
  10
5.8125
  20
-3.264952
  0
VERTEX
  8
CopperMid2
  10
5.806982
  20
-3.261436
  0
VERTEX
  8
CopperMid2
  10
5.801791
  20
-3.257453
  0
VERTEX
  8
CopperMid2
  10
5.796967
  20
-3.253033
  0
VERTEX
  8
CopperMid2
  10
5.696967
  20
-3.153033
  0
VERTEX
  8
CopperMid2
  10
5.692547
  20
-3.148209
  0
VERTEX
  8
CopperMid2
  10
5.688564
  20
-3.143018
  0
VERTEX
  8
CopperMid2
  10
5.685048
  20
-3.1375
  0
VERTEX
  8
CopperMid2
  10
5.682027
  20
-3.131696
  0
VERTEX
  8
CopperMid2
  10
5.679523
  20
-3.125652
  0
VERTEX
  8
CopperMid2
  10
5.677556
  20
-3.119411
  0
VERTEX
  8
CopperMid2
  10
5.676139
  20
-3.113024
  0
VERTEX
  8
CopperMid2
  10
5.675285
  20
-3.106537
  0
VERTEX
  8
CopperMid2
  10
5.675
  20
-3.1
  0
VERTEX
  8
CopperMid2
  10
5.675
  20
2.85
  0
VERTEX
  8
CopperMid2
  10
5.675285
  20
2.856537
  0
VERTEX
  8
CopperMid2
  10
5.676139
  20
2.863024
  0
VERTEX
  8
CopperMid2
  10
5.677556
  20
2.869411
  0
VERTEX
  8
CopperMid2
  10
5.679523
  20
2.875652
  0
VERTEX
  8
CopperMid2
  10
5.682027
  20
2.881696
  0
VERTEX
  8
CopperMid2
  10
5.685048
  20
2.8875
  0
VERTEX
  8
CopperMid2
  10
5.688564
  20
2.893018
  0
VERTEX
  8
CopperMid2
  10
5.692547
  20
2.898209
  0
VERTEX
  8
CopperMid2
  10
5.696967
  20
2.903033
  0
VERTEX
  8
CopperMid2
  10
5.796967
  20
3.003033
  0
VERTEX
  8
CopperMid2
  10
5.801791
  20
3.007453
  0
VERTEX
  8
CopperMid2
  10
5.806982
  20
3.011436
  0
VERTEX
  8
CopperMid2
  10
5.8125
  20
3.014952
  0
VERTEX
  8
CopperMid2
  10
5.818304
  20
3.017973
  0
VERTEX
  8
CopperMid2
  10
5.824348
  20
3.020477
  0
VERTEX
  8
CopperMid2
  10
5.830589
  20
3.022444
  0
VERTEX
  8
CopperMid2
  10
5.836976
  20
3.023861
  0
VERTEX
  8
CopperMid2
  10
5.843463
  20
3.024715
  0
VERTEX
  8
CopperMid2
  10
5.85
  20
3.025
  0
VERTEX
  8
CopperMid2
  10
11.6
  20
3.025
  0
VERTEX
  8
CopperMid2
  10
11.606537
  20
3.024715
  0
VERTEX
  8
CopperMid2
  10
11.613024
  20
3.023861
  0
VERTEX
  8
CopperMid2
  10
11.619411
  20
3.022444
  0
VERTEX
  8
CopperMid2
  10
11.625652
  20
3.020477
  0
VERTEX
  8
CopperMid2
  10
11.631696
  20
3.017973
  0
VERTEX
  8
CopperMid2
  10
11.6375
  20
3.014952
  0
VERTEX
  8
CopperMid2
  10
11.643018
  20
3.011436
  0
VERTEX
  8
CopperMid2
  10
11.648209
  20
3.007453
  0
VERTEX
  8
CopperMid2
  10
11.653033
  20
3.003033
  0
VERTEX
  8
CopperMid2
  10
11.753033
  20
2.903033
  0
VERTEX
  8
CopperMid2
  10
11.757453
  20
2.898209
  0
VERTEX
  8
CopperMid2
  10
11.761436
  20
2.893018
  0
VERTEX
  8
CopperMid2
  10
11.764952
  20
2.8875
  0
VERTEX
  8
CopperMid2
  10
11.767973
  20
2.881696
  0
VERTEX
  8
CopperMid2
  10
11.770477
  20
2.875652
  0
VERTEX
  8
CopperMid2
  10
11.772444
  20
2.869411
  0
VERTEX
  8
CopperMid2
  10
11.773861
  20
2.863024
  0
VERTEX
  8
CopperMid2
  10
11.774715
  20
2.856537
  0
VERTEX
  8
CopperMid2
  10
11.775
  20
2.85
  0
VERTEX
  8
CopperMid2
  10
11.775
  20
-2.8
  0
VERTEX
  8
CopperMid2
  10
11.774715
  20
-2.806537
  0
VERTEX
  8
CopperMid2
  10
11.773861
  20
-2.813024
  0
VERTEX
  8
CopperMid2
  10
11.772444
  20
-2.819411
  0
VERTEX
  8
CopperMid2
  10
11.770477
  20
-2.825652
  0
VERTEX
  8
CopperMid2
  10
11.767973
  20
-2.831696
  0
VERTEX
  8
CopperMid2
  10
11.764952
  20
-2.8375
  0
VERTEX
  8
CopperMid2
  10
11.761436
  20
-2.843018
  0
VERTEX
  8
CopperMid2
  10
11.757453
  20
-2.848209
  0
VERTEX
  8
CopperMid2
  10
11.753033
  20
-2.853033
  0
VERTEX
  8
CopperMid2
  10
11.653033
  20
-2.953033
  0
VERTEX
  8
CopperMid2
  10
11.648209
  20
-2.957453
  0
VERTEX
  8
CopperMid2
  10
11.643018
  20
-2.961436
  0
VERTEX
  8
CopperMid2
  10
11.6375
  20
-2.964952
  0
VERTEX
  8
CopperMid2
  10
11.631696
  20
-2.967973
  0
VERTEX
  8
CopperMid2
  10
11.625652
  20
-2.970477
  0
VERTEX
  8
CopperMid2
  10
11.619411
  20
-2.972444
  0
VERTEX
  8
CopperMid2
  10
11.613024
  20
-2.973861
  0
VERTEX
  8
CopperMid2
  10
11.606537
  20
-2.974715
  0
VERTEX
  8
CopperMid2
  10
11.6
  20
-2.975
  0
VERTEX
  8
CopperMid2
  10
6.15
  20
-2.975
  0
VERTEX
  8
CopperMid2
  10
6.143463
  20
-2.974715
  0
VERTEX
  8
CopperMid2
  10
6.136976
  20
-2.973861
  0
VERTEX
  8
CopperMid2
  10
6.130589
  20
-2.972444
  0
VERTEX
  8
CopperMid2
  10
6.124348
  20
-2.970477
  0
VERTEX
  8
CopperMid2
  10
6.118304
  20
-2.967973
  0
VERTEX
  8
CopperMid2
  10
6.1125
  20
-2.964952
  0
VERTEX
  8
CopperMid2
  10
6.106982
  20
-2.961436
  0
VERTEX
  8
CopperMid2
  10
6.101791
  20
-2.957453
  0
VERTEX
  8
CopperMid2
  10
6.096967
  20
-2.953033
  0
VERTEX
  8
CopperMid2
  10
5.996967
  20
-2.853033
  0
VERTEX
  8
CopperMid2
  10
5.992547
  20
-2.848209
  0
VERTEX
  8
CopperMid2
  10
5.988564
  20
-2.843018
  0
VERTEX
  8
CopperMid2
  10
5.985048
  20
-2.8375
  0
VERTEX
  8
CopperMid2
  10
5.982027
  20
-2.831696
  0
VERTEX
  8
CopperMid2
  10
5.979523
  20
-2.825652
  0
VERTEX
  8
CopperMid2
  10
5.977556
  20
-2.819411
  0
VERTEX
  8
CopperMid2
  10
5.976139
  20
-2.813024
  0
VERTEX
  8
CopperMid2
  10
5.975285
  20
-2.806537
  0
VERTEX
  8
CopperMid2
  10
5.975
  20
-2.8
  0
VERTEX
  8
CopperMid2
  10
5.975
  20
2.55
  0
VERTEX
  8
CopperMid2
  10
5.975285
  20
2.556537
  0
VERTEX
  8
CopperMid2
  10
5.976139
  20
2.563024
  0
VERTEX
  8
CopperMid2
  10
5.977556
  20
2.569411
  0
VERTEX
  8
CopperMid2
  10
5.979523
  20
2.575652
  0
VERTEX
  8
CopperMid2
  10
5.982027
  20
2.581696
  0
VERTEX
  8
CopperMid2
  10
5.985048
  20
2.5875
  0
VERTEX
  8
CopperMid2
  10
5.988564
  20
2.593018
  0
VERTEX
  8
CopperMid2
  10
5.992547
  20
2.598209
  0
VERTEX
  8
CopperMid2
  10
5.996967
  20
2.603033
  0
VERTEX
  8
CopperMid2
  10
6.096967
  20
2.703033
  0
VERTEX
  8
CopperMid2
  10
6.101791
  20
2.707453
  0
VERTEX
  8
CopperMid2
  10
6.106982
  20
2.711436
  0
VERTEX
  8
CopperMid2
  10
6.1125
  20
2.714952
  0
VERTEX
  8
CopperMid2
  10
6.118304
  20
2.717973
  0
VERTEX
  8
CopperMid2
  10
6.124348
  20
2.720477
  0
VERTEX
  8
CopperMid2
  10
6.130589
  20
2.722444
  0
VERTEX
  8
CopperMid2
  10
6.136976
  20
2.723861
  0
VERTEX
  8
CopperMid2
  10
6.143463
  20
2.724715
  0
VERTEX
  8
CopperMid2
  10
6.15
  20
2.725
  0
VERTEX
  8
CopperMid2
  10
11.3
  20
2.725
  0
VERTEX
  8
CopperMid2
  10
11.306537
  20
2.724715
  0
VERTEX
  8
CopperMid2
  10
11.313024
  20
2.723861
  0
VERTEX
  8
CopperMid2
  10
11.319411
  20
2.722444
  0
VERTEX
  8
CopperMid2
  10
11.325652
  20
2.720477
  0
VERTEX
  8
CopperMid2
  10
11.331696
  20
2.717973
  0
VERTEX
  8
CopperMid2
  10
11.3375
  20
2.714952
  0
VERTEX
  8
CopperMid2
  10
11.343018
  20
2.711436
  0
VERTEX
  8
CopperMid2
  10
11.348209
  20
2.707453
  0
VERTEX
  8
CopperMid2
  10
11.353033
  20
2.703033
  0
VERTEX
  8
CopperMid2
  10
11.453033
  20
2.603033
  0
VERTEX
  8
CopperMid2
  10
11.457453
  20
2.598209
  0
VERTEX
  8
CopperMid2
  10
11.461436
  20
2.593018
  0
VERTEX
  8
CopperMid2
  10
11.464952
  20
2.5875
  0
VERTEX
  8
CopperMid2
  10
11.467973
  20
2.581696
  0
VERTEX
  8
CopperMid2
  10
11.470477
  20
2.575652
  0
VERTEX
  8
CopperMid2
  10
11.472444
  20
2.569411
  0
VERTEX
  8
CopperMid2
  10
11.473861
  20
2.563024
  0
VERTEX
  8
CopperMid2
  10
11.474715
  20
2.556537
  0
VERTEX
  8
CopperMid2
  10
11.475
  20
2.55
  0
VERTEX
  8
CopperMid2
  10
11.475
  20
-2.5
  0
VERTEX
  8
CopperMid2
  10
11.474715
  20
-2.506537
  0
VERTEX
  8
CopperMid2
  10
11.473861
  20
-2.513024
  0
VERTEX
  8
CopperMid2
  10
11.472444
  20
-2.519411
  0
VERTEX
  8
CopperMid2
  10
11.470477
  20
-2.525652
  0
VERTEX
  8
CopperMid2
  10
11.467973
  20
-2.531696
  0
VERTEX
  8
CopperMid2
  10
11.464952
  20
-2.5375
  0
VERTEX
  8
CopperMid2
  10
11.461436
  20
-2.543018
  0
VERTEX
  8
CopperMid2
  10
11.457453
  20
-2.548209
  0
VERTEX
  8
CopperMid2
  10
11.453033
  20
-2.553033
  0
VERTEX
  8
CopperMid2
  10
11.353033
  20
-2.653033
  0
VERTEX
  8
CopperMid2
  10
11.348209
  20
-2.657453
  0
VERTEX
  8
CopperMid2
  10
11.343018
  20
-2.661436
  0
VERTEX
  8
CopperMid2
  10
11.3375
  20
-2.664952
  0
VERTEX
  8
CopperMid2
  10
11.331696
  20
-2.667973
  0
VERTEX
  8
CopperMid2
  10
11.325652
  20
-2.670477
  0
VERTEX
  8
CopperMid2
  10
11.319411
  20
-2.672444
  0
VERTEX
  8
CopperMid2
  10
11.313024
  20
-2.673861
  0
VERTEX
  8
CopperMid2
  10
11.306537
  20
-2.674715
  0
VERTEX
  8
CopperMid2
  10
11.3
  20
-2.675
  0
VERTEX
  8
CopperMid2
  10
6.45
  20
-2.675
  0
VERTEX
  8
CopperMid2
  10
6.443463
  20
-2.674715
  0
VERTEX
  8
CopperMid2
  10
6.436976
  20
-2.673861
  0
VERTEX
  8
CopperMid2
  10
6.430589
  20
-2.672444
  0
VERTEX
  8
CopperMid2
  10
6.424348
  20
-2.670477
  0
VERTEX
  8
CopperMid2
  10
6.418304
  20
-2.667973
  0
VERTEX
  8
CopperMid2
  10
6.4125
  20
-2.664952
  0
VERTEX
  8
CopperMid2
  10
6.406982
  20
-2.661436
  0
VERTEX
  8
CopperMid2
  10
6.401791
  20
-2.657453
  0
VERTEX
  8
CopperMid2
  10
6.396967
  20
-2.653033
  0
VERTEX
  8
CopperMid2
  10
6.296967
  20
-2.553033
  0
VERTEX
  8
CopperMid2
  10
6.292547
  20
-2.548209
  0
VERTEX
  8
CopperMid2
  10
6.288564
  20
-2.543018
  0
VERTEX
  8
CopperMid2
  10
6.285048
  20
-2.5375
  0
VERTEX
  8
CopperMid2
  10
6.282027
  20
-2.531696
  0
VERTEX
  8
CopperMid2
  10
6.279523
  20
-2.525652
  0
VERTEX
  8
CopperMid2
  10
6.277556
  20
-2.519411
  0
VERTEX
  8
CopperMid2
  10
6.276139
  20
-2.513024
  0
VERTEX
  8
CopperMid2
  10
6.275285
  20
-2.506537
  0
VERTEX
  8
CopperMid2
  10
6.275
  20
-2.5
  0
VERTEX
  8
CopperMid2
  10
6.275
  20
2.25
  0
VERTEX
  8
CopperMid2
  10
6.275285
  20
2.256537
  0
VERTEX
  8
CopperMid2
  10
6.276139
  20
2.263024
  0
VERTEX
  8
CopperMid2
  10
6.277556
  20
2.269411
  0
VERTEX
  8
CopperMid2
  10
6.279523
  20
2.275652
  0
VERTEX
  8
CopperMid2
  10
6.282027
  20
2.281696
  0
VERTEX
  8
CopperMid2
  10
6.285048
  20
2.2875
  0
VERTEX
  8
CopperMid2
  10
6.288564
  20
2.293018
  0
VERTEX
  8
CopperMid2
  10
6.292547
  20
2.298209
  0
VERTEX
  8
CopperMid2
  10
6.296967
  20
2.303033
  0
VERTEX
  8
CopperMid2
  10
6.396967
  20
2.403033
  0
VERTEX
  8
CopperMid2
  10
6.401791
  20
2.407453
  0
VERTEX
  8
CopperMid2
  10
6.406982
  20
2.411436
  0
VERTEX
  8
CopperMid2
  10
6.4125
  20
2.414952
  0
VERTEX
  8
CopperMid2
  10
6.418304
  20
2.417973
  0
VERTEX
  8
CopperMid2
  10
6.424348
  20
2.420477
  0
VERTEX
  8
CopperMid2
  10
6.430589
  20
2.422444
  0
VERTEX
  8
CopperMid2
  10
6.436976
  20
2.423861
  0
VERTEX
  8
CopperMid2
  10
6.443463
  20
2.424715
  0
VERTEX
  8
CopperMid2
  10
6.45
  20
2.425
  0
VERTEX
  8
CopperMid2
  10
11
  20
2.425
  0
VERTEX
  8
CopperMid2
  10
11.006537
  20
2.424715
  0
VERTEX
  8
CopperMid2
  10
11.013024
  20
2.423861
  0
VERTEX
  8
CopperMid2
  10
11.019411
  20
2.422444
  0
VERTEX
  8
CopperMid2
  10
11.025652
  20
2.420477
  0
VERTEX
  8
CopperMid2
  10
11.031696
  20
2.417973
  0
VERTEX
  8
CopperMid2
  10
11.0375
  20
2.414952
  0
VERTEX
  8
CopperMid2
  10
11.043018
  20
2.411436
  0
VERTEX
  8
CopperMid2
  10
11.048209
  20
2.407453
  0
VERTEX
  8
CopperMid2
  10
11.053033
  20
2.403033
  0
VERTEX
  8
CopperMid2
  10
11.153033
  20
2.303033
  0
VERTEX
  8
CopperMid2
  10
11.157453
  20
2.298209
  0
VERTEX
  8
CopperMid2
  10
11.161436
  20
2.293018
  0
VERTEX
  8
CopperMid2
  10
11.164952
  20
2.2875
  0
VERTEX
  8
CopperMid2
  10
11.167973
  20
2.281696
  0
VERTEX
  8
CopperMid2
  10
11.170477
  20
2.275652
  0
VERTEX
  8
CopperMid2
  10
11.172444
  20
2.269411
  0
VERTEX
  8
CopperMid2
  10
11.173861
  20
2.263024
  0
VERTEX
  8
CopperMid2
  10
11.174715
  20
2.256537
  0
VERTEX
  8
CopperMid2
  10
11.175
  20
2.25
  0
VERTEX
  8
CopperMid2
  10
11.175
  20
-1.2
  0
VERTEX
  8
CopperMid2
  10
11.175
  20
-1.6
  0
VERTEX
  8
CopperMid2
  10
11.174789
  20
-1.605618
  0
VERTEX
  8
CopperMid2
  10
11.174158
  20
-1.611204
  0
VERTEX
  8
CopperMid2
  10
11.173111
  20
-1.616727
  0
VERTEX
  8
CopperMid2
  10
11.171653
  20
-1.622156
  0
VERTEX
  8
CopperMid2
  10
11.169792
  20
-1.62746
  0
VERTEX
  8
CopperMid2
  10
11.167539
  20
-1.632611
  0
VERTEX
  8
CopperMid2
  10
11.164907
  20
-1.637578
  0
VERTEX
  8
CopperMid2
  10
11.16191
  20
-1.642334
  0
VERTEX
  8
CopperMid2
  10
11.158565
  20
-1.646852
  0
VERTEX
  8
CopperMid2
  10
10.822146
  20
-2.067376
  0
VERTEX
  8
CopperMid2
  10
10.825
  20
-2.1
  0
VERTEX
  8
CopperMid2
  10
10.821582
  20
-2.139071
  0
VERTEX
  8
CopperMid2
  10
10.811431
  20
-2.176955
  0
VERTEX
  8
CopperMid2
  10
10.794856
  20
-2.2125
  0
VERTEX
  8
CopperMid2
  10
10.77236
  20
-2.244627
  0
VERTEX
  8
CopperMid2
  10
10.744627
  20
-2.27236
  0
VERTEX
  8
CopperMid2
  10
10.7125
  20
-2.294856
  0
VERTEX
  8
CopperMid2
  10
10.676955
  20
-2.311431
  0
VERTEX
  8
CopperMid2
  10
10.639071
  20
-2.321582
  0
VERTEX
  8
CopperMid2
  10
10.6
  20
-2.325
  0
VERTEX
  8
CopperMid2
  10
10.560929
  20
-2.321582
  0
VERTEX
  8
CopperMid2
  10
10.523045
  20
-2.311431
  0
VERTEX
  8
CopperMid2
  10
10.4875
  20
-2.294856
  0
VERTEX
  8
CopperMid2
  10
10.455373
  20
-2.27236
  0
VERTEX
  8
CopperMid2
  10
10.42764
  20
-2.244627
  0
VERTEX
  8
CopperMid2
  10
10.405144
  20
-2.2125
  0
VERTEX
  8
CopperMid2
  10
10.388569
  20
-2.176955
  0
VERTEX
  8
CopperMid2
  10
10.378418
  20
-2.139071
  0
VERTEX
  8
CopperMid2
  10
10.375
  20
-2.1
  0
VERTEX
  8
CopperMid2
  10
10.378418
  20
-2.060929
  0
VERTEX
  8
CopperMid2
  10
10.388569
  20
-2.023045
  0
VERTEX
  8
CopperMid2
  10
10.405144
  20
-1.9875
  0
VERTEX
  8
CopperMid2
  10
10.42764
  20
-1.955373
  0
VERTEX
  8
CopperMid2
  10
10.455373
  20
-1.92764
  0
VERTEX
  8
CopperMid2
  10
10.4875
  20
-1.905144
  0
VERTEX
  8
CopperMid2
  10
10.523045
  20
-1.888569
  0
VERTEX
  8
CopperMid2
  10
10.560929
  20
-1.878418
  0
VERTEX
  8
CopperMid2
  10
10.6
  20
-1.875
  0
VERTEX
  8
CopperMid2
  10
10.639071
  20
-1.878418
  0
VERTEX
  8
CopperMid2
  10
10.676955
  20
-1.888569
  0
VERTEX
  8
CopperMid2
  10
10.7125
  20
-1.905144
  0
VERTEX
  8
CopperMid2
  10
10.742841
  20
-1.92639
  0
VERTEX
  8
CopperMid2
  10
11.025
  20
-1.573691
  0
VERTEX
  8
CopperMid2
  10
11.025
  20
-1.2
  0
VERTEX
  8
CopperMid2
  10
11.025
  20
2.218934
  0
VERTEX
  8
CopperMid2
  10
10.968934
  20
2.275
  0
VERTEX
  8
CopperMid2
  10
6.481066
  20
2.275
  0
VERTEX
  8
CopperMid2
  10
6.425
  20
2.218934
  0
VERTEX
  8
CopperMid2
  10
6.425
  20
-2.468934
  0
VERTEX
  8
CopperMid2
  10
6.481066
  20
-2.525
  0
VERTEX
  8
CopperMid2
  10
11.268934
  20
-2.525
  0
VERTEX
  8
CopperMid2
  10
11.325
  20
-2.468934
  0
VERTEX
  8
CopperMid2
  10
11.325
  20
2.518934
  0
VERTEX
  8
CopperMid2
  10
11.268934
  20
2.575
  0
VERTEX
  8
CopperMid2
  10
6.181066
  20
2.575
  0
VERTEX
  8
CopperMid2
  10
6.125
  20
2.518934
  0
VERTEX
  8
CopperMid2
  10
6.125
  20
-2.768934
  0
VERTEX
  8
CopperMid2
  10
6.181066
  20
-2.825
  0
VERTEX
  8
CopperMid2
  10
11.568934
  20
-2.825
  0
VERTEX
  8
CopperMid2
  10
11.625
  20
-2.768934
  0
VERTEX
  8
CopperMid2
  10
11.625
  20
2.818934
  0
VERTEX
  8
CopperMid2
  10
11.568934
  20
2.875
  0
VERTEX
  8
CopperMid2
  10
5.881066
  20
2.875
  0
VERTEX
  8
CopperMid2
  10
5.825
  20
2.818934
  0
VERTEX
  8
CopperMid2
  10
5.825
  20
-3.068934
  0
VERTEX
  8
CopperMid2
  10
5.881066
  20
-3.125
  0
VERTEX
  8
CopperMid2
  10
8.05
  20
-3.125
  0
VERTEX
  8
CopperMid2
  10
11.868934
  20
-3.125
  0
VERTEX
  8
CopperMid2
  10
11.925
  20
-3.068934
  0
VERTEX
  8
CopperMid2
  10
11.925
  20
3.118934
  0
VERTEX
  8
CopperMid2
  10
11.868934
  20
3.175
  0
VERTEX
  8
CopperMid2
  10
5.581066
  20
3.175
  0
VERTEX
  8
CopperMid2
  10
5.525
  20
3.118934
  0
VERTEX
  8
CopperMid2
  10
5.525
  20
-3.368934
  0
VERTEX
  8
CopperMid2
  10
5.581066
  20
-3.425
  0
VERTEX
  8
CopperMid2
  10
12.168934
  20
-3.425
  0
VERTEX
  8
CopperMid2
  10
12.225
  20
-3.368934
  0
VERTEX
  8
CopperMid2
  10
12.225
  20
3.418934
  0
VERTEX
  8
CopperMid2
  10
12.168934
  20
3.475
  0
VERTEX
  8
CopperMid2
  10
5.281066
  20
3.475
  0
VERTEX
  8
CopperMid2
  10
5.225
  20
3.418934
  0
VERTEX
  8
CopperMid2
  10
5.225
  20
-3.668934
  0
VERTEX
  8
CopperMid2
  10
5.281066
  20
-3.725
  0
VERTEX
  8
CopperMid2
  10
12.468934
  20
-3.725
  0
VERTEX
  8
CopperMid2
  10
12.525
  20
-3.668934
  0
VERTEX
  8
CopperMid2
  10
12.525
  20
3.718934
  0
VERTEX
  8
CopperMid2
  10
12.468934
  20
3.775
  0
VERTEX
  8
CopperMid2
  10
10.4
  20
3.775
  0
VERTEX
  8
CopperMid2
  10
4.981066
  20
3.775
  0
VERTEX
  8
CopperMid2
  10
4.925
  20
3.718934
  0
VERTEX
  8
CopperMid2
  10
4.925
  20
-3.918934
  0
VERTEX
  8
CopperMid2
  10
5.031066
  20
-4.025
  0
VERTEX
  8
CopperMid2
  10
12.718934
  20
-4.025
  0
VERTEX
  8
CopperMid2
  10
12.825
  20
-3.918934
  0
VERTEX
  8
CopperMid2
  10
12.825
  20
3.968934
  0
VERTEX
  8
CopperMid2
  10
12.718934
  20
4.075
  0
VERTEX
  8
CopperMid2
  10
12.7
  20
4.075
  0
VERTEX
  8
CopperMid2
  10
4.881066
  20
4.075
  0
VERTEX
  8
CopperMid2
  10
4.625
  20
3.818934
  0
VERTEX
  8
CopperMid2
  10
4.625
  20
-4.078934
  0
VERTEX
  8
CopperMid2
  10
4.871066
  20
-4.325
  0
VERTEX
  8
CopperMid2
  10
4.95
  20
-4.325
  0
VERTEX
  8
CopperMid2
  10
13.018934
  20
-4.325
  0
VERTEX
  8
CopperMid2
  10
13.125
  20
-4.218934
  0
VERTEX
  8
CopperMid2
  10
13.125
  20
4.218934
  0
VERTEX
  8
CopperMid2
  10
12.968934
  20
4.375
  0
VERTEX
  8
CopperMid2
  10
4.631066
  20
4.375
  0
VERTEX
  8
CopperMid2
  10
4.325
  20
4.068934
  0
VERTEX
  8
CopperMid2
  10
4.325
  20
-3.9
  0
VERTEX
  8
CopperMid2
  10
4.325
  20
-4.242574
  0
VERTEX
  8
CopperMid2
  10
4.339832
  20
-4.316735
  0
VERTEX
  8
CopperMid2
  10
4.359071
  20
-4.318418
  0
VERTEX
  8
CopperMid2
  10
4.396955
  20
-4.328569
  0
VERTEX
  8
CopperMid2
  10
4.4325
  20
-4.345144
  0
VERTEX
  8
CopperMid2
  10
4.464627
  20
-4.36764
  0
VERTEX
  8
CopperMid2
  10
4.49236
  20
-4.395373
  0
VERTEX
  8
CopperMid2
  10
4.514856
  20
-4.4275
  0
VERTEX
  8
CopperMid2
  10
4.531431
  20
-4.463045
  0
VERTEX
  8
CopperMid2
  10
4.541582
  20
-4.500929
  0
VERTEX
  8
CopperMid2
  10
4.545
  20
-4.54
  0
VERTEX
  8
CopperMid2
  10
4.541582
  20
-4.579071
  0
VERTEX
  8
CopperMid2
  10
4.531431
  20
-4.616955
  0
VERTEX
  8
CopperMid2
  10
4.514856
  20
-4.6525
  0
VERTEX
  8
CopperMid2
  10
4.49236
  20
-4.684627
  0
VERTEX
  8
CopperMid2
  10
4.464627
  20
-4.71236
  0
VERTEX
  8
CopperMid2
  10
4.4325
  20
-4.734856
  0
VERTEX
  8
CopperMid2
  10
4.396955
  20
-4.751431
  0
VERTEX
  8
CopperMid2
  10
4.359071
  20
-4.761582
  0
VERTEX
  8
CopperMid2
  10
4.32
  20
-4.765
  0
VERTEX
  8
CopperMid2
  10
4.280929
  20
-4.761582
  0
VERTEX
  8
CopperMid2
  10
4.243045
  20
-4.751431
  0
VERTEX
  8
CopperMid2
  10
4.2075
  20
-4.734856
  0
VERTEX
  8
CopperMid2
  10
4.175373
  20
-4.71236
  0
VERTEX
  8
CopperMid2
  10
4.14764
  20
-4.684627
  0
VERTEX
  8
CopperMid2
  10
4.125144
  20
-4.6525
  0
VERTEX
  8
CopperMid2
  10
4.108569
  20
-4.616955
  0
VERTEX
  8
CopperMid2
  10
4.098418
  20
-4.579071
  0
VERTEX
  8
CopperMid2
  10
4.095
  20
-4.54
  0
VERTEX
  8
CopperMid2
  10
4.098418
  20
-4.500929
  0
VERTEX
  8
CopperMid2
  10
4.108569
  20
-4.463045
  0
VERTEX
  8
CopperMid2
  10
4.125144
  20
-4.4275
  0
VERTEX
  8
CopperMid2
  10
4.14764
  20
-4.395373
  0
VERTEX
  8
CopperMid2
  10
4.175373
  20
-4.36764
  0
VERTEX
  8
CopperMid2
  10
4.19438
  20
-4.354331
  0
VERTEX
  8
CopperMid2
  10
4.176456
  20
-4.264709
  0
VERTEX
  8
CopperMid2
  10
4.176152
  20
-4.263092
  0
VERTEX
  8
CopperMid2
  10
4.175882
  20
-4.26147
  0
VERTEX
  8
CopperMid2
  10
4.175648
  20
-4.259841
  0
VERTEX
  8
CopperMid2
  10
4.175451
  20
-4.258208
  0
VERTEX
  8
CopperMid2
  10
4.175288
  20
-4.256571
  0
VERTEX
  8
CopperMid2
  10
4.175162
  20
-4.254931
  0
VERTEX
  8
CopperMid2
  10
4.175072
  20
-4.253289
  0
VERTEX
  8
CopperMid2
  10
4.175018
  20
-4.251645
  0
VERTEX
  8
CopperMid2
  10
4.175
  20
-4.25
  0
VERTEX
  8
CopperMid2
  10
4.175
  20
-3.9
  0
VERTEX
  8
CopperMid2
  10
4.175
  20
4.1
  0
VERTEX
  8
CopperMid2
  10
4.175285
  20
4.106537
  0
VERTEX
  8
CopperMid2
  10
4.176139
  20
4.113024
  0
VERTEX
  8
CopperMid2
  10
4.177556
  20
4.119411
  0
VERTEX
  8
CopperMid2
  10
4.179523
  20
4.125652
  0
VERTEX
  8
CopperMid2
  10
4.182027
  20
4.131696
  0
VERTEX
  8
CopperMid2
  10
4.185048
  20
4.1375
  0
VERTEX
  8
CopperMid2
  10
4.188564
  20
4.143018
  0
VERTEX
  8
CopperMid2
  10
4.192547
  20
4.148209
  0
VERTEX
  8
CopperMid2
  10
4.196967
  20
4.153033
  0
VERTEX
  8
CopperMid2
  10
4.546967
  20
4.503033
  0
VERTEX
  8
CopperMid2
  10
4.551791
  20
4.507453
  0
VERTEX
  8
CopperMid2
  10
4.556982
  20
4.511436
  0
VERTEX
  8
CopperMid2
  10
4.5625
  20
4.514952
  0
VERTEX
  8
CopperMid2
  10
4.568304
  20
4.517973
  0
VERTEX
  8
CopperMid2
  10
4.574348
  20
4.520477
  0
VERTEX
  8
CopperMid2
  10
4.580589
  20
4.522444
  0
VERTEX
  8
CopperMid2
  10
4.586976
  20
4.523861
  0
VERTEX
  8
CopperMid2
  10
4.593463
  20
4.524715
  0
VERTEX
  8
CopperMid2
  10
4.6
  20
4.525
  0
VERTEX
  8
CopperMid2
  10
13
  20
4.525
  0
SEQEND
  0
CIRCLE
  8
CopperMid2
  10
10.6
  20
-0.55
  40
0.225
  0
CIRCLE
  8
CopperMid2
  10
7.2
  20
1.9
  40
0.225
  0
POLYLINE
  8
CopperTop
  70
1
  66
1
  0
VERTEX
  8
CopperTop
  10
13.006537
  20
4.524715
  0
VERTEX
  8
CopperTop
  10
13.013024
  20
4.523861
  0
VERTEX
  8
CopperTop
  10
13.019411
  20
4.522444
  0
VERTEX
  8
CopperTop
  10
13.025652
  20
4.520477
  0
VERTEX
  8
CopperTop
  10
13.031696
  20
4.517973
  0
VERTEX
  8
CopperTop
  10
13.0375
  20
4.514952
  0
VERTEX
  8
CopperTop
  10
13.043018
  20
4.511436
  0
VERTEX
  8
CopperTop
  10
13.048209
  20
4.507453
  0
VERTEX
  8
CopperTop
  10
13.053033
  20
4.503033
  0
VERTEX
  8
CopperTop
  10
13.253033
  20
4.303033
  0
VERTEX
  8
CopperTop
  10
13.257453
  20
4.298209
  0
VERTEX
  8
CopperTop
  10
13.261436
  20
4.293018
  0
VERTEX
  8
CopperTop
  10
13.264952
  20
4.2875
  0
VERTEX
  8
CopperTop
  10
13.267973
  20
4.281696
  0
VERTEX
  8
CopperTop
  10
13.270477
  20
4.275652
  0
VERTEX
  8
CopperTop
  10
13.272444
  20
4.269411
  0
VERTEX
  8
CopperTop
  10
13.273861
  20
4.263024
  0
VERTEX
  8
CopperTop
  10
13.274715
  20
4.256537
  0
VERTEX
  8
CopperTop
  10
13.275
  20
4.25
  0
VERTEX
  8
CopperTop
  10
13.275
  20
0.55
  0
VERTEX
  8
CopperTop
  10
13.273861
  20
0.536976
  0
VERTEX
  8
CopperTop
  10
13.270477
  20
0.524348
  0
VERTEX
  8
CopperTop
  10
13.264952
  20
0.5125
  0
VERTEX
  8
CopperTop
  10
13.257453
  20
0.501791
  0
VERTEX
  8
CopperTop
  10
13.248209
  20
0.492547
  0
VERTEX
  8
CopperTop
  10
13.2375
  20
0.485048
  0
VERTEX
  8
CopperTop
  10
13.225652
  20
0.479523
  0
VERTEX
  8
CopperTop
  10
13.213024
  20
0.476139
  0
VERTEX
  8
CopperTop
  10
13.2
  20
0.475
  0
VERTEX
  8
CopperTop
  10
11.031066
  20
0.475
  0
VERTEX
  8
CopperTop
  10
10.125
  20
-0.431066
  0
VERTEX
  8
CopperTop
  10
10.125
  20
-1.338934
  0
VERTEX
  8
CopperTop
  10
10.211066
  20
-1.425
  0
VERTEX
  8
CopperTop
  10
12.03
  20
-1.425
  0
VERTEX
  8
CopperTop
  10
12.036537
  20
-1.425285
  0
VERTEX
  8
CopperTop
  10
12.043024
  20
-1.426139
  0
VERTEX
  8
CopperTop
  10
12.049411
  20
-1.427556
  0
VERTEX
  8
CopperTop
  10
12.055652
  20
-1.429523
  0
VERTEX
  8
CopperTop
  10
12.061696
  20
-1.432027
  0
VERTEX
  8
CopperTop
  10
12.0675
  20
-1.435048
  0
VERTEX
  8
CopperTop
  10
12.073018
  20
-1.438564
  0
VERTEX
  8
CopperTop
  10
12.078209
  20
-1.442547
  0
VERTEX
  8
CopperTop
  10
12.083033
  20
-1.446967
  0
VERTEX
  8
CopperTop
  10
12.353033
  20
-1.716967
  0
VERTEX
  8
CopperTop
  10
12.355139
  20
-1.719477
  0
VERTEX
  8
CopperTop
  10
12.357453
  20
-1.721791
  0
VERTEX
  8
CopperTop
  10
12.359332
  20
-1.724475
  0
VERTEX
  8
CopperTop
  10
12.361436
  20
-1.726982
  0
VERTEX
  8
CopperTop
  10
12.363071
  20
-1.729814
  0
VERTEX
  8
CopperTop
  10
12.364952
  20
-1.7325
  0
VERTEX
  8
CopperTop
  10
12.366338
  20
-1.735472
  0
VERTEX
  8
CopperTop
  10
12.367973
  20
-1.738304
  0
VERTEX
  8
CopperTop
  10
12.369091
  20
-1.741375
  0
VERTEX
  8
CopperTop
  10
12.370477
  20
-1.744348
  0
VERTEX
  8
CopperTop
  10
12.371327
  20
-1.747519
  0
VERTEX
  8
CopperTop
  10
12.372444
  20
-1.750589
  0
VERTEX
  8
CopperTop
  10
12.373011
  20
-1.753806
  0
VERTEX
  8
CopperTop
  10
12.373861
  20
-1.756976
  0
VERTEX
  8
CopperTop
  10
12.374146
  20
-1.76024
  0
VERTEX
  8
CopperTop
  10
12.374715
  20
-1.763463
  0
VERTEX
  8
CopperTop
  10
12.374715
  20
-1.766741
  0
VERTEX
  8
CopperTop
  10
12.375
  20
-1.77
  0
VERTEX
  8
CopperTop
  10
12.375
  20
-3.65
  0
VERTEX
  8
CopperTop
  10
12.374715
  20
-3.656537
  0
VERTEX
  8
CopperTop
  10
12.373861
  20
-3.663024
  0
VERTEX
  8
CopperTop
  10
12.372444
  20
-3.669411
  0
VERTEX
  8
CopperTop
  10
12.370477
  20
-3.675652
  0
VERTEX
  8
CopperTop
  10
12.367973
  20
-3.681696
  0
VERTEX
  8
CopperTop
  10
12.364952
  20
-3.6875
  0
VERTEX
  8
CopperTop
  10
12.361436
  20
-3.693018
  0
VERTEX
  8
CopperTop
  10
12.357453
  20
-3.698209
  0
VERTEX
  8
CopperTop
  10
12.353033
  20
-3.703033
  0
VERTEX
  8
CopperTop
  10
11.903033
  20
-4.153033
  0
VERTEX
  8
CopperTop
  10
11.898209
  20
-4.157453
  0
VERTEX
  8
CopperTop
  10
11.893018
  20
-4.161436
  0
VERTEX
  8
CopperTop
  10
11.8875
  20
-4.164952
  0
VERTEX
  8
CopperTop
  10
11.881696
  20
-4.167973
  0
VERTEX
  8
CopperTop
  10
11.875652
  20
-4.170477
  0
VERTEX
  8
CopperTop
  10
11.869411
  20
-4.172444
  0
VERTEX
  8
CopperTop
  10
11.863024
  20
-4.173861
  0
VERTEX
  8
CopperTop
  10
11.856537
  20
-4.174715
  0
VERTEX
  8
CopperTop
  10
11.85
  20
-4.175
  0
VERTEX
  8
CopperTop
  10
9.3
  20
-4.175
  0
VERTEX
  8
CopperTop
  10
9.3
  20
-4.2
  0
VERTEX
  8
CopperTop
  10
8.85
  20
-4.2
  0
VERTEX
  8
CopperTop
  10
8.85
  20
-4.175
  0
VERTEX
  8
CopperTop
  10
8.35
  20
-4.175
  0
VERTEX
  8
CopperTop
  10
8.35
  20
-4.2
  0
VERTEX
  8
CopperTop
  10
7.9
  20
-4.2
  0
VERTEX
  8
CopperTop
  10
7.9
  20
-4.175
  0
VERTEX
  8
CopperTop
  10
5.5
  20
-4.175
  0
VERTEX
  8
CopperTop
  10
5.493463
  20
-4.174715
  0
VERTEX
  8
CopperTop
  10
5.486976
  20
-4.173861
  0
VERTEX
  8
CopperTop
  10
5.480589
  20
-4.172444
  0
VERTEX
  8
CopperTop
  10
5.474348
  20
-4.170477
  0
VERTEX
  8
CopperTop
  10
5.468304
  20
-4.167973
  0
VERTEX
  8
CopperTop
  10
5.4625
  20
-4.164952
  0
VERTEX
  8
CopperTop
  10
5.456982
  20
-4.161436
  0
VERTEX
  8
CopperTop
  10
5.451791
  20
-4.157453
  0
VERTEX
  8
CopperTop
  10
5.446967
  20
-4.153033
  0
VERTEX
  8
CopperTop
  10
5.086967
  20
-3.793033
  0
VERTEX
  8
CopperTop
  10
5.082547
  20
-3.788209
  0
VERTEX
  8
CopperTop
  10
5.078564
  20
-3.783018
  0
VERTEX
  8
CopperTop
  10
5.075048
  20
-3.7775
  0
VERTEX
  8
CopperTop
  10
5.072027
  20
-3.771696
  0
VERTEX
  8
CopperTop
  10
5.069523
  20
-3.765652
  0
VERTEX
  8
CopperTop
  10
5.067556
  20
-3.759411
  0
VERTEX
  8
CopperTop
  10
5.066139
  20
-3.753024
  0
VERTEX
  8
CopperTop
  10
5.065285
  20
-3.746537
  0
VERTEX
  8
CopperTop
  10
5.065
  20
-3.74
  0
VERTEX
  8
CopperTop
  10
5.065
  20
3.48
  0
VERTEX
  8
CopperTop
  10
5.065285
  20
3.486537
  0
VERTEX
  8
CopperTop
  10
5.066139
  20
3.493024
  0
VERTEX
  8
CopperTop
  10
5.067556
  20
3.499411
  0
VERTEX
  8
CopperTop
  10
5.069523
  20
3.505652
  0
VERTEX
  8
CopperTop
  10
5.072027
  20
3.511696
  0
VERTEX
  8
CopperTop
  10
5.075048
  20
3.5175
  0
VERTEX
  8
CopperTop
  10
5.078564
  20
3.523018
  0
VERTEX
  8
CopperTop
  10
5.082547
  20
3.528209
  0
VERTEX
  8
CopperTop
  10
5.086967
  20
3.533033
  0
VERTEX
  8
CopperTop
  10
5.756967
  20
4.203033
  0
VERTEX
  8
CopperTop
  10
5.761791
  20
4.207453
  0
VERTEX
  8
CopperTop
  10
5.766982
  20
4.211436
  0
VERTEX
  8
CopperTop
  10
5.7725
  20
4.214952
  0
VERTEX
  8
CopperTop
  10
5.778304
  20
4.217973
  0
VERTEX
  8
CopperTop
  10
5.784348
  20
4.220477
  0
VERTEX
  8
CopperTop
  10
5.790589
  20
4.222444
  0
VERTEX
  8
CopperTop
  10
5.796976
  20
4.223861
  0
VERTEX
  8
CopperTop
  10
5.803463
  20
4.224715
  0
VERTEX
  8
CopperTop
  10
5.81
  20
4.225
  0
VERTEX
  8
CopperTop
  10
12.75
  20
4.225
  0
VERTEX
  8
CopperTop
  10
12.756537
  20
4.224715
  0
VERTEX
  8
CopperTop
  10
12.763024
  20
4.223861
  0
VERTEX
  8
CopperTop
  10
12.769411
  20
4.222444
  0
VERTEX
  8
CopperTop
  10
12.775652
  20
4.220477
  0
VERTEX
  8
CopperTop
  10
12.781696
  20
4.217973
  0
VERTEX
  8
CopperTop
  10
12.7875
  20
4.214952
  0
VERTEX
  8
CopperTop
  10
12.793018
  20
4.211436
  0
VERTEX
  8
CopperTop
  10
12.798209
  20
4.207453
  0
VERTEX
  8
CopperTop
  10
12.803033
  20
4.203033
  0
VERTEX
  8
CopperTop
  10
12.953033
  20
4.053033
  0
VERTEX
  8
CopperTop
  10
12.957453
  20
4.048209
  0
VERTEX
  8
CopperTop
  10
12.961436
  20
4.043018
  0
VERTEX
  8
CopperTop
  10
12.964952
  20
4.0375
  0
VERTEX
  8
CopperTop
  10
12.967973
  20
4.031696
  0
VERTEX
  8
CopperTop
  10
12.970477
  20
4.025652
  0
VERTEX
  8
CopperTop
  10
12.972444
  20
4.019411
  0
VERTEX
  8
CopperTop
  10
12.973861
  20
4.013024
  0
VERTEX
  8
CopperTop
  10
12.974715
  20
4.006537
  0
VERTEX
  8
CopperTop
  10
12.975
  20
4
  0
VERTEX
  8
CopperTop
  10
12.975
  20
1.6
  0
VERTEX
  8
CopperTop
  10
12.974715
  20
1.593463
  0
VERTEX
  8
CopperTop
  10
12.973861
  20
1.586976
  0
VERTEX
  8
CopperTop
  10
12.972444
  20
1.580589
  0
VERTEX
  8
CopperTop
  10
12.970477
  20
1.574348
  0
VERTEX
  8
CopperTop
  10
12.967973
  20
1.568304
  0
VERTEX
  8
CopperTop
  10
12.964952
  20
1.5625
  0
VERTEX
  8
CopperTop
  10
12.961436
  20
1.556982
  0
VERTEX
  8
CopperTop
  10
12.957453
  20
1.551791
  0
VERTEX
  8
CopperTop
  10
12.953033
  20
1.546967
  0
VERTEX
  8
CopperTop
  10
12.853033
  20
1.446967
  0
VERTEX
  8
CopperTop
  10
12.848209
  20
1.442547
  0
VERTEX
  8
CopperTop
  10
12.843018
  20
1.438564
  0
VERTEX
  8
CopperTop
  10
12.8375
  20
1.435048
  0
VERTEX
  8
CopperTop
  10
12.831696
  20
1.432027
  0
VERTEX
  8
CopperTop
  10
12.825652
  20
1.429523
  0
VERTEX
  8
CopperTop
  10
12.819411
  20
1.427556
  0
VERTEX
  8
CopperTop
  10
12.813024
  20
1.426139
  0
VERTEX
  8
CopperTop
  10
12.806537
  20
1.425285
  0
VERTEX
  8
CopperTop
  10
12.8
  20
1.425
  0
VERTEX
  8
CopperTop
  10
12.770554
  20
1.425
  0
VERTEX
  8
CopperTop
  10
12.770554
  20
1.57662
  0
VERTEX
  8
CopperTop
  10
12.778436
  20
1.584502
  0
VERTEX
  8
CopperTop
  10
12.761978
  20
1.575
  0
VERTEX
  8
CopperTop
  10
12.768934
  20
1.575
  0
VERTEX
  8
CopperTop
  10
12.770554
  20
1.57662
  0
VERTEX
  8
CopperTop
  10
12.770554
  20
1.425
  0
VERTEX
  8
CopperTop
  10
10.270653
  20
1.425
  0
VERTEX
  8
CopperTop
  10
10.273932
  20
1.41932
  0
VERTEX
  8
CopperTop
  10
10.294798
  20
1.36199
  0
VERTEX
  8
CopperTop
  10
10.305392
  20
1.301908
  0
VERTEX
  8
CopperTop
  10
10.305392
  20
1.240899
  0
VERTEX
  8
CopperTop
  10
10.294798
  20
1.180817
  0
VERTEX
  8
CopperTop
  10
10.273932
  20
1.123487
  0
VERTEX
  8
CopperTop
  10
10.243427
  20
1.070651
  0
VERTEX
  8
CopperTop
  10
10.204211
  20
1.023916
  0
VERTEX
  8
CopperTop
  10
10.157476
  20
0.9847
  0
VERTEX
  8
CopperTop
  10
10.10464
  20
0.954195
  0
VERTEX
  8
CopperTop
  10
10.047311
  20
0.933329
  0
VERTEX
  8
CopperTop
  10
10.000241
  20
0.925029
  0
VERTEX
  8
CopperTop
  10
9.990181
  20
0.907605
  0
VERTEX
  8
CopperTop
  10
9.950965
  20
0.860869
  0
VERTEX
  8
CopperTop
  10
9.90423
  20
0.821654
  0
VERTEX
  8
CopperTop
  10
9.851394
  20
0.791149
  0
VERTEX
  8
CopperTop
  10
9.794065
  20
0.770283
  0
VERTEX
  8
CopperTop
  10
9.733982
  20
0.759689
  0
VERTEX
  8
CopperTop
  10
9.672973
  20
0.759689
  0
VERTEX
  8
CopperTop
  10
9.612891
  20
0.770283
  0
VERTEX
  8
CopperTop
  10
9.555562
  20
0.791149
  0
VERTEX
  8
CopperTop
  10
9.502726
  20
0.821654
  0
VERTEX
  8
CopperTop
  10
9.455991
  20
0.86087
  0
VERTEX
  8
CopperTop
  10
9.416775
  20
0.907605
  0
VERTEX
  8
CopperTop
  10
9.38627
  20
0.960441
  0
VERTEX
  8
CopperTop
  10
9.365404
  20
1.01777
  0
VERTEX
  8
CopperTop
  10
9.35481
  20
1.077853
  0
VERTEX
  8
CopperTop
  10
9.35481
  20
1.138862
  0
VERTEX
  8
CopperTop
  10
9.365404
  20
1.198944
  0
VERTEX
  8
CopperTop
  10
9.38627
  20
1.256274
  0
VERTEX
  8
CopperTop
  10
9.416775
  20
1.309109
  0
VERTEX
  8
CopperTop
  10
9.455991
  20
1.355845
  0
VERTEX
  8
CopperTop
  10
9.502726
  20
1.39506
  0
VERTEX
  8
CopperTop
  10
9.554583
  20
1.425
  0
VERTEX
  8
CopperTop
  10
7.85
  20
1.425
  0
VERTEX
  8
CopperTop
  10
7.843463
  20
1.425285
  0
VERTEX
  8
CopperTop
  10
7.836976
  20
1.426139
  0
VERTEX
  8
CopperTop
  10
7.830589
  20
1.427556
  0
VERTEX
  8
CopperTop
  10
7.824348
  20
1.429523
  0
VERTEX
  8
CopperTop
  10
7.818304
  20
1.432027
  0
VERTEX
  8
CopperTop
  10
7.8125
  20
1.435048
  0
VERTEX
  8
CopperTop
  10
7.806982
  20
1.438564
  0
VERTEX
  8
CopperTop
  10
7.801791
  20
1.442547
  0
VERTEX
  8
CopperTop
  10
7.796967
  20
1.446967
  0
VERTEX
  8
CopperTop
  10
7.646967
  20
1.596967
  0
VERTEX
  8
CopperTop
  10
7.642547
  20
1.601791
  0
VERTEX
  8
CopperTop
  10
7.638564
  20
1.606982
  0
VERTEX
  8
CopperTop
  10
7.635048
  20
1.6125
  0
VERTEX
  8
CopperTop
  10
7.632027
  20
1.618304
  0
VERTEX
  8
CopperTop
  10
7.629523
  20
1.624348
  0
VERTEX
  8
CopperTop
  10
7.627556
  20
1.630589
  0
VERTEX
  8
CopperTop
  10
7.626139
  20
1.636976
  0
VERTEX
  8
CopperTop
  10
7.625285
  20
1.643463
  0
VERTEX
  8
CopperTop
  10
7.625
  20
1.65
  0
VERTEX
  8
CopperTop
  10
7.625
  20
2.4
  0
VERTEX
  8
CopperTop
  10
7.625285
  20
2.406537
  0
VERTEX
  8
CopperTop
  10
7.626139
  20
2.413024
  0
VERTEX
  8
CopperTop
  10
7.627556
  20
2.419411
  0
VERTEX
  8
CopperTop
  10
7.629523
  20
2.425652
  0
VERTEX
  8
CopperTop
  10
7.632027
  20
2.431696
  0
VERTEX
  8
CopperTop
  10
7.635048
  20
2.4375
  0
VERTEX
  8
CopperTop
  10
7.638564
  20
2.443018
  0
VERTEX
  8
CopperTop
  10
7.642547
  20
2.448209
  0
VERTEX
  8
CopperTop
  10
7.646967
  20
2.453033
  0
VERTEX
  8
CopperTop
  10
7.796967
  20
2.603033
  0
VERTEX
  8
CopperTop
  10
7.801791
  20
2.607453
  0
VERTEX
  8
CopperTop
  10
7.806982
  20
2.611436
  0
VERTEX
  8
CopperTop
  10
7.8125
  20
2.614952
  0
VERTEX
  8
CopperTop
  10
7.818304
  20
2.617973
  0
VERTEX
  8
CopperTop
  10
7.824348
  20
2.620477
  0
VERTEX
  8
CopperTop
  10
7.830589
  20
2.622444
  0
VERTEX
  8
CopperTop
  10
7.836976
  20
2.623861
  0
VERTEX
  8
CopperTop
  10
7.843463
  20
2.624715
  0
VERTEX
  8
CopperTop
  10
7.85
  20
2.625
  0
VERTEX
  8
CopperTop
  10
7.95
  20
2.625
  0
VERTEX
  8
CopperTop
  10
7.95
  20
2.65
  0
VERTEX
  8
CopperTop
  10
8.15
  20
2.65
  0
VERTEX
  8
CopperTop
  10
8.15
  20
2.7
  0
VERTEX
  8
CopperTop
  10
9
  20
2.7
  0
VERTEX
  8
CopperTop
  10
9
  20
2.35
  0
VERTEX
  8
CopperTop
  10
8.15
  20
2.35
  0
VERTEX
  8
CopperTop
  10
8.15
  20
2.4
  0
VERTEX
  8
CopperTop
  10
7.95
  20
2.4
  0
VERTEX
  8
CopperTop
  10
7.95
  20
2.475
  0
VERTEX
  8
CopperTop
  10
7.881066
  20
2.475
  0
VERTEX
  8
CopperTop
  10
7.775
  20
2.368934
  0
VERTEX
  8
CopperTop
  10
7.775
  20
1.681066
  0
VERTEX
  8
CopperTop
  10
7.881066
  20
1.575
  0
VERTEX
  8
CopperTop
  10
9.785233
  20
1.575
  0
VERTEX
  8
CopperTop
  10
9.808808
  20
1.588611
  0
VERTEX
  8
CopperTop
  10
9.866137
  20
1.609477
  0
VERTEX
  8
CopperTop
  10
9.926219
  20
1.620071
  0
VERTEX
  8
CopperTop
  10
9.987228
  20
1.620071
  0
VERTEX
  8
CopperTop
  10
10.047311
  20
1.609477
  0
VERTEX
  8
CopperTop
  10
10.10464
  20
1.588611
  0
VERTEX
  8
CopperTop
  10
10.128215
  20
1.575
  0
VERTEX
  8
CopperTop
  10
12.440533
  20
1.575
  0
VERTEX
  8
CopperTop
  10
12.400504
  20
1.598111
  0
VERTEX
  8
CopperTop
  10
12.353768
  20
1.637327
  0
VERTEX
  8
CopperTop
  10
12.314552
  20
1.684062
  0
VERTEX
  8
CopperTop
  10
12.284048
  20
1.736898
  0
VERTEX
  8
CopperTop
  10
12.263182
  20
1.794227
  0
VERTEX
  8
CopperTop
  10
12.252587
  20
1.85431
  0
VERTEX
  8
CopperTop
  10
12.252587
  20
1.915319
  0
VERTEX
  8
CopperTop
  10
12.263182
  20
1.975401
  0
VERTEX
  8
CopperTop
  10
12.284048
  20
2.03273
  0
VERTEX
  8
CopperTop
  10
12.314552
  20
2.085566
  0
VERTEX
  8
CopperTop
  10
12.353768
  20
2.132301
  0
VERTEX
  8
CopperTop
  10
12.400504
  20
2.171517
  0
VERTEX
  8
CopperTop
  10
12.453339
  20
2.202022
  0
VERTEX
  8
CopperTop
  10
12.510669
  20
2.222888
  0
VERTEX
  8
CopperTop
  10
12.570751
  20
2.233482
  0
VERTEX
  8
CopperTop
  10
12.63176
  20
2.233482
  0
VERTEX
  8
CopperTop
  10
12.691842
  20
2.222888
  0
VERTEX
  8
CopperTop
  10
12.749172
  20
2.202022
  0
VERTEX
  8
CopperTop
  10
12.802007
  20
2.171517
  0
VERTEX
  8
CopperTop
  10
12.825
  20
2.152224
  0
VERTEX
  8
CopperTop
  10
12.825
  20
3.968934
  0
VERTEX
  8
CopperTop
  10
12.718934
  20
4.075
  0
VERTEX
  8
CopperTop
  10
5.841066
  20
4.075
  0
VERTEX
  8
CopperTop
  10
5.215
  20
3.448934
  0
VERTEX
  8
CopperTop
  10
5.215
  20
-3.708934
  0
VERTEX
  8
CopperTop
  10
5.531066
  20
-4.025
  0
VERTEX
  8
CopperTop
  10
7.9
  20
-4.025
  0
VERTEX
  8
CopperTop
  10
7.9
  20
-3.6
  0
VERTEX
  8
CopperTop
  10
8.35
  20
-3.6
  0
VERTEX
  8
CopperTop
  10
8.35
  20
-4.025
  0
VERTEX
  8
CopperTop
  10
8.85
  20
-4.025
  0
VERTEX
  8
CopperTop
  10
8.85
  20
-3.6
  0
VERTEX
  8
CopperTop
  10
9.3
  20
-3.6
  0
VERTEX
  8
CopperTop
  10
9.3
  20
-4.025
  0
VERTEX
  8
CopperTop
  10
11.818934
  20
-4.025
  0
VERTEX
  8
CopperTop
  10
12.225
  20
-3.618934
  0
VERTEX
  8
CopperTop
  10
12.225
  20
-1.801066
  0
VERTEX
  8
CopperTop
  10
11.998934
  20
-1.575
  0
VERTEX
  8
CopperTop
  10
10.18
  20
-1.575
  0
VERTEX
  8
CopperTop
  10
10.173463
  20
-1.574715
  0
VERTEX
  8
CopperTop
  10
10.166976
  20
-1.573861
  0
VERTEX
  8
CopperTop
  10
10.160589
  20
-1.572444
  0
VERTEX
  8
CopperTop
  10
10.154348
  20
-1.570477
  0
VERTEX
  8
CopperTop
  10
10.148304
  20
-1.567973
  0
VERTEX
  8
CopperTop
  10
10.1425
  20
-1.564952
  0
VERTEX
  8
CopperTop
  10
10.136982
  20
-1.561436
  0
VERTEX
  8
CopperTop
  10
10.131791
  20
-1.557453
  0
VERTEX
  8
CopperTop
  10
10.126967
  20
-1.553033
  0
VERTEX
  8
CopperTop
  10
9.996967
  20
-1.423033
  0
VERTEX
  8
CopperTop
  10
9.992547
  20
-1.418209
  0
VERTEX
  8
CopperTop
  10
9.988564
  20
-1.413018
  0
VERTEX
  8
CopperTop
  10
9.985048
  20
-1.4075
  0
VERTEX
  8
CopperTop
  10
9.982027
  20
-1.401696
  0
VERTEX
  8
CopperTop
  10
9.979523
  20
-1.395652
  0
VERTEX
  8
CopperTop
  10
9.977556
  20
-1.389411
  0
VERTEX
  8
CopperTop
  10
9.976139
  20
-1.383024
  0
VERTEX
  8
CopperTop
  10
9.975285
  20
-1.376537
  0
VERTEX
  8
CopperTop
  10
9.975
  20
-1.37
  0
VERTEX
  8
CopperTop
  10
9.975
  20
-0.4
  0
VERTEX
  8
CopperTop
  10
9.975285
  20
-0.393463
  0
VERTEX
  8
CopperTop
  10
9.976139
  20
-0.386976
  0
VERTEX
  8
CopperTop
  10
9.977556
  20
-0.380589
  0
VERTEX
  8
CopperTop
  10
9.979523
  20
-0.374348
  0
VERTEX
  8
CopperTop
  10
9.982027
  20
-0.368304
  0
VERTEX
  8
CopperTop
  10
9.985048
  20
-0.3625
  0
VERTEX
  8
CopperTop
  10
9.988564
  20
-0.356982
  0
VERTEX
  8
CopperTop
  10
9.992547
  20
-0.351791
  0
VERTEX
  8
CopperTop
  10
9.996967
  20
-0.346967
  0
VERTEX
  8
CopperTop
  10
10.946967
  20
0.603033
  0
VERTEX
  8
CopperTop
  10
10.951791
  20
0.607453
  0
VERTEX
  8
CopperTop
  10
10.956982
  20
0.611436
  0
VERTEX
  8
CopperTop
  10
10.9625
  20
0.614952
  0
VERTEX
  8
CopperTop
  10
10.968304
  20
0.617973
  0
VERTEX
  8
CopperTop
  10
10.974348
  20
0.620477
  0
VERTEX
  8
CopperTop
  10
10.980589
  20
0.622444
  0
VERTEX
  8
CopperTop
  10
10.986976
  20
0.623861
  0
VERTEX
  8
CopperTop
  10
10.993463
  20
0.624715
  0
VERTEX
  8
CopperTop
  10
11
  20
0.625
  0
VERTEX
  8
CopperTop
  10
13.125
  20
0.625
  0
VERTEX
  8
CopperTop
  10
13.125
  20
4.218934
  0
VERTEX
  8
CopperTop
  10
12.968934
  20
4.375
  0
VERTEX
  8
CopperTop
  10
4.631066
  20
4.375
  0
VERTEX
  8
CopperTop
  10
4.325
  20
4.068934
  0
VERTEX
  8
CopperTop
  10
4.325
  20
-3.778934
  0
VERTEX
  8
CopperTop
  10
5.171066
  20
-4.625
  0
VERTEX
  8
CopperTop
  10
13.018934
  20
-4.625
  0
VERTEX
  8
CopperTop
  10
13.125
  20
-4.518934
  0
VERTEX
  8
CopperTop
  10
13.125
  20
-0.675
  0
VERTEX
  8
CopperTop
  10
10.786103
  20
-0.675
  0
VERTEX
  8
CopperTop
  10
10.77236
  20
-0.694627
  0
VERTEX
  8
CopperTop
  10
10.744627
  20
-0.72236
  0
VERTEX
  8
CopperTop
  10
10.7125
  20
-0.744856
  0
VERTEX
  8
CopperTop
  10
10.676955
  20
-0.761431
  0
VERTEX
  8
CopperTop
  10
10.639071
  20
-0.771582
  0
VERTEX
  8
CopperTop
  10
10.6
  20
-0.775
  0
VERTEX
  8
CopperTop
  10
10.560929
  20
-0.771582
  0
VERTEX
  8
CopperTop
  10
10.523045
  20
-0.761431
  0
VERTEX
  8
CopperTop
  10
10.4875
  20
-0.744856
  0
VERTEX
  8
CopperTop
  10
10.455373
  20
-0.72236
  0
VERTEX
  8
CopperTop
  10
10.42764
  20
-0.694627
  0
VERTEX
  8
CopperTop
  10
10.405144
  20
-0.6625
  0
VERTEX
  8
CopperTop
  10
10.388569
  20
-0.626955
  0
VERTEX
  8
CopperTop
  10
10.378418
  20
-0.589071
  0
VERTEX
  8
CopperTop
  10
10.375
  20
-0.55
  0
VERTEX
  8
CopperTop
  10
10.378418
  20
-0.510929
  0
VERTEX
  8
CopperTop
  10
10.388569
  20
-0.473045
  0
VERTEX
  8
CopperTop
  10
10.405144
  20
-0.4375
  0
VERTEX
  8
CopperTop
  10
10.42764
  20
-0.405373
  0
VERTEX
  8
CopperTop
  10
10.455373
  20
-0.37764
  0
VERTEX
  8
CopperTop
  10
10.4875
  20
-0.355144
  0
VERTEX
  8
CopperTop
  10
10.523045
  20
-0.338569
  0
VERTEX
  8
CopperTop
  10
10.560929
  20
-0.328418
  0
VERTEX
  8
CopperTop
  10
10.6
  20
-0.325
  0
VERTEX
  8
CopperTop
  10
10.639071
  20
-0.328418
  0
VERTEX
  8
CopperTop
  10
10.676955
  20
-0.338569
  0
VERTEX
  8
CopperTop
  10
10.7125
  20
-0.355144
  0
VERTEX
  8
CopperTop
  10
10.744627
  20
-0.37764
  0
VERTEX
  8
CopperTop
  10
10.77236
  20
-0.405373
  0
VERTEX
  8
CopperTop
  10
10.794856
  20
-0.4375
  0
VERTEX
  8
CopperTop
  10
10.811431
  20
-0.473045
  0
VERTEX
  8
CopperTop
  10
10.821582
  20
-0.510929
  0
VERTEX
  8
CopperTop
  10
10.822813
  20
-0.525
  0
VERTEX
  8
CopperTop
  10
13.2
  20
-0.525
  0
VERTEX
  8
CopperTop
  10
13.213024
  20
-0.526139
  0
VERTEX
  8
CopperTop
  10
13.225652
  20
-0.529523
  0
VERTEX
  8
CopperTop
  10
13.2375
  20
-0.535048
  0
VERTEX
  8
CopperTop
  10
13.248209
  20
-0.542547
  0
VERTEX
  8
CopperTop
  10
13.257453
  20
-0.551791
  0
VERTEX
  8
CopperTop
  10
13.264952
  20
-0.5625
  0
VERTEX
  8
CopperTop
  10
13.270477
  20
-0.574348
  0
VERTEX
  8
CopperTop
  10
13.273861
  20
-0.586976
  0
VERTEX
  8
CopperTop
  10
13.275
  20
-0.6
  0
VERTEX
  8
CopperTop
  10
13.275
  20
-4.55
  0
VERTEX
  8
CopperTop
  10
13.274715
  20
-4.556537
  0
VERTEX
  8
CopperTop
  10
13.273861
  20
-4.563024
  0
VERTEX
  8
CopperTop
  10
13.272444
  20
-4.569411
  0
VERTEX
  8
CopperTop
  10
13.270477
  20
-4.575652
  0
VERTEX
  8
CopperTop
  10
13.267973
  20
-4.581696
  0
VERTEX
  8
CopperTop
  10
13.264952
  20
-4.5875
  0
VERTEX
  8
CopperTop
  10
13.261436
  20
-4.593018
  0
VERTEX
  8
CopperTop
  10
13.257453
  20
-4.598209
  0
VERTEX
  8
CopperTop
  10
13.253033
  20
-4.603033
  0
VERTEX
  8
CopperTop
  10
13.103033
  20
-4.753033
  0
VERTEX
  8
CopperTop
  10
13.098209
  20
-4.757453
  0
VERTEX
  8
CopperTop
  10
13.093018
  20
-4.761436
  0
VERTEX
  8
CopperTop
  10
13.0875
  20
-4.764952
  0
VERTEX
  8
CopperTop
  10
13.081696
  20
-4.767973
  0
VERTEX
  8
CopperTop
  10
13.075652
  20
-4.770477
  0
VERTEX
  8
CopperTop
  10
13.069411
  20
-4.772444
  0
VERTEX
  8
CopperTop
  10
13.063024
  20
-4.773861
  0
VERTEX
  8
CopperTop
  10
13.056537
  20
-4.774715
  0
VERTEX
  8
CopperTop
  10
13.05
  20
-4.775
  0
VERTEX
  8
CopperTop
  10
5.14
  20
-4.775
  0
VERTEX
  8
CopperTop
  10
5.133463
  20
-4.774715
  0
VERTEX
  8
CopperTop
  10
5.126976
  20
-4.773861
  0
VERTEX
  8
CopperTop
  10
5.120589
  20
-4.772444
  0
VERTEX
  8
CopperTop
  10
5.114348
  20
-4.770477
  0
VERTEX
  8
CopperTop
  10
5.108304
  20
-4.767973
  0
VERTEX
  8
CopperTop
  10
5.1025
  20
-4.764952
  0
VERTEX
  8
CopperTop
  10
5.096982
  20
-4.761436
  0
VERTEX
  8
CopperTop
  10
5.091791
  20
-4.757453
  0
VERTEX
  8
CopperTop
  10
5.086967
  20
-4.753033
  0
VERTEX
  8
CopperTop
  10
4.196967
  20
-3.863033
  0
VERTEX
  8
CopperTop
  10
4.192547
  20
-3.858209
  0
VERTEX
  8
CopperTop
  10
4.188564
  20
-3.853018
  0
VERTEX
  8
CopperTop
  10
4.185048
  20
-3.8475
  0
VERTEX
  8
CopperTop
  10
4.182027
  20
-3.841696
  0
VERTEX
  8
CopperTop
  10
4.179523
  20
-3.835652
  0
VERTEX
  8
CopperTop
  10
4.177556
  20
-3.829411
  0
VERTEX
  8
CopperTop
  10
4.176139
  20
-3.823024
  0
VERTEX
  8
CopperTop
  10
4.175285
  20
-3.816537
  0
VERTEX
  8
CopperTop
  10
4.175
  20
-3.81
  0
VERTEX
  8
CopperTop
  10
4.175
  20
4.1
  0
VERTEX
  8
CopperTop
  10
4.175285
  20
4.106537
  0
VERTEX
  8
CopperTop
  10
4.176139
  20
4.113024
  0
VERTEX
  8
CopperTop
  10
4.177556
  20
4.119411
  0
VERTEX
  8
CopperTop
  10
4.179523
  20
4.125652
  0
VERTEX
  8
CopperTop
  10
4.182027
  20
4.131696
  0
VERTEX
  8
CopperTop
  10
4.185048
  20
4.1375
  0
VERTEX
  8
CopperTop
  10
4.188564
  20
4.143018
  0
VERTEX
  8
CopperTop
  10
4.192547
  20
4.148209
  0
VERTEX
  8
CopperTop
  10
4.196967
  20
4.153033
  0
VERTEX
  8
CopperTop
  10
4.546967
  20
4.503033
  0
VERTEX
  8
CopperTop
  10
4.551791
  20
4.507453
  0
VERTEX
  8
CopperTop
  10
4.556982
  20
4.511436
  0
VERTEX
  8
CopperTop
  10
4.5625
  20
4.514952
  0
VERTEX
  8
CopperTop
  10
4.568304
  20
4.517973
  0
VERTEX
  8
CopperTop
  10
4.574348
  20
4.520477
  0
VERTEX
  8
CopperTop
  10
4.580589
  20
4.522444
  0
VERTEX
  8
CopperTop
  10
4.586976
  20
4.523861
  0
VERTEX
  8
CopperTop
  10
4.593463
  20
4.524715
  0
VERTEX
  8
CopperTop
  10
4.6
  20
4.525
  0
VERTEX
  8
CopperTop
  10
13
  20
4.525
  0
SEQEND
  0
CIRCLE
  8
CopperTop
  10
4.32
  20
-4.54
  40
0.225
  0
CIRCLE
  8
CopperTop
  10
10.6
  20
-2.1
  40
0.225
  0
POLYLINE
  8
CopperTop
  70
1
  66
1
  0
VERTEX
  8
CopperTop
  10
9
  20
2.9
  0
VERTEX
  8
CopperTop
  10
8.15
  20
2.9
  0
VERTEX
  8
CopperTop
  10
8.15
  20
2.95
  0
VERTEX
  8
CopperTop
  10
7.95
  20
2.95
  0
VERTEX
  8
CopperTop
  10
7.95
  20
2.975
  0
VERTEX
  8
CopperTop
  10
7.231066
  20
2.975
  0
VERTEX
  8
CopperTop
  10
7.125
  20
2.868934
  0
VERTEX
  8
CopperTop
  10
7.125
  20
2.39026
  0
VERTEX
  8
CopperTop
  10
7.149533
  20
2.385934
  0
VERTEX
  8
CopperTop
  10
7.206863
  20
2.365068
  0
VERTEX
  8
CopperTop
  10
7.259698
  20
2.334563
  0
VERTEX
  8
CopperTop
  10
7.306434
  20
2.295347
  0
VERTEX
  8
CopperTop
  10
7.34565
  20
2.248612
  0
VERTEX
  8
CopperTop
  10
7.376154
  20
2.195776
  0
VERTEX
  8
CopperTop
  10
7.39702
  20
2.138447
  0
VERTEX
  8
CopperTop
  10
7.407615
  20
2.078365
  0
VERTEX
  8
CopperTop
  10
7.407615
  20
2.017356
  0
VERTEX
  8
CopperTop
  10
7.403493
  20
1.993978
  0
VERTEX
  8
CopperTop
  10
7.411431
  20
1.976955
  0
VERTEX
  8
CopperTop
  10
7.421582
  20
1.939071
  0
VERTEX
  8
CopperTop
  10
7.425
  20
1.9
  0
VERTEX
  8
CopperTop
  10
7.421582
  20
1.860929
  0
VERTEX
  8
CopperTop
  10
7.411431
  20
1.823045
  0
VERTEX
  8
CopperTop
  10
7.394856
  20
1.7875
  0
VERTEX
  8
CopperTop
  10
7.37236
  20
1.755373
  0
VERTEX
  8
CopperTop
  10
7.344627
  20
1.72764
  0
VERTEX
  8
CopperTop
  10
7.3125
  20
1.705144
  0
VERTEX
  8
CopperTop
  10
7.276955
  20
1.688569
  0
VERTEX
  8
CopperTop
  10
7.239071
  20
1.678418
  0
VERTEX
  8
CopperTop
  10
7.2
  20
1.675
  0
VERTEX
  8
CopperTop
  10
7.160929
  20
1.678418
  0
VERTEX
  8
CopperTop
  10
7.123045
  20
1.688569
  0
VERTEX
  8
CopperTop
  10
7.097297
  20
1.700575
  0
VERTEX
  8
CopperTop
  10
7.089451
  20
1.699192
  0
VERTEX
  8
CopperTop
  10
7.028442
  20
1.699192
  0
VERTEX
  8
CopperTop
  10
6.96836
  20
1.709786
  0
VERTEX
  8
CopperTop
  10
6.91103
  20
1.730652
  0
VERTEX
  8
CopperTop
  10
6.858195
  20
1.761157
  0
VERTEX
  8
CopperTop
  10
6.811459
  20
1.800373
  0
VERTEX
  8
CopperTop
  10
6.772243
  20
1.847108
  0
VERTEX
  8
CopperTop
  10
6.741739
  20
1.899944
  0
VERTEX
  8
CopperTop
  10
6.720873
  20
1.957273
  0
VERTEX
  8
CopperTop
  10
6.710278
  20
2.017355
  0
VERTEX
  8
CopperTop
  10
6.710278
  20
2.078364
  0
VERTEX
  8
CopperTop
  10
6.720873
  20
2.138446
  0
VERTEX
  8
CopperTop
  10
6.741739
  20
2.195776
  0
VERTEX
  8
CopperTop
  10
6.772243
  20
2.248612
  0
VERTEX
  8
CopperTop
  10
6.811459
  20
2.295347
  0
VERTEX
  8
CopperTop
  10
6.858195
  20
2.334563
  0
VERTEX
  8
CopperTop
  10
6.91103
  20
2.365068
  0
VERTEX
  8
CopperTop
  10
6.96836
  20
2.385934
  0
VERTEX
  8
CopperTop
  10
6.975
  20
2.387105
  0
VERTEX
  8
CopperTop
  10
6.975
  20
2.9
  0
VERTEX
  8
CopperTop
  10
6.975285
  20
2.906537
  0
VERTEX
  8
CopperTop
  10
6.976139
  20
2.913024
  0
VERTEX
  8
CopperTop
  10
6.977556
  20
2.919411
  0
VERTEX
  8
CopperTop
  10
6.979523
  20
2.925652
  0
VERTEX
  8
CopperTop
  10
6.982027
  20
2.931696
  0
VERTEX
  8
CopperTop
  10
6.985048
  20
2.9375
  0
VERTEX
  8
CopperTop
  10
6.988564
  20
2.943018
  0
VERTEX
  8
CopperTop
  10
6.992547
  20
2.948209
  0
VERTEX
  8
CopperTop
  10
6.996967
  20
2.953033
  0
VERTEX
  8
CopperTop
  10
7.146967
  20
3.103033
  0
VERTEX
  8
CopperTop
  10
7.151791
  20
3.107453
  0
VERTEX
  8
CopperTop
  10
7.156982
  20
3.111436
  0
VERTEX
  8
CopperTop
  10
7.1625
  20
3.114952
  0
VERTEX
  8
CopperTop
  10
7.168304
  20
3.117973
  0
VERTEX
  8
CopperTop
  10
7.174348
  20
3.120477
  0
VERTEX
  8
CopperTop
  10
7.180589
  20
3.122444
  0
VERTEX
  8
CopperTop
  10
7.186976
  20
3.123861
  0
VERTEX
  8
CopperTop
  10
7.193463
  20
3.124715
  0
VERTEX
  8
CopperTop
  10
7.2
  20
3.125
  0
VERTEX
  8
CopperTop
  10
7.95
  20
3.125
  0
VERTEX
  8
CopperTop
  10
7.95
  20
3.2
  0
VERTEX
  8
CopperTop
  10
8.15
  20
3.2
  0
VERTEX
  8
CopperTop
  10
8.15
  20
3.25
  0
VERTEX
  8
CopperTop
  10
9
  20
3.25
  0
SEQEND
  0
POLYLINE
  8
CopperTop
  70
1
  66
1
  0
VERTEX
  8
CopperTop
  10
11.85
  20
1.9
  0
VERTEX
  8
CopperTop
  10
11
  20
1.9
  0
VERTEX
  8
CopperTop
  10
11
  20
2.2
  0
VERTEX
  8
CopperTop
  10
11.85
  20
2.2
  0
SEQEND
  0
POLYLINE
  8
CopperTop
  70
1
  66
1
  0
VERTEX
  8
CopperTop
  10
9
  20
1.9
  0
VERTEX
  8
CopperTop
  10
8.15
  20
1.9
  0
VERTEX
  8
CopperTop
  10
8.15
  20
2.2
  0
VERTEX
  8
CopperTop
  10
9
  20
2.2
  0
SEQEND
  0
POLYLINE
  8
CopperTop
  70
1
  66
1
  0
VERTEX
  8
CopperTop
  10
10.75
  20
2.05
  0
VERTEX
  8
CopperTop
  10
9.25
  20
2.05
  0
VERTEX
  8
CopperTop
  10
9.25
  20
3.55
  0
VERTEX
  8
CopperTop
  10
10.75
  20
3.55
  0
SEQEND
  0
POLYLINE
  8
CopperTop
  70
1
  66
1
  0
VERTEX
  8
CopperTop
  10
11.85
  20
2.4
  0
VERTEX
  8
CopperTop
  10
11
  20
2.4
  0
VERTEX
  8
CopperTop
  10
11
  20
2.7
  0
VERTEX
  8
CopperTop
  10
11.85
  20
2.7
  0
SEQEND
  0
POLYLINE
  8
CopperTop
  70
1
  66
1
  0
VERTEX
  8
CopperTop
  10
11.85
  20
2.9
  0
VERTEX
  8
CopperTop
  10
11
  20
2.9
  0
VERTEX
  8
CopperTop
  10
11
  20
3.2
  0
VERTEX
  8
CopperTop
  10
11.85
  20
3.2
  0
SEQEND
  0
POLYLINE
  8
CopperTop
  70
1
  66
1
  0
VERTEX
  8
CopperTop
  10
11.85
  20
3.4
  0
VERTEX
  8
CopperTop
  10
11
  20
3.4
  0
VERTEX
  8
CopperTop
  10
11
  20
3.7
  0
VERTEX
  8
CopperTop
  10
11.85
  20
3.7
  0
SEQEND
  0
POLYLINE
  8
CopperTop
  70
1
  66
1
  0
VERTEX
  8
CopperTop
  10
9
  20
3.4
  0
VERTEX
  8
CopperTop
  10
8.15
  20
3.4
  0
VERTEX
  8
CopperTop
  10
8.15
  20
3.7
  0
VERTEX
  8
CopperTop
  10
9
  20
3.7
  0
SEQEND
  0
POLYLINE
  8
DimensionLines
  70
1
  66
1
  0
VERTEX
  8
DimensionLines
  10
13.525
  20
-4.975
  0
VERTEX
  8
DimensionLines
  10
3.925
  20
-4.975
  0
VERTEX
  8
DimensionLines
  10
3.925
  20
4.725
  0
VERTEX
  8
DimensionLines
  10
13.525
  20
4.725
  0
SEQEND
  0
POLYLINE
  8
SolderMaskTop
  70
1
  66
1
  0
VERTEX
  8
SolderMaskTop
  10
9.35
  20
-4.25
  0
VERTEX
  8
SolderMaskTop
  10
8.8
  20
-4.25
  0
VERTEX
  8
SolderMaskTop
  10
8.8
  20
-3.55
  0
VERTEX
  8
SolderMaskTop
  10
9.35
  20
-3.55
  0
SEQEND
  0
POLYLINE
  8
SolderMaskTop
  70
1
  66
1
  0
VERTEX
  8
SolderMaskTop
  10
8.4
  20
-4.25
  0
VERTEX
  8
SolderMaskTop
  10
7.85
  20
-4.25
  0
VERTEX
  8
SolderMaskTop
  10
7.85
  20
-3.55
  0
VERTEX
  8
SolderMaskTop
  10
8.4
  20
-3.55
  0
SEQEND
  0
POLYLINE
  8
SolderMaskTop
  70
1
  66
1
  0
VERTEX
  8
SolderMaskTop
  10
10.073192
  20
1.70607
  0
VERTEX
  8
SolderMaskTop
  10
10.146902
  20
1.679242
  0
VERTEX
  8
SolderMaskTop
  10
10.214833
  20
1.640022
  0
VERTEX
  8
SolderMaskTop
  10
10.274922
  20
1.589601
  0
VERTEX
  8
SolderMaskTop
  10
10.325342
  20
1.529513
  0
VERTEX
  8
SolderMaskTop
  10
10.364562
  20
1.461581
  0
VERTEX
  8
SolderMaskTop
  10
10.39139
  20
1.387872
  0
VERTEX
  8
SolderMaskTop
  10
10.405011
  20
1.310623
  0
VERTEX
  8
SolderMaskTop
  10
10.405011
  20
1.232183
  0
VERTEX
  8
SolderMaskTop
  10
10.39139
  20
1.154935
  0
VERTEX
  8
SolderMaskTop
  10
10.364562
  20
1.081225
  0
VERTEX
  8
SolderMaskTop
  10
10.325342
  20
1.013294
  0
VERTEX
  8
SolderMaskTop
  10
10.274921
  20
0.953205
  0
VERTEX
  8
SolderMaskTop
  10
10.214833
  20
0.902784
  0
VERTEX
  8
SolderMaskTop
  10
10.146902
  20
0.863564
  0
VERTEX
  8
SolderMaskTop
  10
10.073192
  20
0.836736
  0
VERTEX
  8
SolderMaskTop
  10
10.0586
  20
0.834163
  0
VERTEX
  8
SolderMaskTop
  10
10.021676
  20
0.790159
  0
VERTEX
  8
SolderMaskTop
  10
9.961587
  20
0.739738
  0
VERTEX
  8
SolderMaskTop
  10
9.893656
  20
0.700518
  0
VERTEX
  8
SolderMaskTop
  10
9.819946
  20
0.67369
  0
VERTEX
  8
SolderMaskTop
  10
9.742698
  20
0.660069
  0
VERTEX
  8
SolderMaskTop
  10
9.664258
  20
0.660069
  0
VERTEX
  8
SolderMaskTop
  10
9.587009
  20
0.67369
  0
VERTEX
  8
SolderMaskTop
  10
9.513299
  20
0.700518
  0
VERTEX
  8
SolderMaskTop
  10
9.445368
  20
0.739738
  0
VERTEX
  8
SolderMaskTop
  10
9.38528
  20
0.790159
  0
VERTEX
  8
SolderMaskTop
  10
9.334859
  20
0.850248
  0
VERTEX
  8
SolderMaskTop
  10
9.295639
  20
0.918179
  0
VERTEX
  8
SolderMaskTop
  10
9.268811
  20
0.991888
  0
VERTEX
  8
SolderMaskTop
  10
9.268811
  20
0.991889
  0
VERTEX
  8
SolderMaskTop
  10
9.25519
  20
1.069137
  0
VERTEX
  8
SolderMaskTop
  10
9.25519
  20
1.147577
  0
VERTEX
  8
SolderMaskTop
  10
9.268811
  20
1.224826
  0
VERTEX
  8
SolderMaskTop
  10
9.295639
  20
1.298535
  0
VERTEX
  8
SolderMaskTop
  10
9.334859
  20
1.366467
  0
VERTEX
  8
SolderMaskTop
  10
9.385279
  20
1.426555
  0
VERTEX
  8
SolderMaskTop
  10
9.445368
  20
1.476976
  0
VERTEX
  8
SolderMaskTop
  10
9.513299
  20
1.516196
  0
VERTEX
  8
SolderMaskTop
  10
9.587009
  20
1.543024
  0
VERTEX
  8
SolderMaskTop
  10
9.601602
  20
1.545597
  0
VERTEX
  8
SolderMaskTop
  10
9.638526
  20
1.589601
  0
VERTEX
  8
SolderMaskTop
  10
9.698614
  20
1.640022
  0
VERTEX
  8
SolderMaskTop
  10
9.766545
  20
1.679242
  0
VERTEX
  8
SolderMaskTop
  10
9.840255
  20
1.70607
  0
VERTEX
  8
SolderMaskTop
  10
9.917504
  20
1.719691
  0
VERTEX
  8
SolderMaskTop
  10
9.995944
  20
1.719691
  0
SEQEND
  0
CIRCLE
  8
SolderMaskTop
  10
12.601255
  20
1.884815
  40
0.448288
  0
CIRCLE
  8
SolderMaskTop
  10
7.058947
  20
2.047861
  40
0.448288
  0
POLYLINE
  8
SolderMaskTop
  70
1
  66
1
  0
VERTEX
  8
SolderMaskTop
  10
11.9
  20
1.85
  0
VERTEX
  8
SolderMaskTop
  10
10.95
  20
1.85
  0
VERTEX
  8
SolderMaskTop
  10
10.95
  20
2.25
  0
VERTEX
  8
SolderMaskTop
  10
11.9
  20
2.25
  0
SEQEND
  0
POLYLINE
  8
SolderMaskTop
  70
1
  66
1
  0
VERTEX
  8
SolderMaskTop
  10
9.05
  20
1.85
  0
VERTEX
  8
SolderMaskTop
  10
8.1
  20
1.85
  0
VERTEX
  8
SolderMaskTop
  10
8.1
  20
2.2
  0
VERTEX
  8
SolderMaskTop
  10
9.05
  20
2.2
  0
SEQEND
  0
POLYLINE
  8
SolderMaskTop
  70
1
  66
1
  0
VERTEX
  8
SolderMaskTop
  10
10.85
  20
1.95
  0
VERTEX
  8
SolderMaskTop
  10
9.15
  20
1.95
  0
VERTEX
  8
SolderMaskTop
  10
9.15
  20
3.65
  0
VERTEX
  8
SolderMaskTop
  10
10.85
  20
3.65
  0
SEQEND
  0
POLYLINE
  8
SolderMaskTop
  70
1
  66
1
  0
VERTEX
  8
SolderMaskTop
  10
9.05
  20
2.3
  0
VERTEX
  8
SolderMaskTop
  10
8.1
  20
2.3
  0
VERTEX
  8
SolderMaskTop
  10
8.1
  20
2.75
  0
VERTEX
  8
SolderMaskTop
  10
9.05
  20
2.75
  0
SEQEND
  0
POLYLINE
  8
SolderMaskTop
  70
1
  66
1
  0
VERTEX
  8
SolderMaskTop
  10
11.9
  20
2.35
  0
VERTEX
  8
SolderMaskTop
  10
10.95
  20
2.35
  0
VERTEX
  8
SolderMaskTop
  10
10.95
  20
2.75
  0
VERTEX
  8
SolderMaskTop
  10
11.9
  20
2.75
  0
SEQEND
  0
POLYLINE
  8
SolderMaskTop
  70
1
  66
1
  0
VERTEX
  8
SolderMaskTop
  10
9.05
  20
2.85
  0
VERTEX
  8
SolderMaskTop
  10
8.1
  20
2.85
  0
VERTEX
  8
SolderMaskTop
  10
8.1
  20
3.3
  0
VERTEX
  8
SolderMaskTop
  10
9.05
  20
3.3
  0
SEQEND
  0
POLYLINE
  8
SolderMaskTop
  70
1
  66
1
  0
VERTEX
  8
SolderMaskTop
  10
11.9
  20
2.85
  0
VERTEX
  8
SolderMaskTop
  10
10.95
  20
2.85
  0
VERTEX
  8
SolderMaskTop
  10
10.95
  20
3.25
  0
VERTEX
  8
SolderMaskTop
  10
11.9
  20
3.25
  0
SEQEND
  0
POLYLINE
  8
SolderMaskTop
  70
1
  66
1
  0
VERTEX
  8
SolderMaskTop
  10
11.9
  20
3.35
  0
VERTEX
  8
SolderMaskTop
  10
10.95
  20
3.35
  0
VERTEX
  8
SolderMaskTop
  10
10.95
  20
3.75
  0
VERTEX
  8
SolderMaskTop
  10
11.9
  20
3.75
  0
SEQEND
  0
POLYLINE
  8
SolderMaskTop
  70
1
  66
1
  0
VERTEX
  8
SolderMaskTop
  10
9.05
  20
3.4
  0
VERTEX
  8
SolderMaskTop
  10
8.1
  20
3.4
  0
VERTEX
  8
SolderMaskTop
  10
8.1
  20
3.75
  0
VERTEX
  8
SolderMaskTop
  10
9.05
  20
3.75
  0
SEQEND
  0
POLYLINE
  8
PackageTop
  70
1
  66
1
  0
VERTEX
  8
PackageTop
  10
9.1
  20
-4.15
  0
VERTEX
  8
PackageTop
  10
8.1
  20
-4.15
  0
VERTEX
  8
PackageTop
  10
8.1
  20
-3.65
  0
VERTEX
  8
PackageTop
  10
9.1
  20
-3.65
  0
SEQEND
  0
POLYLINE
  8
PackageTop
  70
1
  66
1
  0
VERTEX
  8
PackageTop
  10
11.5
  20
1.8
  0
VERTEX
  8
PackageTop
  10
8.5
  20
1.8
  0
VERTEX
  8
PackageTop
  10
8.5
  20
3.8
  0
VERTEX
  8
PackageTop
  10
11.5
  20
3.8
  0
SEQEND
  0
POLYLINE
  8
LeadsTop
  70
1
  66
1
  0
VERTEX
  8
LeadsTop
  10
9.1
  20
-4.15
  0
VERTEX
  8
LeadsTop
  10
8.9
  20
-4.15
  0
VERTEX
  8
LeadsTop
  10
8.9
  20
-3.65
  0
VERTEX
  8
LeadsTop
  10
9.1
  20
-3.65
  0
SEQEND
  0
POLYLINE
  8
LeadsTop
  70
1
  66
1
  0
VERTEX
  8
LeadsTop
  10
8.3
  20
-4.15
  0
VERTEX
  8
LeadsTop
  10
8.1
  20
-4.15
  0
VERTEX
  8
LeadsTop
  10
8.1
  20
-3.65
  0
VERTEX
  8
LeadsTop
  10
8.3
  20
-3.65
  0
SEQEND
  0
POLYLINE
  8
LeadsTop
  70
1
  66
1
  0
VERTEX
  8
LeadsTop
  10
11.55
  20
1.9
  0
VERTEX
  8
LeadsTop
  10
11.05
  20
1.9
  0
VERTEX
  8
LeadsTop
  10
11.05
  20
2.2
  0
VERTEX
  8
LeadsTop
  10
11.55
  20
2.2
  0
SEQEND
  0
POLYLINE
  8
LeadsTop
  70
1
  66
1
  0
VERTEX
  8
LeadsTop
  10
8.95
  20
1.9
  0
VERTEX
  8
LeadsTop
  10
8.45
  20
1.9
  0
VERTEX
  8
LeadsTop
  10
8.45
  20
2.2
  0
VERTEX
  8
LeadsTop
  10
8.95
  20
2.2
  0
SEQEND
  0
POLYLINE
  8
LeadsTop
  70
1
  66
1
  0
VERTEX
  8
LeadsTop
  10
10.8
  20
2
  0
VERTEX
  8
LeadsTop
  10
9.2
  20
2
  0
VERTEX
  8
LeadsTop
  10
9.2
  20
3.6
  0
VERTEX
  8
LeadsTop
  10
10.8
  20
3.6
  0
SEQEND
  0
POLYLINE
  8
LeadsTop
  70
1
  66
1
  0
VERTEX
  8
LeadsTop
  10
8.95
  20
2.4
  0
VERTEX
  8
LeadsTop
  10
8.45
  20
2.4
  0
VERTEX
  8
LeadsTop
  10
8.45
  20
2.7
  0
VERTEX
  8
LeadsTop
  10
8.95
  20
2.7
  0
SEQEND
  0
POLYLINE
  8
LeadsTop
  70
1
  66
1
  0
VERTEX
  8
LeadsTop
  10
11.55
  20
2.4
  0
VERTEX
  8
LeadsTop
  10
11.05
  20
2.4
  0
VERTEX
  8
LeadsTop
  10
11.05
  20
2.7
  0
VERTEX
  8
LeadsTop
  10
11.55
  20
2.7
  0
SEQEND
  0
POLYLINE
  8
LeadsTop
  70
1
  66
1
  0
VERTEX
  8
LeadsTop
  10
11.55
  20
2.9
  0
VERTEX
  8
LeadsTop
  10
11.05
  20
2.9
  0
VERTEX
  8
LeadsTop
  10
11.05
  20
3.2
  0
VERTEX
  8
LeadsTop
  10
11.55
  20
3.2
  0
SEQEND
  0
POLYLINE
  8
LeadsTop
  70
1
  66
1
  0
VERTEX
  8
LeadsTop
  10
8.95
  20
2.9
  0
VERTEX
  8
LeadsTop
  10
8.45
  20
2.9
  0
VERTEX
  8
LeadsTop
  10
8.45
  20
3.2
  0
VERTEX
  8
LeadsTop
  10
8.95
  20
3.2
  0
SEQEND
  0
POLYLINE
  8
LeadsTop
  70
1
  66
1
  0
VERTEX
  8
LeadsTop
  10
11.55
  20
3.4
  0
VERTEX
  8
LeadsTop
  10
11.05
  20
3.4
  0
VERTEX
  8
LeadsTop
  10
11.05
  20
3.7
  0
VERTEX
  8
LeadsTop
  10
11.55
  20
3.7
  0
SEQEND
  0
POLYLINE
  8
LeadsTop
  70
1
  66
1
  0
VERTEX
  8
LeadsTop
  10
8.95
  20
3.4
  0
VERTEX
  8
LeadsTop
  10
8.45
  20
3.4
  0
VERTEX
  8
LeadsTop
  10
8.45
  20
3.7
  0
VERTEX
  8
LeadsTop
  10
8.95
  20
3.7
  0
SEQEND
  0
POLYLINE
  8
PasteMaskTop
  70
1
  66
1
  0
VERTEX
  8
PasteMaskTop
  10
9.25
  20
-4.15
  0
VERTEX
  8
PasteMaskTop
  10
8.9
  20
-4.15
  0
VERTEX
  8
PasteMaskTop
  10
8.9
  20
-3.65
  0
VERTEX
  8
PasteMaskTop
  10
9.25
  20
-3.65
  0
SEQEND
  0
POLYLINE
  8
PasteMaskTop
  70
1
  66
1
  0
VERTEX
  8
PasteMaskTop
  10
8.3
  20
-4.15
  0
VERTEX
  8
PasteMaskTop
  10
7.95
  20
-4.15
  0
VERTEX
  8
PasteMaskTop
  10
7.95
  20
-3.65
  0
VERTEX
  8
PasteMaskTop
  10
8.3
  20
-3.65
  0
SEQEND
  0
POLYLINE
  8
PasteMaskTop
  70
1
  66
1
  0
VERTEX
  8
PasteMaskTop
  10
8.95
  20
1.95
  0
VERTEX
  8
PasteMaskTop
  10
8.4
  20
1.95
  0
VERTEX
  8
PasteMaskTop
  10
8.4
  20
2.15
  0
VERTEX
  8
PasteMaskTop
  10
8.95
  20
2.15
  0
SEQEND
  0
POLYLINE
  8
PasteMaskTop
  70
1
  66
1
  0
VERTEX
  8
PasteMaskTop
  10
11.6
  20
1.95
  0
VERTEX
  8
PasteMaskTop
  10
11.05
  20
1.95
  0
VERTEX
  8
PasteMaskTop
  10
11.05
  20
2.15
  0
VERTEX
  8
PasteMaskTop
  10
11.6
  20
2.15
  0
SEQEND
  0
POLYLINE
  8
PasteMaskTop
  70
1
  66
1
  0
VERTEX
  8
PasteMaskTop
  10
10.7
  20
2.1
  0
VERTEX
  8
PasteMaskTop
  10
10.1
  20
2.1
  0
VERTEX
  8
PasteMaskTop
  10
10.1
  20
2.7
  0
VERTEX
  8
PasteMaskTop
  10
10.7
  20
2.7
  0
SEQEND
  0
POLYLINE
  8
PasteMaskTop
  70
1
  66
1
  0
VERTEX
  8
PasteMaskTop
  10
9.9
  20
2.1
  0
VERTEX
  8
PasteMaskTop
  10
9.3
  20
2.1
  0
VERTEX
  8
PasteMaskTop
  10
9.3
  20
2.7
  0
VERTEX
  8
PasteMaskTop
  10
9.9
  20
2.7
  0
SEQEND
  0
POLYLINE
  8
PasteMaskTop
  70
1
  66
1
  0
VERTEX
  8
PasteMaskTop
  10
8.95
  20
2.4
  0
VERTEX
  8
PasteMaskTop
  10
8.4
  20
2.4
  0
VERTEX
  8
PasteMaskTop
  10
8.4
  20
2.65
  0
VERTEX
  8
PasteMaskTop
  10
8.95
  20
2.65
  0
SEQEND
  0
POLYLINE
  8
PasteMaskTop
  70
1
  66
1
  0
VERTEX
  8
PasteMaskTop
  10
11.6
  20
2.45
  0
VERTEX
  8
PasteMaskTop
  10
11.05
  20
2.45
  0
VERTEX
  8
PasteMaskTop
  10
11.05
  20
2.65
  0
VERTEX
  8
PasteMaskTop
  10
11.6
  20
2.65
  0
SEQEND
  0
POLYLINE
  8
PasteMaskTop
  70
1
  66
1
  0
VERTEX
  8
PasteMaskTop
  10
9.9
  20
2.9
  0
VERTEX
  8
PasteMaskTop
  10
9.3
  20
2.9
  0
VERTEX
  8
PasteMaskTop
  10
9.3
  20
3.5
  0
VERTEX
  8
PasteMaskTop
  10
9.9
  20
3.5
  0
SEQEND
  0
POLYLINE
  8
PasteMaskTop
  70
1
  66
1
  0
VERTEX
  8
PasteMaskTop
  10
10.7
  20
2.9
  0
VERTEX
  8
PasteMaskTop
  10
10.1
  20
2.9
  0
VERTEX
  8
PasteMaskTop
  10
10.1
  20
3.5
  0
VERTEX
  8
PasteMaskTop
  10
10.7
  20
3.5
  0
SEQEND
  0
POLYLINE
  8
PasteMaskTop
  70
1
  66
1
  0
VERTEX
  8
PasteMaskTop
  10
8.95
  20
2.95
  0
VERTEX
  8
PasteMaskTop
  10
8.4
  20
2.95
  0
VERTEX
  8
PasteMaskTop
  10
8.4
  20
3.2
  0
VERTEX
  8
PasteMaskTop
  10
8.95
  20
3.2
  0
SEQEND
  0
POLYLINE
  8
PasteMaskTop
  70
1
  66
1
  0
VERTEX
  8
PasteMaskTop
  10
11.6
  20
2.95
  0
VERTEX
  8
PasteMaskTop
  10
11.05
  20
2.95
  0
VERTEX
  8
PasteMaskTop
  10
11.05
  20
3.15
  0
VERTEX
  8
PasteMaskTop
  10
11.6
  20
3.15
  0
SEQEND
  0
POLYLINE
  8
PasteMaskTop
  70
1
  66
1
  0
VERTEX
  8
PasteMaskTop
  10
8.95
  20
3.45
  0
VERTEX
  8
PasteMaskTop
  10
8.4
  20
3.45
  0
VERTEX
  8
PasteMaskTop
  10
8.4
  20
3.65
  0
VERTEX
  8
PasteMaskTop
  10
8.95
  20
3.65
  0
SEQEND
  0
POLYLINE
  8
PasteMaskTop
  70
1
  66
1
  0
VERTEX
  8
PasteMaskTop
  10
11.6
  20
3.45
  0
VERTEX
  8
PasteMaskTop
  10
11.05
  20
3.45
  0
VERTEX
  8
PasteMaskTop
  10
11.05
  20
3.65
  0
VERTEX
  8
PasteMaskTop
  10
11.6
  20
3.65
  0
SEQEND
  0
POLYLINE
  8
KeepOutTop
  70
1
  66
1
  0
VERTEX
  8
KeepOutTop
  10
9.4
  20
-4.3
  0
VERTEX
  8
KeepOutTop
  10
7.8
  20
-4.3
  0
VERTEX
  8
KeepOutTop
  10
7.8
  20
-3.5
  0
VERTEX
  8
KeepOutTop
  10
8.6
  20
-3.5
  0
VERTEX
  8
KeepOutTop
  10
8.6
  20
-3.52
  0
VERTEX
  8
KeepOutTop
  10
7.82
  20
-3.52
  0
VERTEX
  8
KeepOutTop
  10
7.82
  20
-4.28
  0
VERTEX
  8
KeepOutTop
  10
9.38
  20
-4.28
  0
VERTEX
  8
KeepOutTop
  10
9.38
  20
-3.52
  0
VERTEX
  8
KeepOutTop
  10
8.6
  20
-3.52
  0
VERTEX
  8
KeepOutTop
  10
8.6
  20
-3.5
  0
VERTEX
  8
KeepOutTop
  10
9.4
  20
-3.5
  0
SEQEND
  0
POLYLINE
  8
KeepOutTop
  70
1
  66
1
  0
VERTEX
  8
KeepOutTop
  10
12.05
  20
1.65
  0
VERTEX
  8
KeepOutTop
  10
8.1
  20
1.65
  0
VERTEX
  8
KeepOutTop
  10
8.1
  20
1.75
  0
VERTEX
  8
KeepOutTop
  10
11.95
  20
1.75
  0
VERTEX
  8
KeepOutTop
  10
11.95
  20
3.85
  0
VERTEX
  8
KeepOutTop
  10
8.05
  20
3.85
  0
VERTEX
  8
KeepOutTop
  10
8.05
  20
1.65
  0
VERTEX
  8
KeepOutTop
  10
7.95
  20
1.65
  0
VERTEX
  8
KeepOutTop
  10
7.95
  20
3.95
  0
VERTEX
  8
KeepOutTop
  10
12.05
  20
3.95
  0
SEQEND
  0
POLYLINE
  8
KeepOutTop
  70
1
  66
1
  0
VERTEX
  8
KeepOutTop
  10
10.1
  20
2.9
  0
VERTEX
  8
KeepOutTop
  10
10.4
  20
2.9
  0
VERTEX
  8
KeepOutTop
  10
10.4
  20
2.7
  0
VERTEX
  8
KeepOutTop
  10
10.1
  20
2.7
  0
VERTEX
  8
KeepOutTop
  10
10.1
  20
2.4
  0
VERTEX
  8
KeepOutTop
  10
9.9
  20
2.4
  0
VERTEX
  8
KeepOutTop
  10
9.9
  20
2.7
  0
VERTEX
  8
KeepOutTop
  10
9.6
  20
2.7
  0
VERTEX
  8
KeepOutTop
  10
9.6
  20
2.9
  0
VERTEX
  8
KeepOutTop
  10
9.9
  20
2.9
  0
VERTEX
  8
KeepOutTop
  10
9.9
  20
3.2
  0
VERTEX
  8
KeepOutTop
  10
10.1
  20
3.2
  0
SEQEND
  0
CIRCLE
  8
98_0
  10
4.32
  20
-4.54
  40
0.1
  0
CIRCLE
  8
98_0
  10
10.6
  20
-2.1
  40
0.1
  0
CIRCLE
  8
98_0
  10
10.6
  20
-2.1
  40
0.1
  0
CIRCLE
  8
98_0
  10
7.2
  20
1.9
  40
0.1
  0
CIRCLE
  8
98_0
  10
7.2
  20
1.9
  40
0.1
  0
CIRCLE
  8
98_0
  10
10.6
  20
-0.55
  40
0.1
  0
CIRCLE
  8
98_0
  10
4.32
  20
-4.54
  40
0.1
  0
ENDSEC
  0
EOF
